<svg width="356" height="50" viewBox="0 0 356 50" fill="none" xmlns="http://www.w3.org/2000/svg">
<mask id="mask0_1541_4041" style="mask-type:alpha" maskUnits="userSpaceOnUse" x="0" y="0" width="356" height="50">
<path d="M12 0.5H344C350.351 0.5 355.5 5.64873 355.5 12V38C355.5 44.3513 350.351 49.5 344 49.5H12C5.64872 49.5 0.5 44.3513 0.5 38V12C0.5 5.64873 5.64873 0.5 12 0.5Z" fill="#008161" stroke="#00FFBF"/>
</mask>
<g mask="url(#mask0_1541_4041)">
<g filter="url(#filter0_b_1541_4041)">
<path d="M0 12C0 5.37258 5.37258 0 12 0H344C350.627 0 356 5.37258 356 12V38C356 44.6274 350.627 50 344 50H12C5.37258 50 0 44.6274 0 38V12Z" fill="url(#paint0_linear_1541_4041)" fill-opacity="0.9"/>
</g>
<g filter="url(#filter1_b_1541_4041)">
<path fill-rule="evenodd" clip-rule="evenodd" d="M344 1H12C5.92487 1 1 5.92487 1 12V38C1 44.0751 5.92487 49 12 49H344C350.075 49 355 44.0751 355 38V12C355 5.92487 350.075 1 344 1ZM12 0C5.37258 0 0 5.37258 0 12V38C0 44.6274 5.37258 50 12 50H344C350.627 50 356 44.6274 356 38V12C356 5.37258 350.627 0 344 0H12Z" fill="url(#paint1_linear_1541_4041)"/>
</g>
<g opacity="0.5" filter="url(#filter2_d_1541_4041)">
<path fill-rule="evenodd" clip-rule="evenodd" d="M119.533 6C118.911 6 118.407 6.33688 118.407 6.75248C118.407 7.16807 118.911 7.50495 119.533 7.50495H282.824C283.445 7.50495 283.95 7.16807 283.95 6.75248C283.95 6.33688 283.445 6 282.824 6H119.533ZM158.103 32.1485C158.103 31.8368 158.481 31.5842 158.948 31.5842H303.094C303.56 31.5842 303.939 31.8368 303.939 32.1485C303.939 32.4602 303.56 32.7129 303.094 32.7129H158.948C158.481 32.7129 158.103 32.4602 158.103 32.1485ZM59.0028 43.4356C59.0028 43.124 59.3809 42.8713 59.8474 42.8713H113.902C114.369 42.8713 114.747 43.124 114.747 43.4356C114.747 43.7473 114.369 44 113.902 44H59.8474C59.3809 44 59.0028 43.7473 59.0028 43.4356Z" fill="#00FFBF"/>
</g>
<g filter="url(#filter3_d_1541_4041)">
<path fill-rule="evenodd" clip-rule="evenodd" d="M309.049 9C308.619 9 308.27 9.21851 308.27 9.48804C308.27 9.75757 308.619 9.97608 309.049 9.97608H352.674C353.104 9.97608 353.453 9.75757 353.453 9.48804C353.453 9.21851 353.104 9 352.674 9H309.049ZM77.4188 12.4163C76.5583 12.4163 75.8607 12.8533 75.8607 13.3923C75.8607 13.9314 76.5583 14.3684 77.4188 14.3684H201.024C201.884 14.3684 202.582 13.9314 202.582 13.3923C202.582 12.8533 201.884 12.4163 201.024 12.4163H77.4188ZM320.474 12.7416C320.474 12.2026 321.172 11.7656 322.032 11.7656H369.812C370.672 11.7656 371.37 12.2026 371.37 12.7416C371.37 13.2807 370.672 13.7177 369.812 13.7177H322.032C321.172 13.7177 320.474 13.2807 320.474 12.7416ZM211.411 41.0478C210.551 41.0478 209.853 41.4849 209.853 42.0239C209.853 42.563 210.551 43 211.411 43H362.022C362.882 43 363.58 42.563 363.58 42.0239C363.58 41.4849 362.882 41.0478 362.022 41.0478H211.411Z" fill="#00FFBF" fill-opacity="0.3" shape-rendering="crispEdges"/>
</g>
<g filter="url(#filter4_d_1541_4041)">
<path fill-rule="evenodd" clip-rule="evenodd" d="M88.7926 17C89.219 17 89.565 17.1542 89.565 17.3445C89.565 17.5348 89.219 17.689 88.7926 17.689H45.5378C45.1114 17.689 44.7654 17.5348 44.7654 17.3445C44.7654 17.1542 45.1114 17 45.5378 17H88.7926ZM318.455 19.4115C319.308 19.4115 320 19.72 320 20.1005C320 20.481 319.308 20.7895 318.455 20.7895H195.9C195.047 20.7895 194.355 20.481 194.355 20.1005C194.355 19.72 195.047 19.4115 195.9 19.4115H318.455ZM77.464 19.6411C77.464 19.2606 76.7719 18.9522 75.9192 18.9522H28.5448C27.6921 18.9522 27 19.2606 27 19.6411C27 20.0217 27.6921 20.3301 28.5448 20.3301H75.9192C76.7719 20.3301 77.464 20.0217 77.464 19.6411ZM185.601 39.622C186.454 39.622 187.146 39.9305 187.146 40.311C187.146 40.6915 186.454 41 185.601 41H36.2689C35.4162 41 34.7241 40.6915 34.7241 40.311C34.7241 39.9305 35.4162 39.622 36.2689 39.622H185.601Z" fill="#00FFBF"/>
</g>
</g>
<path d="M0 12C0 5.37258 5.32769 0 11.8997 0H344.1C350.672 0 356 5.37258 356 12V38C356 44.6274 350.672 50 344.1 50H11.8997C5.32768 50 0 44.6274 0 38V12Z" fill="url(#paint2_linear_1541_4041)"/>
<path fill-rule="evenodd" clip-rule="evenodd" d="M344.1 1.5H11.8997C6.14919 1.5 1.48747 6.20101 1.48747 12V38C1.48747 43.799 6.14919 48.5 11.8997 48.5H344.1C349.851 48.5 354.513 43.799 354.513 38V12C354.513 6.20101 349.851 1.5 344.1 1.5ZM11.8997 0C5.32769 0 0 5.37258 0 12V38C0 44.6274 5.32768 50 11.8997 50H344.1C350.672 50 356 44.6274 356 38V12C356 5.37258 350.672 0 344.1 0H11.8997Z" fill="#00FFBF"/>
<defs>
<filter id="filter0_b_1541_4041" x="-50" y="-50" width="456" height="150" filterUnits="userSpaceOnUse" color-interpolation-filters="sRGB">
<feFlood flood-opacity="0" result="BackgroundImageFix"/>
<feGaussianBlur in="BackgroundImageFix" stdDeviation="25"/>
<feComposite in2="SourceAlpha" operator="in" result="effect1_backgroundBlur_1541_4041"/>
<feBlend mode="normal" in="SourceGraphic" in2="effect1_backgroundBlur_1541_4041" result="shape"/>
</filter>
<filter id="filter1_b_1541_4041" x="-50" y="-50" width="456" height="150" filterUnits="userSpaceOnUse" color-interpolation-filters="sRGB">
<feFlood flood-opacity="0" result="BackgroundImageFix"/>
<feGaussianBlur in="BackgroundImageFix" stdDeviation="25"/>
<feComposite in2="SourceAlpha" operator="in" result="effect1_backgroundBlur_1541_4041"/>
<feBlend mode="normal" in="SourceGraphic" in2="effect1_backgroundBlur_1541_4041" result="shape"/>
</filter>
<filter id="filter2_d_1541_4041" x="55.0028" y="2" width="252.936" height="46" filterUnits="userSpaceOnUse" color-interpolation-filters="sRGB">
<feFlood flood-opacity="0" result="BackgroundImageFix"/>
<feColorMatrix in="SourceAlpha" type="matrix" values="0 0 0 0 0 0 0 0 0 0 0 0 0 0 0 0 0 0 127 0" result="hardAlpha"/>
<feOffset/>
<feGaussianBlur stdDeviation="2"/>
<feComposite in2="hardAlpha" operator="out"/>
<feColorMatrix type="matrix" values="0 0 0 0 0 0 0 0 0 1 0 0 0 0 0.74902 0 0 0 0.5 0"/>
<feBlend mode="normal" in2="BackgroundImageFix" result="effect1_dropShadow_1541_4041"/>
<feBlend mode="normal" in="SourceGraphic" in2="effect1_dropShadow_1541_4041" result="shape"/>
</filter>
<filter id="filter3_d_1541_4041" x="73.8607" y="7" width="299.51" height="38" filterUnits="userSpaceOnUse" color-interpolation-filters="sRGB">
<feFlood flood-opacity="0" result="BackgroundImageFix"/>
<feColorMatrix in="SourceAlpha" type="matrix" values="0 0 0 0 0 0 0 0 0 0 0 0 0 0 0 0 0 0 127 0" result="hardAlpha"/>
<feOffset/>
<feGaussianBlur stdDeviation="1"/>
<feComposite in2="hardAlpha" operator="out"/>
<feColorMatrix type="matrix" values="0 0 0 0 0 0 0 0 0 1 0 0 0 0 0.74902 0 0 0 0.3 0"/>
<feBlend mode="normal" in2="BackgroundImageFix" result="effect1_dropShadow_1541_4041"/>
<feBlend mode="normal" in="SourceGraphic" in2="effect1_dropShadow_1541_4041" result="shape"/>
</filter>
<filter id="filter4_d_1541_4041" x="24" y="14" width="299" height="30" filterUnits="userSpaceOnUse" color-interpolation-filters="sRGB">
<feFlood flood-opacity="0" result="BackgroundImageFix"/>
<feColorMatrix in="SourceAlpha" type="matrix" values="0 0 0 0 0 0 0 0 0 0 0 0 0 0 0 0 0 0 127 0" result="hardAlpha"/>
<feOffset/>
<feGaussianBlur stdDeviation="1.5"/>
<feComposite in2="hardAlpha" operator="out"/>
<feColorMatrix type="matrix" values="0 0 0 0 0 0 0 0 0 1 0 0 0 0 0.74902 0 0 0 0.8 0"/>
<feBlend mode="normal" in2="BackgroundImageFix" result="effect1_dropShadow_1541_4041"/>
<feBlend mode="normal" in="SourceGraphic" in2="effect1_dropShadow_1541_4041" result="shape"/>
</filter>
<linearGradient id="paint0_linear_1541_4041" x1="341.5" y1="50" x2="5.73857e-07" y2="-3.91944e-06" gradientUnits="userSpaceOnUse">
<stop stop-color="#004231"/>
<stop offset="1"/>
</linearGradient>
<linearGradient id="paint1_linear_1541_4041" x1="0" y1="0" x2="356" y2="50" gradientUnits="userSpaceOnUse">
<stop stop-color="#00B486"/>
<stop offset="1" stop-color="#007557"/>
</linearGradient>
<linearGradient id="paint2_linear_1541_4041" x1="0" y1="25" x2="356" y2="25" gradientUnits="userSpaceOnUse">
<stop/>
<stop offset="1" stop-opacity="0"/>
</linearGradient>
</defs>
</svg>
