<svg width="359" height="50" viewBox="0 0 359 50" fill="none" xmlns="http://www.w3.org/2000/svg">
<mask id="mask0_1540_4023" style="mask-type:alpha" maskUnits="userSpaceOnUse" x="0" y="0" width="359" height="50">
<path d="M12 0.5H347C353.351 0.5 358.5 5.64873 358.5 12V38C358.5 44.3513 353.351 49.5 347 49.5H12C5.64872 49.5 0.5 44.3513 0.5 38V12C0.5 5.64873 5.64873 0.5 12 0.5Z" fill="#008161" stroke="#00FFBF"/>
</mask>
<g mask="url(#mask0_1540_4023)">
<g filter="url(#filter0_b_1540_4023)">
<path d="M0 12C0 5.37258 5.37258 0 12 0H347C353.627 0 359 5.37258 359 12V38C359 44.6274 353.627 50 347 50H12C5.37258 50 0 44.6274 0 38V12Z" fill="url(#paint0_linear_1540_4023)" fill-opacity="0.9"/>
<path d="M12 0.5H347C353.351 0.5 358.5 5.64873 358.5 12V38C358.5 44.3513 353.351 49.5 347 49.5H12C5.64872 49.5 0.5 44.3513 0.5 38V12C0.5 5.64873 5.64873 0.5 12 0.5Z" stroke="url(#paint1_linear_1540_4023)"/>
</g>
<g opacity="0.5" filter="url(#filter1_d_1540_4023)">
<path fill-rule="evenodd" clip-rule="evenodd" d="M120.54 6C119.913 6 119.404 6.33688 119.404 6.75248C119.404 7.16807 119.913 7.50495 120.54 7.50495H285.207C285.834 7.50495 286.343 7.16807 286.343 6.75248C286.343 6.33688 285.834 6 285.207 6H120.54ZM159.436 32.1485C159.436 31.8368 159.817 31.5842 160.287 31.5842H305.648C306.118 31.5842 306.5 31.8368 306.5 32.1485C306.5 32.4602 306.118 32.7129 305.648 32.7129H160.287C159.817 32.7129 159.436 32.4602 159.436 32.1485ZM59.5 43.4356C59.5 43.124 59.8813 42.8713 60.3517 42.8713H114.862C115.332 42.8713 115.714 43.124 115.714 43.4356C115.714 43.7473 115.332 44 114.862 44H60.3517C59.8813 44 59.5 43.7473 59.5 43.4356Z" fill="#00FFBF"/>
</g>
<g filter="url(#filter2_d_1540_4023)">
<path fill-rule="evenodd" clip-rule="evenodd" d="M311.653 9C311.219 9 310.867 9.21851 310.867 9.48804C310.867 9.75757 311.219 9.97608 311.653 9.97608H355.646C356.08 9.97608 356.431 9.75757 356.431 9.48804C356.431 9.21851 356.08 9 355.646 9H311.653ZM78.0712 12.4163C77.2034 12.4163 76.5 12.8533 76.5 13.3923C76.5 13.9314 77.2034 14.3684 78.0712 14.3684H202.718C203.585 14.3684 204.289 13.9314 204.289 13.3923C204.289 12.8533 203.585 12.4163 202.718 12.4163H78.0712ZM323.175 12.7416C323.175 12.2026 323.879 11.7656 324.746 11.7656H372.929C373.796 11.7656 374.5 12.2026 374.5 12.7416C374.5 13.2807 373.796 13.7177 372.929 13.7177H324.746C323.879 13.7177 323.175 13.2807 323.175 12.7416ZM213.192 41.0478C212.325 41.0478 211.621 41.4849 211.621 42.0239C211.621 42.563 212.325 43 213.192 43H365.073C365.94 43 366.644 42.563 366.644 42.0239C366.644 41.4849 365.94 41.0478 365.073 41.0478H213.192Z" fill="#00FFBF" fill-opacity="0.3" shape-rendering="crispEdges"/>
</g>
<g filter="url(#filter3_d_1540_4023)">
<path fill-rule="evenodd" clip-rule="evenodd" d="M86.1292 17C86.5337 17 86.862 17.1542 86.862 17.3445C86.862 17.5348 86.5337 17.689 86.1292 17.689H45.0888C44.6842 17.689 44.3559 17.5348 44.3559 17.3445C44.3559 17.1542 44.6842 17 45.0888 17H86.1292ZM304.034 19.4115C304.844 19.4115 305.5 19.72 305.5 20.1005C305.5 20.481 304.844 20.7895 304.034 20.7895H187.753C186.944 20.7895 186.287 20.481 186.287 20.1005C186.287 19.72 186.944 19.4115 187.753 19.4115H304.034ZM75.3805 19.6411C75.3805 19.2606 74.7238 18.9522 73.9148 18.9522H28.9657C28.1567 18.9522 27.5 19.2606 27.5 19.6411C27.5 20.0217 28.1567 20.3301 28.9657 20.3301H73.9148C74.7238 20.3301 75.3805 20.0217 75.3805 19.6411ZM177.982 39.622C178.791 39.622 179.447 39.9305 179.447 40.311C179.447 40.6915 178.791 41 177.982 41H36.2944C35.4853 41 34.8287 40.6915 34.8287 40.311C34.8287 39.9305 35.4853 39.622 36.2944 39.622H177.982Z" fill="#00FFBF"/>
</g>
<path d="M0 12C0 5.37258 5.37258 0 12 0H347C353.627 0 359 5.37258 359 12V38C359 44.6274 353.627 50 347 50H12C5.37258 50 0 44.6274 0 38V12Z" fill="url(#paint2_linear_1540_4023)"/>
<path fill-rule="evenodd" clip-rule="evenodd" d="M347 1.5H12C6.20101 1.5 1.5 6.20101 1.5 12V38C1.5 43.799 6.201 48.5 12 48.5H347C352.799 48.5 357.5 43.799 357.5 38V12C357.5 6.20101 352.799 1.5 347 1.5ZM12 0C5.37258 0 0 5.37258 0 12V38C0 44.6274 5.37258 50 12 50H347C353.627 50 359 44.6274 359 38V12C359 5.37258 353.627 0 347 0H12Z" fill="#00FFBF"/>
</g>
<defs>
<filter id="filter0_b_1540_4023" x="-50" y="-50" width="459" height="150" filterUnits="userSpaceOnUse" color-interpolation-filters="sRGB">
<feFlood flood-opacity="0" result="BackgroundImageFix"/>
<feGaussianBlur in="BackgroundImageFix" stdDeviation="25"/>
<feComposite in2="SourceAlpha" operator="in" result="effect1_backgroundBlur_1540_4023"/>
<feBlend mode="normal" in="SourceGraphic" in2="effect1_backgroundBlur_1540_4023" result="shape"/>
</filter>
<filter id="filter1_d_1540_4023" x="55.5" y="2" width="255" height="46" filterUnits="userSpaceOnUse" color-interpolation-filters="sRGB">
<feFlood flood-opacity="0" result="BackgroundImageFix"/>
<feColorMatrix in="SourceAlpha" type="matrix" values="0 0 0 0 0 0 0 0 0 0 0 0 0 0 0 0 0 0 127 0" result="hardAlpha"/>
<feOffset/>
<feGaussianBlur stdDeviation="2"/>
<feComposite in2="hardAlpha" operator="out"/>
<feColorMatrix type="matrix" values="0 0 0 0 0 0 0 0 0 1 0 0 0 0 0.74902 0 0 0 0.5 0"/>
<feBlend mode="normal" in2="BackgroundImageFix" result="effect1_dropShadow_1540_4023"/>
<feBlend mode="normal" in="SourceGraphic" in2="effect1_dropShadow_1540_4023" result="shape"/>
</filter>
<filter id="filter2_d_1540_4023" x="74.5" y="7" width="302" height="38" filterUnits="userSpaceOnUse" color-interpolation-filters="sRGB">
<feFlood flood-opacity="0" result="BackgroundImageFix"/>
<feColorMatrix in="SourceAlpha" type="matrix" values="0 0 0 0 0 0 0 0 0 0 0 0 0 0 0 0 0 0 127 0" result="hardAlpha"/>
<feOffset/>
<feGaussianBlur stdDeviation="1"/>
<feComposite in2="hardAlpha" operator="out"/>
<feColorMatrix type="matrix" values="0 0 0 0 0 0 0 0 0 1 0 0 0 0 0.74902 0 0 0 0.3 0"/>
<feBlend mode="normal" in2="BackgroundImageFix" result="effect1_dropShadow_1540_4023"/>
<feBlend mode="normal" in="SourceGraphic" in2="effect1_dropShadow_1540_4023" result="shape"/>
</filter>
<filter id="filter3_d_1540_4023" x="24.5" y="14" width="284" height="30" filterUnits="userSpaceOnUse" color-interpolation-filters="sRGB">
<feFlood flood-opacity="0" result="BackgroundImageFix"/>
<feColorMatrix in="SourceAlpha" type="matrix" values="0 0 0 0 0 0 0 0 0 0 0 0 0 0 0 0 0 0 127 0" result="hardAlpha"/>
<feOffset/>
<feGaussianBlur stdDeviation="1.5"/>
<feComposite in2="hardAlpha" operator="out"/>
<feColorMatrix type="matrix" values="0 0 0 0 0 0 0 0 0 1 0 0 0 0 0.74902 0 0 0 0.8 0"/>
<feBlend mode="normal" in2="BackgroundImageFix" result="effect1_dropShadow_1540_4023"/>
<feBlend mode="normal" in="SourceGraphic" in2="effect1_dropShadow_1540_4023" result="shape"/>
</filter>
<linearGradient id="paint0_linear_1540_4023" x1="344.378" y1="50" x2="0.122281" y2="-0.828197" gradientUnits="userSpaceOnUse">
<stop stop-color="#004231"/>
<stop offset="1"/>
</linearGradient>
<linearGradient id="paint1_linear_1540_4023" x1="0" y1="0" x2="358.882" y2="50.8296" gradientUnits="userSpaceOnUse">
<stop stop-color="#00B486"/>
<stop offset="1" stop-color="#007557"/>
</linearGradient>
<linearGradient id="paint2_linear_1540_4023" x1="0" y1="25" x2="359" y2="25" gradientUnits="userSpaceOnUse">
<stop/>
<stop offset="1" stop-opacity="0"/>
</linearGradient>
</defs>
</svg>
