<svg width="302" height="90" viewBox="0 0 302 90" fill="none" xmlns="http://www.w3.org/2000/svg">
<g filter="url(#filter0_d_384_8332)">
<path fill-rule="evenodd" clip-rule="evenodd" d="M296 7.85714C294.977 7.85714 294.147 7.02567 294.147 6H13.4121C13.4121 10.1027 10.0936 13.4286 6 13.4286V76.5714C10.0936 76.5714 13.4121 79.8973 13.4121 84H294.147C294.147 82.9743 294.977 82.1429 296 82.1429V80.2857C294.977 80.2857 294.147 79.4542 294.147 78.4286C294.147 77.4029 294.977 76.5714 296 76.5714V74.7143C294.977 74.7143 294.147 73.8828 294.147 72.8571C294.147 71.8315 294.977 71 296 71V69.1429C294.977 69.1429 294.147 68.3114 294.147 67.2857C294.147 66.26 294.977 65.4286 296 65.4286V63.5714C294.977 63.5714 294.147 62.74 294.147 61.7143C294.147 60.6886 294.977 59.8571 296 59.8571V58C294.977 58 294.147 57.1685 294.147 56.1429C294.147 55.1172 294.977 54.2857 296 54.2857V52.4286C294.977 52.4286 294.147 51.5971 294.147 50.5714C294.147 49.5458 294.977 48.7143 296 48.7143V46.8571C294.977 46.8571 294.147 46.0257 294.147 45C294.147 43.9743 294.977 43.1429 296 43.1429V41.2857C294.977 41.2857 294.147 40.4542 294.147 39.4286C294.147 38.4029 294.977 37.5714 296 37.5714V35.7143C294.977 35.7143 294.147 34.8828 294.147 33.8571C294.147 32.8315 294.977 32 296 32V30.1429C294.977 30.1429 294.147 29.3114 294.147 28.2857C294.147 27.26 294.977 26.4286 296 26.4286V24.5714C294.977 24.5714 294.147 23.74 294.147 22.7143C294.147 21.6886 294.977 20.8571 296 20.8571V19C294.977 19 294.147 18.1685 294.147 17.1429C294.147 16.1172 294.977 15.2857 296 15.2857V13.4286C294.977 13.4286 294.147 12.5971 294.147 11.5714C294.147 10.5458 294.977 9.71429 296 9.71429V7.85714Z" fill="url(#paint0_linear_384_8332)" fill-opacity="0.5" shape-rendering="crispEdges"/>
<path d="M6.75 14.1445C10.6609 13.7876 13.7728 10.6667 14.1283 6.75H293.506C293.757 7.58594 294.415 8.24609 295.25 8.49735V9.07408C294.177 9.39675 293.397 10.3938 293.397 11.5714C293.397 12.7491 294.177 13.7461 295.25 14.0688V14.6455C294.177 14.9682 293.397 15.9652 293.397 17.1429C293.397 18.3205 294.177 19.3175 295.25 19.6402V20.2169C294.177 20.5396 293.397 21.5366 293.397 22.7143C293.397 23.892 294.177 24.889 295.25 25.2116V25.7884C294.177 26.111 293.397 27.108 293.397 28.2857C293.397 29.4634 294.177 30.4604 295.25 30.7831V31.3598C294.177 31.6825 293.397 32.6795 293.397 33.8571C293.397 35.0348 294.177 36.0318 295.25 36.3545V36.9312C294.177 37.2539 293.397 38.2509 293.397 39.4286C293.397 40.6063 294.177 41.6033 295.25 41.9259V42.5027C294.177 42.8253 293.397 43.8223 293.397 45C293.397 46.1777 294.177 47.1747 295.25 47.4973V48.0741C294.177 48.3967 293.397 49.3938 293.397 50.5714C293.397 51.7491 294.177 52.7461 295.25 53.0688V53.6455C294.177 53.9682 293.397 54.9652 293.397 56.1429C293.397 57.3205 294.177 58.3175 295.25 58.6402V59.2169C294.177 59.5396 293.397 60.5366 293.397 61.7143C293.397 62.892 294.177 63.889 295.25 64.2116V64.7884C294.177 65.111 293.397 66.108 293.397 67.2857C293.397 68.4634 294.177 69.4604 295.25 69.7831V70.3598C294.177 70.6825 293.397 71.6795 293.397 72.8571C293.397 74.0348 294.177 75.0318 295.25 75.3545V75.9312C294.177 76.2539 293.397 77.2509 293.397 78.4286C293.397 79.6062 294.177 80.6032 295.25 80.9259V81.5026C294.415 81.7539 293.757 82.4141 293.506 83.25H14.1283C13.7728 79.3333 10.6609 76.2124 6.75 75.8555V14.1445Z" stroke="#00FFBF" stroke-width="1.5" shape-rendering="crispEdges"/>
</g>
<g filter="url(#filter1_d_384_8332)">
<path d="M39.688 31.176H42.504V32.904H39.688V31.176ZM41.912 27.608H44.056V36.408H41.912V27.608ZM39.032 36.728C40.0773 36.728 40.9787 36.84 41.736 37.064C42.4933 37.288 43.0747 37.6133 43.48 38.04C43.896 38.4667 44.104 38.9787 44.104 39.576C44.104 40.4933 43.6507 41.1973 42.744 41.688C41.8373 42.1893 40.6 42.44 39.032 42.44C37.464 42.44 36.2267 42.1893 35.32 41.688C34.4133 41.1973 33.96 40.4933 33.96 39.576C33.96 38.9787 34.1627 38.4667 34.568 38.04C34.984 37.6133 35.5707 37.288 36.328 37.064C37.0853 36.84 37.9867 36.728 39.032 36.728ZM39.032 38.344C38.392 38.344 37.8533 38.392 37.416 38.488C36.9787 38.5733 36.6427 38.7067 36.408 38.888C36.184 39.0693 36.072 39.2987 36.072 39.576C36.072 39.8533 36.184 40.088 36.408 40.28C36.6427 40.4613 36.9787 40.6 37.416 40.696C37.8533 40.7813 38.392 40.824 39.032 40.824C39.672 40.824 40.2107 40.7813 40.648 40.696C41.0853 40.6 41.416 40.4613 41.64 40.28C41.864 40.088 41.976 39.8533 41.976 39.576C41.976 39.2987 41.864 39.0693 41.64 38.888C41.416 38.7067 41.0853 38.5733 40.648 38.488C40.2107 38.392 39.672 38.344 39.032 38.344ZM35.08 29.08H36.808V30.024C36.808 30.9627 36.6587 31.8587 36.36 32.712C36.0613 33.5653 35.6027 34.3173 34.984 34.968C34.376 35.608 33.5973 36.088 32.648 36.408L31.576 34.728C32.184 34.5253 32.7067 34.2533 33.144 33.912C33.592 33.5707 33.9547 33.192 34.232 32.776C34.52 32.3493 34.7333 31.9013 34.872 31.432C35.0107 30.9627 35.08 30.4933 35.08 30.024V29.08ZM35.528 29.08H37.224V30.008C37.224 30.5947 37.3413 31.1707 37.576 31.736C37.8107 32.3013 38.1733 32.8133 38.664 33.272C39.1653 33.7307 39.8053 34.0933 40.584 34.36L39.544 36.024C38.6267 35.7147 37.8693 35.2613 37.272 34.664C36.6853 34.056 36.248 33.352 35.96 32.552C35.672 31.7413 35.528 30.8933 35.528 30.008V29.08ZM32.152 28.504H40.12V30.184H32.152V28.504ZM56.5828 27.592H58.7108V42.408H56.5828V27.592ZM52.2148 29.128H54.3108C54.3108 30.2587 54.1988 31.3413 53.9748 32.376C53.7614 33.4 53.3988 34.3653 52.8868 35.272C52.3854 36.1787 51.6921 37.0213 50.8068 37.8C49.9321 38.568 48.8388 39.272 47.5268 39.912L46.4068 38.232C47.8361 37.5387 48.9721 36.776 49.8148 35.944C50.6681 35.1013 51.2814 34.152 51.6548 33.096C52.0281 32.0293 52.2148 30.8347 52.2148 29.512V29.128ZM47.2068 29.128H53.2068V30.824H47.2068V29.128ZM66.3326 28.456H75.6126V30.136H66.3326V28.456ZM64.7966 34.76H78.2046V36.488H64.7966V34.76ZM70.3486 35.976H72.4926V42.424H70.3486V35.976ZM74.5246 28.456H76.6206V29.768C76.6206 30.3013 76.61 30.8667 76.5886 31.464C76.578 32.0613 76.5353 32.7173 76.4606 33.432C76.386 34.136 76.2473 34.9253 76.0446 35.8L73.9646 35.544C74.242 34.3173 74.402 33.2453 74.4446 32.328C74.498 31.4 74.5246 30.5467 74.5246 29.768V28.456ZM79.5154 34.776H92.9234V36.456H79.5154V34.776ZM85.1474 32.376H87.2594V35.304H85.1474V32.376ZM80.9874 37.448H91.3394V42.456H89.2114V39.128H80.9874V37.448ZM81.1474 31.784H91.4514V33.48H81.1474V31.784ZM81.1474 28.2H91.3234V29.88H83.2594V32.696H81.1474V28.2ZM103.569 35.048H105.681V37.656H103.569V35.048ZM97.9213 34.328H111.329V36.024H97.9213V34.328ZM104.593 37.064C106.193 37.064 107.452 37.2987 108.369 37.768C109.287 38.2267 109.745 38.888 109.745 39.752C109.745 40.5947 109.287 41.2507 108.369 41.72C107.452 42.1893 106.193 42.424 104.593 42.424C102.993 42.424 101.735 42.1893 100.817 41.72C99.9106 41.2507 99.4573 40.5947 99.4573 39.752C99.4573 38.888 99.9106 38.2267 100.817 37.768C101.735 37.2987 102.993 37.064 104.593 37.064ZM104.593 38.68C103.932 38.68 103.377 38.7173 102.929 38.792C102.492 38.8667 102.161 38.984 101.937 39.144C101.713 39.2933 101.601 39.496 101.601 39.752C101.601 39.9867 101.713 40.184 101.937 40.344C102.161 40.504 102.492 40.6213 102.929 40.696C103.377 40.7707 103.932 40.808 104.593 40.808C105.255 40.808 105.804 40.7707 106.241 40.696C106.689 40.6213 107.025 40.504 107.249 40.344C107.473 40.184 107.585 39.9867 107.585 39.752C107.585 39.496 107.473 39.2933 107.249 39.144C107.025 38.984 106.689 38.8667 106.241 38.792C105.804 38.7173 105.255 38.68 104.593 38.68ZM103.169 29H105.057V29.352C105.057 29.8 104.977 30.2267 104.817 30.632C104.657 31.0373 104.417 31.416 104.097 31.768C103.788 32.1093 103.399 32.4187 102.929 32.696C102.46 32.9733 101.916 33.2027 101.297 33.384C100.679 33.5653 99.9906 33.6933 99.2333 33.768L98.4973 32.088C99.1479 32.0347 99.7239 31.944 100.225 31.816C100.737 31.688 101.175 31.5333 101.537 31.352C101.911 31.16 102.215 30.9573 102.449 30.744C102.695 30.52 102.876 30.2907 102.993 30.056C103.111 29.8213 103.169 29.5867 103.169 29.352V29ZM104.209 29H106.081V29.352C106.081 29.5867 106.14 29.8267 106.257 30.072C106.375 30.3067 106.551 30.5307 106.785 30.744C107.031 30.9573 107.335 31.16 107.697 31.352C108.071 31.5333 108.508 31.688 109.009 31.816C109.521 31.944 110.103 32.0347 110.753 32.088L110.017 33.768C109.26 33.6933 108.572 33.5653 107.953 33.384C107.335 33.2027 106.791 32.9787 106.321 32.712C105.863 32.4347 105.473 32.1253 105.153 31.784C104.844 31.432 104.609 31.0533 104.449 30.648C104.289 30.232 104.209 29.8 104.209 29.352V29ZM99.1533 28.216H110.129V29.896H99.1533V28.216Z" fill="#00FFBF"/>
</g>
<g filter="url(#filter2_d_384_8332)">
<path d="M39.848 49.254H41.724V62.26H39.848V49.254ZM41.318 54.056H43.6V55.596H41.318V54.056ZM32.064 57.612H33.156C33.8933 57.612 34.584 57.6027 35.228 57.584C35.872 57.556 36.4973 57.514 37.104 57.458C37.7107 57.3927 38.3313 57.304 38.966 57.192L39.148 58.732C38.4947 58.844 37.8507 58.9327 37.216 58.998C36.5907 59.0633 35.9467 59.1053 35.284 59.124C34.6213 59.1427 33.912 59.152 33.156 59.152H32.064V57.612ZM32.064 50.458H38.112V51.956H33.926V58.34H32.064V50.458ZM50.3049 49.52C51.2662 49.52 52.0969 49.6227 52.7969 49.828C53.4969 50.024 54.0382 50.3133 54.4209 50.696C54.8129 51.0693 55.0089 51.5173 55.0089 52.04C55.0089 52.5627 54.8129 53.0153 54.4209 53.398C54.0382 53.7713 53.4969 54.0607 52.7969 54.266C52.0969 54.4713 51.2662 54.574 50.3049 54.574C49.3622 54.574 48.5362 54.4713 47.8269 54.266C47.1176 54.0607 46.5716 53.7713 46.1889 53.398C45.8062 53.0153 45.6149 52.5627 45.6149 52.04C45.6149 51.5173 45.8062 51.0693 46.1889 50.696C46.5716 50.3133 47.1176 50.024 47.8269 49.828C48.5362 49.6227 49.3622 49.52 50.3049 49.52ZM50.3049 50.948C49.7262 50.948 49.2269 50.99 48.8069 51.074C48.3869 51.1487 48.0696 51.2653 47.8549 51.424C47.6496 51.5827 47.5469 51.788 47.5469 52.04C47.5469 52.2827 47.6496 52.488 47.8549 52.656C48.0696 52.8147 48.3869 52.936 48.8069 53.02C49.2269 53.0947 49.7262 53.132 50.3049 53.132C50.9022 53.132 51.4062 53.0947 51.8169 53.02C52.2276 52.936 52.5402 52.8147 52.7549 52.656C52.9696 52.488 53.0769 52.2827 53.0769 52.04C53.0769 51.788 52.9696 51.5827 52.7549 51.424C52.5402 51.2653 52.2276 51.1487 51.8169 51.074C51.4062 50.99 50.9022 50.948 50.3049 50.948ZM45.8109 57.682H54.7709V62.106H45.8109V57.682ZM52.9509 59.152H47.6309V60.636H52.9509V59.152ZM44.4389 55.316H56.1709V56.772H44.4389V55.316ZM69.546 49.268H71.422V55.778H69.546V49.268ZM65.234 49.758H67.264C67.264 50.906 67.04 51.9047 66.592 52.754C66.1534 53.594 65.4954 54.2893 64.618 54.84C63.7407 55.3813 62.6487 55.7967 61.342 56.086L60.712 54.588C61.804 54.3733 62.6767 54.0793 63.33 53.706C63.9927 53.3233 64.4734 52.8847 64.772 52.39C65.08 51.886 65.234 51.3493 65.234 50.78V49.758ZM61.468 49.758H66.004V51.242H61.468V49.758ZM66.76 50.892H69.784V52.306H66.76V50.892ZM66.676 53.412H69.728V54.812H66.676V53.412ZM62.854 56.254H71.422V59.838H64.73V61.434H62.868V58.452H69.546V57.71H62.854V56.254ZM62.868 60.65H71.674V62.12H62.868V60.65ZM82.803 49.268H84.581V62.232H82.803V49.268ZM78.533 53.706H80.689V55.218H78.533V53.706ZM80.185 49.478H81.921V61.644H80.185V49.478ZM75.747 51.382H77.147V52.712C77.147 53.44 77.091 54.1587 76.979 54.868C76.8763 55.5773 76.713 56.2493 76.489 56.884C76.265 57.5093 75.971 58.074 75.607 58.578C75.243 59.082 74.8043 59.4973 74.291 59.824L73.185 58.452C73.8196 58.0507 74.3236 57.5467 74.697 56.94C75.0703 56.324 75.3363 55.652 75.495 54.924C75.663 54.1867 75.747 53.4493 75.747 52.712V51.382ZM76.167 51.382H77.553V52.712C77.553 53.4307 77.6323 54.14 77.791 54.84C77.9496 55.54 78.211 56.1793 78.575 56.758C78.939 57.3273 79.4336 57.794 80.059 58.158L78.981 59.502C78.2903 59.0913 77.7396 58.536 77.329 57.836C76.9183 57.136 76.6196 56.3473 76.433 55.47C76.2556 54.5833 76.167 53.664 76.167 52.712V51.382ZM73.661 50.57H79.443V52.068H73.661V50.57ZM89.9699 49.646C90.6419 49.646 91.2345 49.7767 91.7479 50.038C92.2705 50.29 92.6812 50.64 92.9799 51.088C93.2879 51.5267 93.4419 52.0353 93.4419 52.614C93.4419 53.1927 93.2879 53.706 92.9799 54.154C92.6812 54.5927 92.2705 54.938 91.7479 55.19C91.2345 55.442 90.6419 55.568 89.9699 55.568C89.3165 55.568 88.7285 55.442 88.2059 55.19C87.6832 54.938 87.2679 54.5927 86.9599 54.154C86.6612 53.706 86.5119 53.1927 86.5119 52.614C86.5119 52.0353 86.6612 51.522 86.9599 51.074C87.2679 50.626 87.6832 50.276 88.2059 50.024C88.7285 49.772 89.3165 49.646 89.9699 49.646ZM89.9839 51.158C89.6665 51.158 89.3819 51.2187 89.1299 51.34C88.8779 51.452 88.6772 51.6153 88.5279 51.83C88.3879 52.0447 88.3179 52.306 88.3179 52.614C88.3179 52.922 88.3879 53.188 88.5279 53.412C88.6772 53.6267 88.8732 53.79 89.1159 53.902C89.3679 54.014 89.6572 54.07 89.9839 54.07C90.3012 54.07 90.5812 54.014 90.8239 53.902C91.0759 53.79 91.2719 53.6267 91.4119 53.412C91.5612 53.188 91.6359 52.922 91.6359 52.614C91.6359 52.306 91.5612 52.0447 91.4119 51.83C91.2719 51.6153 91.0759 51.452 90.8239 51.34C90.5719 51.2187 90.2919 51.158 89.9839 51.158ZM95.2339 49.282H97.0959V55.764H95.2339V49.282ZM88.4579 56.296H97.0959V59.838H90.3059V61.42H88.4719V58.494H95.2479V57.724H88.4579V56.296ZM88.4719 60.65H97.4179V62.106H88.4719V60.65ZM103.958 59.8168C103.63 59.8168 103.348 59.7008 103.113 59.4688C102.881 59.2367 102.765 58.955 102.765 58.6236C102.765 58.2988 102.881 58.0204 103.113 57.7884C103.348 57.5563 103.63 57.4403 103.958 57.4403C104.276 57.4403 104.555 57.5563 104.793 57.7884C105.032 58.0204 105.151 58.2988 105.151 58.6236C105.151 58.8423 105.095 59.0429 104.982 59.2251C104.873 59.4041 104.729 59.5483 104.55 59.6577C104.371 59.7637 104.174 59.8168 103.958 59.8168ZM103.958 54.8203C103.63 54.8203 103.348 54.7043 103.113 54.4723C102.881 54.2403 102.765 53.9586 102.765 53.6271C102.765 53.3023 102.881 53.0256 103.113 52.7969C103.348 52.5649 103.63 52.4489 103.958 52.4489C104.276 52.4489 104.555 52.5649 104.793 52.7969C105.032 53.0256 105.151 53.3023 105.151 53.6271C105.151 53.8492 105.095 54.0514 104.982 54.2337C104.873 54.4126 104.729 54.5552 104.55 54.6612C104.371 54.7673 104.174 54.8203 103.958 54.8203ZM110.11 61V59.4489L113.735 56.093C114.043 55.7947 114.301 55.5263 114.51 55.2876C114.722 55.049 114.883 54.8153 114.993 54.5866C115.102 54.3546 115.157 54.1044 115.157 53.8359C115.157 53.5376 115.089 53.2808 114.953 53.0653C114.817 52.8466 114.631 52.6792 114.396 52.5632C114.161 52.4439 113.894 52.3842 113.596 52.3842C113.284 52.3842 113.012 52.4472 112.78 52.5732C112.548 52.6991 112.369 52.8797 112.243 53.1151C112.117 53.3504 112.054 53.6304 112.054 53.9553H110.011C110.011 53.2891 110.162 52.7107 110.463 52.2202C110.765 51.7296 111.188 51.3501 111.731 51.0817C112.275 50.8132 112.901 50.679 113.61 50.679C114.34 50.679 114.974 50.8082 115.515 51.0668C116.058 51.322 116.481 51.6766 116.782 52.1307C117.084 52.5848 117.235 53.1051 117.235 53.6918C117.235 54.0762 117.158 54.4557 117.006 54.8303C116.857 55.2048 116.59 55.6207 116.206 56.0781C115.821 56.5322 115.279 57.0774 114.58 57.7138L113.093 59.1705V59.2401H117.369V61H110.11ZM118.556 59.2102V57.5149L122.807 50.8182H124.268V53.1648H123.403L120.724 57.4055V57.4851H126.764V59.2102H118.556ZM123.443 61V58.6932L123.483 57.9425V50.8182H125.501V61H123.443ZM129.265 61.1293C128.937 61.1293 128.655 61.0133 128.42 60.7812C128.188 60.5459 128.072 60.2642 128.072 59.9361C128.072 59.6113 128.188 59.3329 128.42 59.1009C128.655 58.8688 128.937 58.7528 129.265 58.7528C129.583 58.7528 129.861 58.8688 130.1 59.1009C130.339 59.3329 130.458 59.6113 130.458 59.9361C130.458 60.1548 130.402 60.3554 130.289 60.5376C130.18 60.7166 130.035 60.8608 129.856 60.9702C129.677 61.0762 129.48 61.1293 129.265 61.1293ZM135.759 61.2237C134.904 61.2204 134.168 61.0099 133.551 60.5923C132.938 60.1747 132.466 59.5698 132.135 58.7777C131.806 57.9856 131.644 57.0327 131.647 55.919C131.647 54.8087 131.811 53.8625 132.14 53.0803C132.471 52.2981 132.943 51.7031 133.556 51.2955C134.173 50.8845 134.907 50.679 135.759 50.679C136.611 50.679 137.343 50.8845 137.956 51.2955C138.573 51.7064 139.047 52.303 139.378 53.0852C139.71 53.8641 139.874 54.8087 139.87 55.919C139.87 57.036 139.705 57.9905 139.373 58.7827C139.045 59.5748 138.574 60.1797 137.961 60.5973C137.348 61.0149 136.614 61.2237 135.759 61.2237ZM135.759 59.4389C136.342 59.4389 136.808 59.1456 137.156 58.5589C137.504 57.9723 137.676 57.0923 137.673 55.919C137.673 55.1468 137.593 54.5038 137.434 53.9901C137.279 53.4763 137.056 53.0902 136.768 52.8317C136.483 52.5732 136.147 52.4439 135.759 52.4439C135.179 52.4439 134.715 52.7339 134.367 53.3139C134.019 53.8939 133.843 54.7623 133.84 55.919C133.84 56.7012 133.918 57.3542 134.074 57.8778C134.233 58.3982 134.456 58.7893 134.745 59.0511C135.033 59.3097 135.371 59.4389 135.759 59.4389ZM145.204 61.1392C144.438 61.1392 143.757 61.0149 143.16 60.7663C142.567 60.5144 142.101 60.1714 141.763 59.7372C141.425 59.303 141.256 58.8108 141.256 58.2607C141.256 57.8364 141.352 57.447 141.545 57.0923C141.74 56.7344 142.005 56.4377 142.34 56.2024C142.675 55.9638 143.049 55.8113 143.464 55.745V55.6754C142.92 55.5661 142.479 55.3026 142.141 54.8849C141.803 54.464 141.634 53.9751 141.634 53.4183C141.634 52.8913 141.788 52.4223 142.096 52.0114C142.405 51.5971 142.827 51.2723 143.364 51.0369C143.904 50.7983 144.518 50.679 145.204 50.679C145.89 50.679 146.501 50.7983 147.038 51.0369C147.578 51.2756 148.003 51.602 148.311 52.0163C148.619 52.4273 148.775 52.8946 148.778 53.4183C148.775 53.9785 148.603 54.4673 148.261 54.8849C147.92 55.3026 147.482 55.5661 146.949 55.6754V55.745C147.356 55.8113 147.726 55.9638 148.057 56.2024C148.392 56.4377 148.657 56.7344 148.853 57.0923C149.052 57.447 149.153 57.8364 149.156 58.2607C149.153 58.8108 148.982 59.303 148.644 59.7372C148.306 60.1714 147.839 60.5144 147.242 60.7663C146.649 61.0149 145.969 61.1392 145.204 61.1392ZM145.204 59.5582C145.545 59.5582 145.843 59.4969 146.099 59.3743C146.354 59.2483 146.553 59.076 146.695 58.8572C146.841 58.6352 146.914 58.38 146.914 58.0916C146.914 57.7966 146.839 57.5365 146.69 57.3111C146.541 57.0824 146.339 56.9034 146.084 56.7741C145.828 56.6416 145.535 56.5753 145.204 56.5753C144.876 56.5753 144.582 56.6416 144.324 56.7741C144.065 56.9034 143.861 57.0824 143.712 57.3111C143.566 57.5365 143.493 57.7966 143.493 58.0916C143.493 58.38 143.565 58.6352 143.707 58.8572C143.85 59.076 144.05 59.2483 144.309 59.3743C144.567 59.4969 144.866 59.5582 145.204 59.5582ZM145.204 55.0092C145.489 55.0092 145.742 54.9512 145.964 54.8352C146.186 54.7192 146.36 54.5585 146.486 54.353C146.612 54.1475 146.675 53.9105 146.675 53.642C146.675 53.3769 146.612 53.1449 146.486 52.946C146.36 52.7438 146.188 52.5864 145.969 52.4737C145.751 52.3577 145.495 52.2997 145.204 52.2997C144.915 52.2997 144.66 52.3577 144.438 52.4737C144.216 52.5864 144.042 52.7438 143.916 52.946C143.793 53.1449 143.732 53.3769 143.732 53.642C143.732 53.9105 143.795 54.1475 143.921 54.353C144.047 54.5585 144.221 54.7192 144.443 54.8352C144.665 54.9512 144.919 55.0092 145.204 55.0092ZM151.632 61.1293C151.304 61.1293 151.022 61.0133 150.787 60.7812C150.555 60.5459 150.439 60.2642 150.439 59.9361C150.439 59.6113 150.555 59.3329 150.787 59.1009C151.022 58.8688 151.304 58.7528 151.632 58.7528C151.95 58.7528 152.229 58.8688 152.467 59.1009C152.706 59.3329 152.825 59.6113 152.825 59.9361C152.825 60.1548 152.769 60.3554 152.656 60.5376C152.547 60.7166 152.403 60.8608 152.224 60.9702C152.045 61.0762 151.847 61.1293 151.632 61.1293ZM157.702 50.8182V61H155.55V52.8615H155.49L153.158 54.3232V52.4141L155.679 50.8182H157.702ZM160.122 61V59.4489L163.746 56.093C164.055 55.7947 164.313 55.5263 164.522 55.2876C164.734 55.049 164.895 54.8153 165.004 54.5866C165.114 54.3546 165.168 54.1044 165.168 53.8359C165.168 53.5376 165.1 53.2808 164.964 53.0653C164.829 52.8466 164.643 52.6792 164.408 52.5632C164.172 52.4439 163.906 52.3842 163.607 52.3842C163.296 52.3842 163.024 52.4472 162.792 52.5732C162.56 52.6991 162.381 52.8797 162.255 53.1151C162.129 53.3504 162.066 53.6304 162.066 53.9553H160.023C160.023 53.2891 160.174 52.7107 160.475 52.2202C160.777 51.7296 161.199 51.3501 161.743 51.0817C162.286 50.8132 162.913 50.679 163.622 50.679C164.351 50.679 164.986 50.8082 165.526 51.0668C166.07 51.322 166.492 51.6766 166.794 52.1307C167.096 52.5848 167.246 53.1051 167.246 53.6918C167.246 54.0762 167.17 54.4557 167.018 54.8303C166.869 55.2048 166.602 55.6207 166.217 56.0781C165.833 56.5322 165.291 57.0774 164.592 57.7138L163.105 59.1705V59.2401H167.381V61H160.122Z" fill="#00FFBF"/>
</g>
<path opacity="0.2" d="M223 58L95 58" stroke="#00FFBF" stroke-width="1.5" stroke-linecap="round"/>
<g opacity="0.2" filter="url(#filter3_d_384_8332)">
<path d="M130 19L11 19" stroke="#00FFBF" stroke-width="3" stroke-linecap="round"/>
</g>
<path opacity="0.2" d="M78 14L33 14" stroke="#00FFBF" stroke-width="2" stroke-linecap="round"/>
<path opacity="0.5" d="M276 13L234 13" stroke="#00FFBF" stroke-width="1.5" stroke-linecap="round"/>
<g opacity="0.2" filter="url(#filter4_d_384_8332)">
<path d="M285 63L140 63" stroke="#00FFBF" stroke-width="3" stroke-linecap="round"/>
</g>
<g opacity="0.3" filter="url(#filter5_d_384_8332)">
<path d="M106 68L40 68" stroke="#00FFBF" stroke-width="2" stroke-linecap="round"/>
</g>
<path opacity="0.2" d="M55 73H7" stroke="#00FFBF" stroke-width="1.5" stroke-linecap="round"/>
<path opacity="0.2" d="M205 24.25L59.9998 24.25" stroke="#00FFBF" stroke-width="2" stroke-linecap="round"/>
<defs>
<filter id="filter0_d_384_8332" x="0" y="0" width="302" height="90" filterUnits="userSpaceOnUse" color-interpolation-filters="sRGB">
<feFlood flood-opacity="0" result="BackgroundImageFix"/>
<feColorMatrix in="SourceAlpha" type="matrix" values="0 0 0 0 0 0 0 0 0 0 0 0 0 0 0 0 0 0 127 0" result="hardAlpha"/>
<feOffset/>
<feGaussianBlur stdDeviation="3"/>
<feComposite in2="hardAlpha" operator="out"/>
<feColorMatrix type="matrix" values="0 0 0 0 0 0 0 0 0 1 0 0 0 0 0.74902 0 0 0 1 0"/>
<feBlend mode="normal" in2="BackgroundImageFix" result="effect1_dropShadow_384_8332"/>
<feBlend mode="normal" in="SourceGraphic" in2="effect1_dropShadow_384_8332" result="shape"/>
</filter>
<filter id="filter1_d_384_8332" x="27.5759" y="23.592" width="87.7534" height="22.864" filterUnits="userSpaceOnUse" color-interpolation-filters="sRGB">
<feFlood flood-opacity="0" result="BackgroundImageFix"/>
<feColorMatrix in="SourceAlpha" type="matrix" values="0 0 0 0 0 0 0 0 0 0 0 0 0 0 0 0 0 0 127 0" result="hardAlpha"/>
<feOffset/>
<feGaussianBlur stdDeviation="2"/>
<feComposite in2="hardAlpha" operator="out"/>
<feColorMatrix type="matrix" values="0 0 0 0 1 0 0 0 0 1 0 0 0 0 1 0 0 0 0.25 0"/>
<feBlend mode="normal" in2="BackgroundImageFix" result="effect1_dropShadow_384_8332"/>
<feBlend mode="normal" in="SourceGraphic" in2="effect1_dropShadow_384_8332" result="shape"/>
</filter>
<filter id="filter2_d_384_8332" x="28.064" y="45.254" width="143.317" height="21.006" filterUnits="userSpaceOnUse" color-interpolation-filters="sRGB">
<feFlood flood-opacity="0" result="BackgroundImageFix"/>
<feColorMatrix in="SourceAlpha" type="matrix" values="0 0 0 0 0 0 0 0 0 0 0 0 0 0 0 0 0 0 127 0" result="hardAlpha"/>
<feOffset/>
<feGaussianBlur stdDeviation="2"/>
<feComposite in2="hardAlpha" operator="out"/>
<feColorMatrix type="matrix" values="0 0 0 0 1 0 0 0 0 1 0 0 0 0 1 0 0 0 0.25 0"/>
<feBlend mode="normal" in2="BackgroundImageFix" result="effect1_dropShadow_384_8332"/>
<feBlend mode="normal" in="SourceGraphic" in2="effect1_dropShadow_384_8332" result="shape"/>
</filter>
<filter id="filter3_d_384_8332" x="5.5" y="13.5" width="130" height="11" filterUnits="userSpaceOnUse" color-interpolation-filters="sRGB">
<feFlood flood-opacity="0" result="BackgroundImageFix"/>
<feColorMatrix in="SourceAlpha" type="matrix" values="0 0 0 0 0 0 0 0 0 0 0 0 0 0 0 0 0 0 127 0" result="hardAlpha"/>
<feOffset/>
<feGaussianBlur stdDeviation="2"/>
<feComposite in2="hardAlpha" operator="out"/>
<feColorMatrix type="matrix" values="0 0 0 0 1 0 0 0 0 1 0 0 0 0 1 0 0 0 0.25 0"/>
<feBlend mode="normal" in2="BackgroundImageFix" result="effect1_dropShadow_384_8332"/>
<feBlend mode="normal" in="SourceGraphic" in2="effect1_dropShadow_384_8332" result="shape"/>
</filter>
<filter id="filter4_d_384_8332" x="134.5" y="57.5" width="156" height="11" filterUnits="userSpaceOnUse" color-interpolation-filters="sRGB">
<feFlood flood-opacity="0" result="BackgroundImageFix"/>
<feColorMatrix in="SourceAlpha" type="matrix" values="0 0 0 0 0 0 0 0 0 0 0 0 0 0 0 0 0 0 127 0" result="hardAlpha"/>
<feOffset/>
<feGaussianBlur stdDeviation="2"/>
<feComposite in2="hardAlpha" operator="out"/>
<feColorMatrix type="matrix" values="0 0 0 0 1 0 0 0 0 1 0 0 0 0 1 0 0 0 0.25 0"/>
<feBlend mode="normal" in2="BackgroundImageFix" result="effect1_dropShadow_384_8332"/>
<feBlend mode="normal" in="SourceGraphic" in2="effect1_dropShadow_384_8332" result="shape"/>
</filter>
<filter id="filter5_d_384_8332" x="35" y="63" width="76" height="10" filterUnits="userSpaceOnUse" color-interpolation-filters="sRGB">
<feFlood flood-opacity="0" result="BackgroundImageFix"/>
<feColorMatrix in="SourceAlpha" type="matrix" values="0 0 0 0 0 0 0 0 0 0 0 0 0 0 0 0 0 0 127 0" result="hardAlpha"/>
<feOffset/>
<feGaussianBlur stdDeviation="2"/>
<feComposite in2="hardAlpha" operator="out"/>
<feColorMatrix type="matrix" values="0 0 0 0 1 0 0 0 0 1 0 0 0 0 1 0 0 0 0.25 0"/>
<feBlend mode="normal" in2="BackgroundImageFix" result="effect1_dropShadow_384_8332"/>
<feBlend mode="normal" in="SourceGraphic" in2="effect1_dropShadow_384_8332" result="shape"/>
</filter>
<linearGradient id="paint0_linear_384_8332" x1="6" y1="45" x2="296" y2="45" gradientUnits="userSpaceOnUse">
<stop stop-color="#1E1E1E"/>
<stop offset="1" stop-color="#00FFBF"/>
</linearGradient>
</defs>
</svg>
