<svg width="338" height="86" viewBox="0 0 338 86" fill="none" xmlns="http://www.w3.org/2000/svg">
<g filter="url(#filter0_d_38_7995)">
<path fill-rule="evenodd" clip-rule="evenodd" d="M44 5.85714C45.0234 5.85714 45.8531 5.02567 45.8531 4H326.588C326.588 8.10269 329.906 11.4286 334 11.4286V74.5714C329.906 74.5714 326.588 77.8973 326.588 82H45.8531C45.8531 80.9743 45.0234 80.1429 44 80.1429V78.2857C45.0234 78.2857 45.8531 77.4542 45.8531 76.4286C45.8531 75.4029 45.0234 74.5714 44 74.5714V72.7143C45.0234 72.7143 45.8531 71.8828 45.8531 70.8571C45.8531 69.8315 45.0234 69 44 69V67.1429C45.0234 67.1429 45.8531 66.3114 45.8531 65.2857C45.8531 64.26 45.0234 63.4286 44 63.4286V61.5714C45.0234 61.5714 45.8531 60.74 45.8531 59.7143C45.8531 58.6886 45.0234 57.8571 44 57.8571V56C45.0234 56 45.8531 55.1685 45.8531 54.1429C45.8531 53.1172 45.0234 52.2857 44 52.2857V50.4286C45.0234 50.4286 45.8531 49.5971 45.8531 48.5714C45.8531 47.5458 45.0234 46.7143 44 46.7143V44.8571C45.0234 44.8571 45.8531 44.0257 45.8531 43C45.8531 41.9743 45.0234 41.1429 44 41.1429V39.2857C45.0234 39.2857 45.8531 38.4542 45.8531 37.4286C45.8531 36.4029 45.0234 35.5714 44 35.5714V33.7143C45.0234 33.7143 45.8531 32.8828 45.8531 31.8571C45.8531 30.8315 45.0234 30 44 30V28.1429C45.0234 28.1429 45.8531 27.3114 45.8531 26.2857C45.8531 25.26 45.0234 24.4286 44 24.4286V22.5714C45.0234 22.5714 45.8531 21.74 45.8531 20.7143C45.8531 19.6886 45.0234 18.8571 44 18.8571V17C45.0234 17 45.8531 16.1685 45.8531 15.1429C45.8531 14.1172 45.0234 13.2857 44 13.2857V11.4286C45.0234 11.4286 45.8531 10.5971 45.8531 9.57143C45.8531 8.54576 45.0234 7.71429 44 7.71429V5.85714Z" fill="url(#paint0_linear_38_7995)" fill-opacity="0.34" shape-rendering="crispEdges"/>
<path d="M333.25 12.1445C329.339 11.7876 326.227 8.66675 325.872 4.75H46.4937C46.2433 5.58594 45.5854 6.24609 44.75 6.49735V7.07408C45.8228 7.39675 46.6031 8.39375 46.6031 9.57143C46.6031 10.7491 45.8228 11.7461 44.75 12.0688V12.6455C45.8228 12.9682 46.6031 13.9652 46.6031 15.1429C46.6031 16.3205 45.8228 17.3175 44.75 17.6402V18.2169C45.8228 18.5396 46.6031 19.5366 46.6031 20.7143C46.6031 21.892 45.8228 22.889 44.75 23.2116V23.7884C45.8228 24.111 46.6031 25.108 46.6031 26.2857C46.6031 27.4634 45.8228 28.4604 44.75 28.7831V29.3598C45.8228 29.6825 46.6031 30.6795 46.6031 31.8571C46.6031 33.0348 45.8228 34.0318 44.75 34.3545V34.9312C45.8228 35.2539 46.6031 36.2509 46.6031 37.4286C46.6031 38.6063 45.8228 39.6033 44.75 39.9259V40.5027C45.8228 40.8253 46.6031 41.8223 46.6031 43C46.6031 44.1777 45.8228 45.1747 44.75 45.4973V46.0741C45.8228 46.3967 46.6031 47.3938 46.6031 48.5714C46.6031 49.7491 45.8228 50.7461 44.75 51.0688V51.6455C45.8228 51.9682 46.6031 52.9652 46.6031 54.1429C46.6031 55.3205 45.8228 56.3175 44.75 56.6402V57.2169C45.8228 57.5396 46.6031 58.5366 46.6031 59.7143C46.6031 60.892 45.8228 61.889 44.75 62.2116V62.7884C45.8228 63.111 46.6031 64.108 46.6031 65.2857C46.6031 66.4634 45.8228 67.4604 44.75 67.7831V68.3598C45.8228 68.6825 46.6031 69.6795 46.6031 70.8571C46.6031 72.0348 45.8228 73.0318 44.75 73.3545V73.9312C45.8228 74.2539 46.6031 75.2509 46.6031 76.4286C46.6031 77.6062 45.8228 78.6032 44.75 78.9259V79.5026C45.5854 79.7539 46.2433 80.4141 46.4937 81.25H325.872C326.227 77.3333 329.339 74.2124 333.25 73.8555V12.1445Z" stroke="#00FFBF" stroke-width="1.5" shape-rendering="crispEdges"/>
</g>
<g filter="url(#filter1_d_38_7995)">
<path fill-rule="evenodd" clip-rule="evenodd" d="M44 80.1429C42.9725 80.1429 42.1395 80.9743 42.1395 82H11.4419C11.4419 77.8973 8.11002 74.5714 4 74.5714V11.4286C8.11002 11.4286 11.4419 8.10268 11.4419 4H42.1395C42.1395 5.02566 42.9725 5.85714 44 5.85714V7.71429C42.9725 7.71429 42.1395 8.54577 42.1395 9.57143C42.1395 10.5971 42.9725 11.4286 44 11.4286V13.2857C42.9725 13.2857 42.1395 14.1172 42.1395 15.1429C42.1395 16.1685 42.9725 17 44 17V18.8571C42.9725 18.8571 42.1395 19.6886 42.1395 20.7143C42.1395 21.7399 42.9725 22.5714 44 22.5714V24.4286C42.9725 24.4286 42.1395 25.2601 42.1395 26.2857C42.1395 27.3114 42.9725 28.1429 44 28.1429V30C42.9725 30 42.1395 30.8315 42.1395 31.8571C42.1395 32.8828 42.9725 33.7143 44 33.7143V35.5714C42.9725 35.5714 42.1395 36.4029 42.1395 37.4286C42.1395 38.4542 42.9725 39.2857 44 39.2857V41.1429C42.9725 41.1429 42.1395 41.9743 42.1395 43C42.1395 44.0257 42.9725 44.8571 44 44.8571V46.7143C42.9725 46.7143 42.1395 47.5458 42.1395 48.5714C42.1395 49.5971 42.9725 50.4286 44 50.4286V52.2857C42.9725 52.2857 42.1395 53.1172 42.1395 54.1429C42.1395 55.1685 42.9725 56 44 56V57.8571C42.9725 57.8571 42.1395 58.6886 42.1395 59.7143C42.1395 60.7399 42.9725 61.5714 44 61.5714V63.4286C42.9725 63.4286 42.1395 64.2601 42.1395 65.2857C42.1395 66.3114 42.9725 67.1429 44 67.1429V69C42.9725 69 42.1395 69.8315 42.1395 70.8571C42.1395 71.8828 42.9725 72.7143 44 72.7143V74.5714C42.9725 74.5714 42.1395 75.4029 42.1395 76.4286C42.1395 77.4542 42.9725 78.2857 44 78.2857V80.1429Z" fill="#00FFBF"/>
</g>
<path opacity="0.5" d="M117 56L245 56" stroke="#00FFBF" stroke-opacity="0.7" stroke-width="1.5" stroke-linecap="round"/>
<g filter="url(#filter2_d_38_7995)">
<path d="M210 17L329 17" stroke="#00FFBF" stroke-opacity="0.7" stroke-width="3" stroke-linecap="round" shape-rendering="crispEdges"/>
</g>
<path opacity="0.7" d="M262 12L307 12" stroke="#00FFBF" stroke-opacity="0.7" stroke-width="2" stroke-linecap="round"/>
<path d="M64 11L106 11" stroke="#00FFBF" stroke-opacity="0.7" stroke-width="1.5" stroke-linecap="round"/>
<g filter="url(#filter3_d_38_7995)">
<path d="M47 16L93 16" stroke="#00FFBF" stroke-opacity="0.7" stroke-width="3" stroke-linecap="round" shape-rendering="crispEdges"/>
</g>
<g filter="url(#filter4_d_38_7995)">
<path d="M54.9998 61L200 61" stroke="#00FFBF" stroke-opacity="0.7" stroke-width="3" stroke-linecap="round" shape-rendering="crispEdges"/>
</g>
<g opacity="0.7" filter="url(#filter5_d_38_7995)">
<path d="M234 66L300 66" stroke="#00FFBF" stroke-opacity="0.7" stroke-width="2" stroke-linecap="round" shape-rendering="crispEdges"/>
</g>
<path opacity="0.4" d="M285 71H333" stroke="#00FFBF" stroke-opacity="0.7" stroke-width="1.5" stroke-linecap="round"/>
<path opacity="0.5" d="M135 22.25L280 22.25" stroke="#00FFBF" stroke-opacity="0.7" stroke-width="2" stroke-linecap="round"/>
<defs>
<filter id="filter0_d_38_7995" x="40" y="0" width="298" height="86" filterUnits="userSpaceOnUse" color-interpolation-filters="sRGB">
<feFlood flood-opacity="0" result="BackgroundImageFix"/>
<feColorMatrix in="SourceAlpha" type="matrix" values="0 0 0 0 0 0 0 0 0 0 0 0 0 0 0 0 0 0 127 0" result="hardAlpha"/>
<feOffset/>
<feGaussianBlur stdDeviation="2"/>
<feComposite in2="hardAlpha" operator="out"/>
<feColorMatrix type="matrix" values="0 0 0 0 1 0 0 0 0 1 0 0 0 0 1 0 0 0 0.3 0"/>
<feBlend mode="normal" in2="BackgroundImageFix" result="effect1_dropShadow_38_7995"/>
<feBlend mode="normal" in="SourceGraphic" in2="effect1_dropShadow_38_7995" result="shape"/>
</filter>
<filter id="filter1_d_38_7995" x="0" y="0" width="48" height="86" filterUnits="userSpaceOnUse" color-interpolation-filters="sRGB">
<feFlood flood-opacity="0" result="BackgroundImageFix"/>
<feColorMatrix in="SourceAlpha" type="matrix" values="0 0 0 0 0 0 0 0 0 0 0 0 0 0 0 0 0 0 127 0" result="hardAlpha"/>
<feOffset/>
<feGaussianBlur stdDeviation="2"/>
<feComposite in2="hardAlpha" operator="out"/>
<feColorMatrix type="matrix" values="0 0 0 0 1 0 0 0 0 1 0 0 0 0 1 0 0 0 0.3 0"/>
<feBlend mode="normal" in2="BackgroundImageFix" result="effect1_dropShadow_38_7995"/>
<feBlend mode="normal" in="SourceGraphic" in2="effect1_dropShadow_38_7995" result="shape"/>
</filter>
<filter id="filter2_d_38_7995" x="204.5" y="11.5" width="130" height="11" filterUnits="userSpaceOnUse" color-interpolation-filters="sRGB">
<feFlood flood-opacity="0" result="BackgroundImageFix"/>
<feColorMatrix in="SourceAlpha" type="matrix" values="0 0 0 0 0 0 0 0 0 0 0 0 0 0 0 0 0 0 127 0" result="hardAlpha"/>
<feOffset/>
<feGaussianBlur stdDeviation="2"/>
<feComposite in2="hardAlpha" operator="out"/>
<feColorMatrix type="matrix" values="0 0 0 0 1 0 0 0 0 1 0 0 0 0 1 0 0 0 0.25 0"/>
<feBlend mode="normal" in2="BackgroundImageFix" result="effect1_dropShadow_38_7995"/>
<feBlend mode="normal" in="SourceGraphic" in2="effect1_dropShadow_38_7995" result="shape"/>
</filter>
<filter id="filter3_d_38_7995" x="41.5" y="10.5" width="57" height="11" filterUnits="userSpaceOnUse" color-interpolation-filters="sRGB">
<feFlood flood-opacity="0" result="BackgroundImageFix"/>
<feColorMatrix in="SourceAlpha" type="matrix" values="0 0 0 0 0 0 0 0 0 0 0 0 0 0 0 0 0 0 127 0" result="hardAlpha"/>
<feOffset/>
<feGaussianBlur stdDeviation="2"/>
<feComposite in2="hardAlpha" operator="out"/>
<feColorMatrix type="matrix" values="0 0 0 0 1 0 0 0 0 1 0 0 0 0 1 0 0 0 0.25 0"/>
<feBlend mode="normal" in2="BackgroundImageFix" result="effect1_dropShadow_38_7995"/>
<feBlend mode="normal" in="SourceGraphic" in2="effect1_dropShadow_38_7995" result="shape"/>
</filter>
<filter id="filter4_d_38_7995" x="49.4998" y="55.5" width="156" height="11" filterUnits="userSpaceOnUse" color-interpolation-filters="sRGB">
<feFlood flood-opacity="0" result="BackgroundImageFix"/>
<feColorMatrix in="SourceAlpha" type="matrix" values="0 0 0 0 0 0 0 0 0 0 0 0 0 0 0 0 0 0 127 0" result="hardAlpha"/>
<feOffset/>
<feGaussianBlur stdDeviation="2"/>
<feComposite in2="hardAlpha" operator="out"/>
<feColorMatrix type="matrix" values="0 0 0 0 1 0 0 0 0 1 0 0 0 0 1 0 0 0 0.25 0"/>
<feBlend mode="normal" in2="BackgroundImageFix" result="effect1_dropShadow_38_7995"/>
<feBlend mode="normal" in="SourceGraphic" in2="effect1_dropShadow_38_7995" result="shape"/>
</filter>
<filter id="filter5_d_38_7995" x="229" y="61" width="76" height="10" filterUnits="userSpaceOnUse" color-interpolation-filters="sRGB">
<feFlood flood-opacity="0" result="BackgroundImageFix"/>
<feColorMatrix in="SourceAlpha" type="matrix" values="0 0 0 0 0 0 0 0 0 0 0 0 0 0 0 0 0 0 127 0" result="hardAlpha"/>
<feOffset/>
<feGaussianBlur stdDeviation="2"/>
<feComposite in2="hardAlpha" operator="out"/>
<feColorMatrix type="matrix" values="0 0 0 0 1 0 0 0 0 1 0 0 0 0 1 0 0 0 0.25 0"/>
<feBlend mode="normal" in2="BackgroundImageFix" result="effect1_dropShadow_38_7995"/>
<feBlend mode="normal" in="SourceGraphic" in2="effect1_dropShadow_38_7995" result="shape"/>
</filter>
<linearGradient id="paint0_linear_38_7995" x1="334" y1="43" x2="44" y2="43" gradientUnits="userSpaceOnUse">
<stop stop-color="#1E1E1E"/>
<stop offset="1" stop-color="#00FFBF"/>
</linearGradient>
</defs>
</svg>
