<svg width="102" height="158" viewBox="0 0 102 158" fill="none" xmlns="http://www.w3.org/2000/svg">
<g filter="url(#filter0_d_18_38)">
<path fill-rule="evenodd" clip-rule="evenodd" d="M98 4L98 154H62.1886L51.1843 142.879L40.1801 154H4L4.00001 4L40.1801 4L39.9897 4.19238L51.1843 15.5061L62.3789 4.19239L62.1886 4L98 4Z" fill="#1E1E1E"/>
<path d="M5 113H97V137H5V113Z" fill="#00FFBF"/>
<path d="M50.6512 142.351L39.8671 153.25H4.75L4.75 137.75H5H97H97.25V153.25H62.5016L51.7175 142.351L51.1843 141.812L50.6512 142.351ZM4.75 112.25L4.75001 4.75L39.4864 4.75L50.6512 16.0336L51.1843 16.5724L51.7175 16.0336L62.8823 4.75L97.25 4.75L97.25 112.25H97H5H4.75ZM5.75 136.25V113.75H96.25V136.25H5.75Z" stroke="#00FFBF" stroke-width="1.5"/>
</g>
<defs>
<filter id="filter0_d_18_38" x="0" y="0" width="102" height="158" filterUnits="userSpaceOnUse" color-interpolation-filters="sRGB">
<feFlood flood-opacity="0" result="BackgroundImageFix"/>
<feColorMatrix in="SourceAlpha" type="matrix" values="0 0 0 0 0 0 0 0 0 0 0 0 0 0 0 0 0 0 127 0" result="hardAlpha"/>
<feOffset/>
<feGaussianBlur stdDeviation="2"/>
<feComposite in2="hardAlpha" operator="out"/>
<feColorMatrix type="matrix" values="0 0 0 0 1 0 0 0 0 1 0 0 0 0 1 0 0 0 0.25 0"/>
<feBlend mode="normal" in2="BackgroundImageFix" result="effect1_dropShadow_18_38"/>
<feBlend mode="normal" in="SourceGraphic" in2="effect1_dropShadow_18_38" result="shape"/>
</filter>
</defs>
</svg>
