<svg width="94" height="150" viewBox="0 0 94 150" fill="none" xmlns="http://www.w3.org/2000/svg">
<mask id="mask0_1_224" style="mask-type:alpha" maskUnits="userSpaceOnUse" x="0" y="0" width="94" height="150">
<mask id="path-1-inside-1_1_224" fill="white">
<path fill-rule="evenodd" clip-rule="evenodd" d="M94 0L94 150L58.1886 150L47.1843 138.879L36.1801 150L3.21845e-06 150L9.77516e-06 -4.10887e-06L36.1801 -2.52739e-06L35.9897 0.19238L47.1843 11.5061L58.379 0.192381L58.1886 -1.56537e-06L94 0Z"/>
</mask>
<path fill-rule="evenodd" clip-rule="evenodd" d="M94 0L94 150L58.1886 150L47.1843 138.879L36.1801 150L3.21845e-06 150L9.77516e-06 -4.10887e-06L36.1801 -2.52739e-06L35.9897 0.19238L47.1843 11.5061L58.379 0.192381L58.1886 -1.56537e-06L94 0Z" fill="#1E1E1E"/>
<path d="M94 150L94 151.5L95.5 151.5L95.5 150L94 150ZM94 0L95.5 6.55671e-08L95.5 -1.5L94 -1.5L94 0ZM58.1886 150L57.1223 151.055L57.5626 151.5L58.1886 151.5L58.1886 150ZM47.1843 138.879L48.2506 137.824L47.1843 136.746L46.1181 137.824L47.1843 138.879ZM36.1801 150L36.1801 151.5L36.806 151.5L37.2463 151.055L36.1801 150ZM3.21845e-06 150L-1.5 150L-1.5 151.5L3.15289e-06 151.5L3.21845e-06 150ZM9.77516e-06 -4.10887e-06L9.84073e-06 -1.5L-1.49999 -1.5L-1.49999 -4.17444e-06L9.77516e-06 -4.10887e-06ZM36.1801 -2.52739e-06L37.2463 1.05503L39.7745 -1.5L36.1801 -1.5L36.1801 -2.52739e-06ZM35.9897 0.19238L34.9235 -0.862653L33.8795 0.19238L34.9235 1.24741L35.9897 0.19238ZM47.1843 11.5061L46.1181 12.5611L47.1843 13.6387L48.2506 12.5611L47.1843 11.5061ZM58.379 0.192381L59.4452 1.24741L60.4891 0.192381L59.4452 -0.862652L58.379 0.192381ZM58.1886 -1.56537e-06L58.1886 -1.5L54.5942 -1.5L57.1223 1.05503L58.1886 -1.56537e-06ZM95.5 150L95.5 6.55671e-08L92.5 -6.55671e-08L92.5 150L95.5 150ZM58.1886 151.5L94 151.5L94 148.5L58.1886 148.5L58.1886 151.5ZM46.1181 139.934L57.1223 151.055L59.2548 148.945L48.2506 137.824L46.1181 139.934ZM37.2463 151.055L48.2506 139.934L46.1181 137.824L35.1138 148.945L37.2463 151.055ZM3.15289e-06 151.5L36.1801 151.5L36.1801 148.5L3.28402e-06 148.5L3.15289e-06 151.5ZM-1.49999 -4.17444e-06L-1.5 150L1.5 150L1.50001 -4.0433e-06L-1.49999 -4.17444e-06ZM36.1801 -1.5L9.84073e-06 -1.5L9.70959e-06 1.5L36.1801 1.5L36.1801 -1.5ZM37.056 1.24741L37.2463 1.05503L35.1138 -1.05504L34.9235 -0.862653L37.056 1.24741ZM48.2506 10.4511L37.056 -0.862653L34.9235 1.24741L46.1181 12.5611L48.2506 10.4511ZM57.3127 -0.862652L46.1181 10.4511L48.2506 12.5611L59.4452 1.24741L57.3127 -0.862652ZM57.1223 1.05503L57.3127 1.24741L59.4452 -0.862652L59.2549 -1.05503L57.1223 1.05503ZM94 -1.5L58.1886 -1.5L58.1886 1.5L94 1.5L94 -1.5Z" fill="#00FFBF" mask="url(#path-1-inside-1_1_224)"/>
</mask>
<g mask="url(#mask0_1_224)">
<g filter="url(#filter0_d_1_224)">
<rect x="0.999992" y="108" width="92" height="26" fill="#00FFBF"/>
</g>
</g>
<defs>
<filter id="filter0_d_1_224" x="-3.00001" y="104" width="100" height="34" filterUnits="userSpaceOnUse" color-interpolation-filters="sRGB">
<feFlood flood-opacity="0" result="BackgroundImageFix"/>
<feColorMatrix in="SourceAlpha" type="matrix" values="0 0 0 0 0 0 0 0 0 0 0 0 0 0 0 0 0 0 127 0" result="hardAlpha"/>
<feOffset/>
<feGaussianBlur stdDeviation="2"/>
<feComposite in2="hardAlpha" operator="out"/>
<feColorMatrix type="matrix" values="0 0 0 0 1 0 0 0 0 1 0 0 0 0 1 0 0 0 0.25 0"/>
<feBlend mode="normal" in2="BackgroundImageFix" result="effect1_dropShadow_1_224"/>
<feBlend mode="normal" in="SourceGraphic" in2="effect1_dropShadow_1_224" result="shape"/>
</filter>
</defs>
</svg>
