<svg width="302" height="90" viewBox="0 0 302 90" fill="none" xmlns="http://www.w3.org/2000/svg">
<g filter="url(#filter0_d_384_8332)">
<path fill-rule="evenodd" clip-rule="evenodd" d="M296 7.85714C294.977 7.85714 294.147 7.02567 294.147 6H13.4121C13.4121 10.1027 10.0936 13.4286 6 13.4286V76.5714C10.0936 76.5714 13.4121 79.8973 13.4121 84H294.147C294.147 82.9743 294.977 82.1429 296 82.1429V80.2857C294.977 80.2857 294.147 79.4542 294.147 78.4286C294.147 77.4029 294.977 76.5714 296 76.5714V74.7143C294.977 74.7143 294.147 73.8828 294.147 72.8571C294.147 71.8315 294.977 71 296 71V69.1429C294.977 69.1429 294.147 68.3114 294.147 67.2857C294.147 66.26 294.977 65.4286 296 65.4286V63.5714C294.977 63.5714 294.147 62.74 294.147 61.7143C294.147 60.6886 294.977 59.8571 296 59.8571V58C294.977 58 294.147 57.1685 294.147 56.1429C294.147 55.1172 294.977 54.2857 296 54.2857V52.4286C294.977 52.4286 294.147 51.5971 294.147 50.5714C294.147 49.5458 294.977 48.7143 296 48.7143V46.8571C294.977 46.8571 294.147 46.0257 294.147 45C294.147 43.9743 294.977 43.1429 296 43.1429V41.2857C294.977 41.2857 294.147 40.4542 294.147 39.4286C294.147 38.4029 294.977 37.5714 296 37.5714V35.7143C294.977 35.7143 294.147 34.8828 294.147 33.8571C294.147 32.8315 294.977 32 296 32V30.1429C294.977 30.1429 294.147 29.3114 294.147 28.2857C294.147 27.26 294.977 26.4286 296 26.4286V24.5714C294.977 24.5714 294.147 23.74 294.147 22.7143C294.147 21.6886 294.977 20.8571 296 20.8571V19C294.977 19 294.147 18.1685 294.147 17.1429C294.147 16.1172 294.977 15.2857 296 15.2857V13.4286C294.977 13.4286 294.147 12.5971 294.147 11.5714C294.147 10.5458 294.977 9.71429 296 9.71429V7.85714Z" fill="url(#paint0_linear_384_8332)" fill-opacity="0.5" shape-rendering="crispEdges"/>
<path d="M6.75 14.1445C10.6609 13.7876 13.7728 10.6667 14.1283 6.75H293.506C293.757 7.58594 294.415 8.24609 295.25 8.49735V9.07408C294.177 9.39675 293.397 10.3938 293.397 11.5714C293.397 12.7491 294.177 13.7461 295.25 14.0688V14.6455C294.177 14.9682 293.397 15.9652 293.397 17.1429C293.397 18.3205 294.177 19.3175 295.25 19.6402V20.2169C294.177 20.5396 293.397 21.5366 293.397 22.7143C293.397 23.892 294.177 24.889 295.25 25.2116V25.7884C294.177 26.111 293.397 27.108 293.397 28.2857C293.397 29.4634 294.177 30.4604 295.25 30.7831V31.3598C294.177 31.6825 293.397 32.6795 293.397 33.8571C293.397 35.0348 294.177 36.0318 295.25 36.3545V36.9312C294.177 37.2539 293.397 38.2509 293.397 39.4286C293.397 40.6063 294.177 41.6033 295.25 41.9259V42.5027C294.177 42.8253 293.397 43.8223 293.397 45C293.397 46.1777 294.177 47.1747 295.25 47.4973V48.0741C294.177 48.3967 293.397 49.3938 293.397 50.5714C293.397 51.7491 294.177 52.7461 295.25 53.0688V53.6455C294.177 53.9682 293.397 54.9652 293.397 56.1429C293.397 57.3205 294.177 58.3175 295.25 58.6402V59.2169C294.177 59.5396 293.397 60.5366 293.397 61.7143C293.397 62.892 294.177 63.889 295.25 64.2116V64.7884C294.177 65.111 293.397 66.108 293.397 67.2857C293.397 68.4634 294.177 69.4604 295.25 69.7831V70.3598C294.177 70.6825 293.397 71.6795 293.397 72.8571C293.397 74.0348 294.177 75.0318 295.25 75.3545V75.9312C294.177 76.2539 293.397 77.2509 293.397 78.4286C293.397 79.6062 294.177 80.6032 295.25 80.9259V81.5026C294.415 81.7539 293.757 82.4141 293.506 83.25H14.1283C13.7728 79.3333 10.6609 76.2124 6.75 75.8555V14.1445Z" stroke="#00FFBF" stroke-width="1.5" shape-rendering="crispEdges"/>
</g>
<path opacity="0.2" d="M223 58L95 58" stroke="#00FFBF" stroke-width="1.5" stroke-linecap="round"/>
<g opacity="0.2" filter="url(#filter1_d_384_8332)">
<path d="M130 19L11 19" stroke="#00FFBF" stroke-width="3" stroke-linecap="round"/>
</g>
<path opacity="0.2" d="M78 14L33 14" stroke="#00FFBF" stroke-width="2" stroke-linecap="round"/>
<path opacity="0.5" d="M276 13L234 13" stroke="#00FFBF" stroke-width="1.5" stroke-linecap="round"/>
<g opacity="0.2" filter="url(#filter2_d_384_8332)">
<path d="M285 63L140 63" stroke="#00FFBF" stroke-width="3" stroke-linecap="round"/>
</g>
<g opacity="0.3" filter="url(#filter3_d_384_8332)">
<path d="M106 68L40 68" stroke="#00FFBF" stroke-width="2" stroke-linecap="round"/>
</g>
<path opacity="0.2" d="M55 73H7" stroke="#00FFBF" stroke-width="1.5" stroke-linecap="round"/>
<path opacity="0.2" d="M205 24.25L59.9998 24.25" stroke="#00FFBF" stroke-width="2" stroke-linecap="round"/>
<defs>
<filter id="filter0_d_384_8332" x="0" y="0" width="302" height="90" filterUnits="userSpaceOnUse" color-interpolation-filters="sRGB">
<feFlood flood-opacity="0" result="BackgroundImageFix"/>
<feColorMatrix in="SourceAlpha" type="matrix" values="0 0 0 0 0 0 0 0 0 0 0 0 0 0 0 0 0 0 127 0" result="hardAlpha"/>
<feOffset/>
<feGaussianBlur stdDeviation="3"/>
<feComposite in2="hardAlpha" operator="out"/>
<feColorMatrix type="matrix" values="0 0 0 0 0 0 0 0 0 1 0 0 0 0 0.74902 0 0 0 1 0"/>
<feBlend mode="normal" in2="BackgroundImageFix" result="effect1_dropShadow_384_8332"/>
<feBlend mode="normal" in="SourceGraphic" in2="effect1_dropShadow_384_8332" result="shape"/>
</filter>
<filter id="filter1_d_384_8332" x="5.5" y="13.5" width="130" height="11" filterUnits="userSpaceOnUse" color-interpolation-filters="sRGB">
<feFlood flood-opacity="0" result="BackgroundImageFix"/>
<feColorMatrix in="SourceAlpha" type="matrix" values="0 0 0 0 0 0 0 0 0 0 0 0 0 0 0 0 0 0 127 0" result="hardAlpha"/>
<feOffset/>
<feGaussianBlur stdDeviation="2"/>
<feComposite in2="hardAlpha" operator="out"/>
<feColorMatrix type="matrix" values="0 0 0 0 1 0 0 0 0 1 0 0 0 0 1 0 0 0 0.25 0"/>
<feBlend mode="normal" in2="BackgroundImageFix" result="effect1_dropShadow_384_8332"/>
<feBlend mode="normal" in="SourceGraphic" in2="effect1_dropShadow_384_8332" result="shape"/>
</filter>
<filter id="filter2_d_384_8332" x="134.5" y="57.5" width="156" height="11" filterUnits="userSpaceOnUse" color-interpolation-filters="sRGB">
<feFlood flood-opacity="0" result="BackgroundImageFix"/>
<feColorMatrix in="SourceAlpha" type="matrix" values="0 0 0 0 0 0 0 0 0 0 0 0 0 0 0 0 0 0 127 0" result="hardAlpha"/>
<feOffset/>
<feGaussianBlur stdDeviation="2"/>
<feComposite in2="hardAlpha" operator="out"/>
<feColorMatrix type="matrix" values="0 0 0 0 1 0 0 0 0 1 0 0 0 0 1 0 0 0 0.25 0"/>
<feBlend mode="normal" in2="BackgroundImageFix" result="effect1_dropShadow_384_8332"/>
<feBlend mode="normal" in="SourceGraphic" in2="effect1_dropShadow_384_8332" result="shape"/>
</filter>
<filter id="filter3_d_384_8332" x="35" y="63" width="76" height="10" filterUnits="userSpaceOnUse" color-interpolation-filters="sRGB">
<feFlood flood-opacity="0" result="BackgroundImageFix"/>
<feColorMatrix in="SourceAlpha" type="matrix" values="0 0 0 0 0 0 0 0 0 0 0 0 0 0 0 0 0 0 127 0" result="hardAlpha"/>
<feOffset/>
<feGaussianBlur stdDeviation="2"/>
<feComposite in2="hardAlpha" operator="out"/>
<feColorMatrix type="matrix" values="0 0 0 0 1 0 0 0 0 1 0 0 0 0 1 0 0 0 0.25 0"/>
<feBlend mode="normal" in2="BackgroundImageFix" result="effect1_dropShadow_384_8332"/>
<feBlend mode="normal" in="SourceGraphic" in2="effect1_dropShadow_384_8332" result="shape"/>
</filter>
<linearGradient id="paint0_linear_384_8332" x1="6" y1="45" x2="296" y2="45" gradientUnits="userSpaceOnUse">
<stop stop-color="#1E1E1E"/>
<stop offset="1" stop-color="#00FFBF"/>
</linearGradient>
</defs>
</svg>
