<svg width="330" height="78" viewBox="0 0 330 78" fill="none" xmlns="http://www.w3.org/2000/svg">
<g clip-path="url(#clip0_1363_4341)">
<mask id="mask0_1363_4341" style="mask-type:luminance" maskUnits="userSpaceOnUse" x="-4" y="-4" width="338" height="86">
<path d="M334 -4H-4V82H334V-4Z" fill="white"/>
</mask>
<g mask="url(#mask0_1363_4341)">
<path fill-rule="evenodd" clip-rule="evenodd" d="M290 1.85714C288.977 1.85714 288.147 1.02567 288.147 0H7.4121C7.4121 4.10269 4.09361 7.4286 0 7.4286V70.5714C4.09361 70.5714 7.4121 73.8973 7.4121 78H288.147C288.147 76.9743 288.977 76.1429 290 76.1429V74.2857C288.977 74.2857 288.147 73.4542 288.147 72.4286C288.147 71.4029 288.977 70.5714 290 70.5714V68.7143C288.977 68.7143 288.147 67.8828 288.147 66.8571C288.147 65.8315 288.977 65 290 65V63.1429C288.977 63.1429 288.147 62.3114 288.147 61.2857C288.147 60.26 288.977 59.4286 290 59.4286V57.5714C288.977 57.5714 288.147 56.74 288.147 55.7143C288.147 54.6886 288.977 53.8571 290 53.8571V52C288.977 52 288.147 51.1685 288.147 50.1429C288.147 49.1172 288.977 48.2857 290 48.2857V46.4286C288.977 46.4286 288.147 45.5971 288.147 44.5714C288.147 43.5458 288.977 42.7143 290 42.7143V40.8571C288.977 40.8571 288.147 40.0257 288.147 39C288.147 37.9743 288.977 37.1429 290 37.1429V35.2857C288.977 35.2857 288.147 34.4542 288.147 33.4286C288.147 32.4029 288.977 31.5714 290 31.5714V29.7143C288.977 29.7143 288.147 28.8828 288.147 27.8571C288.147 26.8315 288.977 26 290 26V24.1429C288.977 24.1429 288.147 23.3114 288.147 22.2857C288.147 21.26 288.977 20.4286 290 20.4286V18.5714C288.977 18.5714 288.147 17.74 288.147 16.7143C288.147 15.6886 288.977 14.8571 290 14.8571V13C288.977 13 288.147 12.1685 288.147 11.1429C288.147 10.1172 288.977 9.2857 290 9.2857V7.4286C288.977 7.4286 288.147 6.5971 288.147 5.57143C288.147 4.54576 288.977 3.71429 290 3.71429V1.85714Z" fill="black"/>
<path fill-rule="evenodd" clip-rule="evenodd" d="M290 1.85714C288.977 1.85714 288.147 1.02567 288.147 0H7.4121C7.4121 4.10269 4.09361 7.4286 0 7.4286V70.5714C4.09361 70.5714 7.4121 73.8973 7.4121 78H288.147C288.147 76.9743 288.977 76.1429 290 76.1429V74.2857C288.977 74.2857 288.147 73.4542 288.147 72.4286C288.147 71.4029 288.977 70.5714 290 70.5714V68.7143C288.977 68.7143 288.147 67.8828 288.147 66.8571C288.147 65.8315 288.977 65 290 65V63.1429C288.977 63.1429 288.147 62.3114 288.147 61.2857C288.147 60.26 288.977 59.4286 290 59.4286V57.5714C288.977 57.5714 288.147 56.74 288.147 55.7143C288.147 54.6886 288.977 53.8571 290 53.8571V52C288.977 52 288.147 51.1685 288.147 50.1429C288.147 49.1172 288.977 48.2857 290 48.2857V46.4286C288.977 46.4286 288.147 45.5971 288.147 44.5714C288.147 43.5458 288.977 42.7143 290 42.7143V40.8571C288.977 40.8571 288.147 40.0257 288.147 39C288.147 37.9743 288.977 37.1429 290 37.1429V35.2857C288.977 35.2857 288.147 34.4542 288.147 33.4286C288.147 32.4029 288.977 31.5714 290 31.5714V29.7143C288.977 29.7143 288.147 28.8828 288.147 27.8571C288.147 26.8315 288.977 26 290 26V24.1429C288.977 24.1429 288.147 23.3114 288.147 22.2857C288.147 21.26 288.977 20.4286 290 20.4286V18.5714C288.977 18.5714 288.147 17.74 288.147 16.7143C288.147 15.6886 288.977 14.8571 290 14.8571V13C288.977 13 288.147 12.1685 288.147 11.1429C288.147 10.1172 288.977 9.2857 290 9.2857V7.4286C288.977 7.4286 288.147 6.5971 288.147 5.57143C288.147 4.54576 288.977 3.71429 290 3.71429V1.85714Z" fill="url(#paint0_linear_1363_4341)" fill-opacity="0.4"/>
<g filter="url(#filter0_d_1363_4341)">
<path fill-rule="evenodd" clip-rule="evenodd" d="M290 76.1429C291.028 76.1429 291.86 76.9743 291.86 78H322.558C322.558 73.8973 325.89 70.5714 330 70.5714V7.4286C325.89 7.4286 322.558 4.10268 322.558 0H291.86C291.86 1.02566 291.028 1.85714 290 1.85714V3.71429C291.028 3.71429 291.86 4.54577 291.86 5.57143C291.86 6.5971 291.028 7.4286 290 7.4286V9.2857C291.028 9.2857 291.86 10.1172 291.86 11.1429C291.86 12.1685 291.028 13 290 13V14.8571C291.028 14.8571 291.86 15.6886 291.86 16.7143C291.86 17.7399 291.028 18.5714 290 18.5714V20.4286C291.028 20.4286 291.86 21.2601 291.86 22.2857C291.86 23.3114 291.028 24.1429 290 24.1429V26C291.028 26 291.86 26.8315 291.86 27.8571C291.86 28.8828 291.028 29.7143 290 29.7143V31.5714C291.028 31.5714 291.86 32.4029 291.86 33.4286C291.86 34.4542 291.028 35.2857 290 35.2857V37.1429C291.028 37.1429 291.86 37.9743 291.86 39C291.86 40.0257 291.028 40.8571 290 40.8571V42.7143C291.028 42.7143 291.86 43.5458 291.86 44.5714C291.86 45.5971 291.028 46.4286 290 46.4286V48.2857C291.028 48.2857 291.86 49.1172 291.86 50.1429C291.86 51.1685 291.028 52 290 52V53.8571C291.028 53.8571 291.86 54.6886 291.86 55.7143C291.86 56.7399 291.028 57.5714 290 57.5714V59.4286C291.028 59.4286 291.86 60.2601 291.86 61.2857C291.86 62.3114 291.028 63.1429 290 63.1429V65C291.028 65 291.86 65.8315 291.86 66.8571C291.86 67.8828 291.028 68.7143 290 68.7143V70.5714C291.028 70.5714 291.86 71.4029 291.86 72.4286C291.86 73.4542 291.028 74.2857 290 74.2857V76.1429Z" fill="#00FFBF"/>
</g>
<path fill-rule="evenodd" clip-rule="evenodd" d="M298 11V12H314V11H298ZM319.651 14.4527H315.177V12.8206C315.177 12.4863 315.236 12.2058 315.356 11.9791C315.475 11.751 315.643 11.5789 315.858 11.4627C316.072 11.3451 316.322 11.2863 316.608 11.2863C316.894 11.2863 317.144 11.3458 317.355 11.4649C317.564 11.5824 317.727 11.756 317.842 11.9855C317.855 12.0123 317.868 12.0398 317.88 12.068L319.651 11.127V12.0067L318.012 12.862V13.6643H319.651V14.4527ZM317.339 13.6643V12.9375C317.339 12.742 317.312 12.5819 317.256 12.4573C317.2 12.3326 317.117 12.2405 317.01 12.181C316.9 12.1201 316.766 12.0896 316.608 12.0896C316.449 12.0896 316.313 12.1201 316.201 12.181C316.088 12.2419 316.002 12.3347 315.943 12.4594C315.884 12.5841 315.854 12.7449 315.854 12.9418V13.6643H317.339ZM319.651 18.5024H315.177V17.714H317.232V17.6608L315.177 15.9629V15.0003L317.184 16.6833L319.651 14.9854V15.9332L317.733 17.2316L318.318 17.714H319.651V18.5024ZM319.559 20.1301C319.652 20.038 319.699 19.9275 319.699 19.7986C319.699 19.715 319.678 19.6385 319.636 19.5691C319.592 19.4983 319.534 19.4416 319.461 19.3991C319.388 19.3552 319.307 19.3325 319.218 19.3311C319.087 19.3325 318.975 19.38 318.882 19.4735C318.789 19.5656 318.742 19.6739 318.742 19.7986C318.742 19.9275 318.789 20.038 318.882 20.1301C318.975 20.2222 319.087 20.2675 319.218 20.2661C319.352 20.2675 319.466 20.2222 319.559 20.1301ZM317.414 20.7095C317.896 20.7095 318.309 20.7973 318.652 20.973C318.995 21.1472 319.257 21.3852 319.439 21.687C319.621 21.9873 319.712 22.3281 319.712 22.7092C319.712 23.0903 319.621 23.4317 319.439 23.7335C319.255 24.0338 318.992 24.2718 318.65 24.4475C318.306 24.6217 317.894 24.7089 317.414 24.7089C316.931 24.7089 316.519 24.6217 316.177 24.4475C315.833 24.2718 315.57 24.0338 315.388 23.7335C315.206 23.4317 315.115 23.0903 315.115 22.7092C315.115 22.3281 315.206 21.9873 315.388 21.687C315.57 21.3852 315.833 21.1472 316.177 20.973C316.519 20.7973 316.931 20.7095 317.414 20.7095ZM317.414 21.5021C317.074 21.5021 316.788 21.5538 316.555 21.6573C316.32 21.7593 316.144 21.9009 316.024 22.0823C315.903 22.2636 315.843 22.4726 315.843 22.7092C315.843 22.9458 315.903 23.1547 316.024 23.3361C316.144 23.5174 316.32 23.6598 316.555 23.7632C316.788 23.8652 317.074 23.9162 317.414 23.9162C317.753 23.9162 318.04 23.8652 318.274 23.7632C318.507 23.6598 318.684 23.5174 318.805 23.3361C318.925 23.1547 318.984 22.9458 318.984 22.7092C318.984 22.4726 318.925 22.2636 318.805 22.0823C318.684 21.9009 318.507 21.7593 318.274 21.6573C318.04 21.5538 317.753 21.5021 317.414 21.5021ZM316.686 26.1146V25.3198C316.437 25.3524 316.216 25.4218 316.022 25.5281C315.827 25.6329 315.662 25.7668 315.528 25.9297C315.393 26.0927 315.29 26.2782 315.22 26.4865C315.15 26.6948 315.115 26.92 315.115 27.1623C315.115 27.5419 315.206 27.882 315.388 28.1823C315.57 28.4827 315.833 28.72 316.177 28.8942C316.519 29.0685 316.931 29.1556 317.414 29.1556C317.894 29.1556 318.306 29.0692 318.65 28.8963C318.994 28.7235 319.257 28.4869 319.439 28.1866C319.621 27.8862 319.712 27.5448 319.712 27.1623C319.712 26.903 319.673 26.6671 319.594 26.4546C319.514 26.2421 319.403 26.0565 319.262 25.8979C319.119 25.7392 318.955 25.611 318.768 25.5132C318.582 25.414 318.382 25.3496 318.17 25.3198L318.165 26.1146C318.296 26.1387 318.413 26.1826 318.515 26.2464C318.617 26.3087 318.703 26.3859 318.773 26.478C318.842 26.5687 318.896 26.6714 318.932 26.7861C318.967 26.8995 318.984 27.0213 318.984 27.1516C318.984 27.3868 318.925 27.5958 318.807 27.7785C318.688 27.9599 318.512 28.103 318.279 28.2078C318.044 28.3112 317.756 28.3629 317.414 28.3629C317.077 28.3629 316.792 28.3112 316.559 28.2078C316.325 28.1044 316.147 27.9613 316.026 27.7785C315.904 27.5958 315.843 27.3861 315.843 27.1495C315.843 27.0164 315.862 26.8924 315.9 26.7776C315.936 26.6615 315.991 26.558 316.063 26.4674C316.136 26.3767 316.225 26.3009 316.33 26.24C316.433 26.1791 316.552 26.1373 316.686 26.1146ZM319.699 30.341C319.699 30.4699 319.652 30.5804 319.559 30.6725C319.466 30.7646 319.352 30.8099 319.218 30.8085C319.087 30.8099 318.975 30.7646 318.882 30.6725C318.789 30.5804 318.742 30.4699 318.742 30.341C318.742 30.2163 318.789 30.108 318.882 30.0159C318.975 29.9224 319.087 29.8749 319.218 29.8735C319.307 29.8749 319.388 29.8976 319.461 29.9415C319.534 29.984 319.592 30.0407 319.636 30.1115C319.678 30.1809 319.699 30.2574 319.699 30.341ZM316.815 33.2957L315.177 34.2541V35.1573L317.414 33.7993L319.651 35.1743V34.2647L318.023 33.2957V33.2617L319.651 32.2927V31.3789L317.414 32.741L315.177 31.4001V32.299L316.815 33.2617V33.2957ZM315.177 38.5473V35.7167H315.856V37.7589H317.071V35.8633H317.75V37.7589H318.971V35.6997H319.651V38.5473H315.177ZM315.177 41.1482V41.9366H319.651V39.2314H318.971V41.1482H315.177ZM315.177 45.7879V44.1559C315.177 43.8215 315.241 43.541 315.369 43.3144C315.497 43.0863 315.673 42.9141 315.897 42.798C316.12 42.6804 316.374 42.6216 316.658 42.6216C316.945 42.6216 317.2 42.6804 317.422 42.798C317.645 42.9156 317.821 43.0891 317.949 43.3186C318.076 43.5481 318.139 43.8308 318.139 44.1665V44.9995H319.651V45.7879H315.177ZM317.473 44.2728V44.9995H315.854V44.277C315.854 44.0801 315.888 43.9193 315.956 43.7946C316.023 43.6685 316.117 43.5757 316.238 43.5162C316.359 43.4553 316.499 43.4249 316.658 43.4249C316.817 43.4249 316.957 43.4553 317.079 43.5162C317.202 43.5757 317.298 43.6678 317.368 43.7925C317.438 43.9172 317.473 44.0773 317.473 44.2728ZM315.177 49.9299H315.856V48.5847H319.651V47.8027H315.856V46.4575H315.177V49.9299ZM315.177 53.631V51.9989C315.177 51.6646 315.236 51.3841 315.356 51.1574C315.475 50.9293 315.643 50.7572 315.858 50.641C316.072 50.5234 316.322 50.4646 316.608 50.4646C316.894 50.4646 317.144 50.5241 317.355 50.6431C317.564 50.7607 317.727 50.9342 317.842 51.1638C317.855 51.1906 317.868 51.2181 317.88 51.2463L319.651 50.3052V51.185L318.012 52.0403V52.8426H319.651V53.631H315.177ZM317.339 52.1158V52.8426H315.854V52.12C315.854 51.9231 315.884 51.7623 315.943 51.6376C316.002 51.513 316.088 51.4202 316.201 51.3593C316.313 51.2983 316.449 51.2679 316.608 51.2679C316.766 51.2679 316.9 51.2983 317.01 51.3593C317.117 51.4188 317.2 51.5109 317.256 51.6355C317.312 51.7602 317.339 51.9203 317.339 52.1158ZM318.652 54.6395C318.309 54.4638 317.896 54.376 317.414 54.376C316.931 54.376 316.519 54.4638 316.177 54.6395C315.833 54.8138 315.57 55.0518 315.388 55.3535C315.206 55.6539 315.115 55.9946 315.115 56.3757C315.115 56.7568 315.206 57.0982 315.388 57.4C315.57 57.7003 315.833 57.9383 316.177 58.114C316.519 58.2883 316.931 58.3754 317.414 58.3754C317.894 58.3754 318.306 58.2883 318.65 58.114C318.992 57.9383 319.255 57.7003 319.439 57.4C319.621 57.0982 319.712 56.7568 319.712 56.3757C319.712 55.9946 319.621 55.6539 319.439 55.3535C319.257 55.0518 318.995 54.8138 318.652 54.6395ZM316.555 55.3238C316.788 55.2204 317.074 55.1686 317.414 55.1686C317.753 55.1686 318.04 55.2204 318.274 55.3238C318.507 55.4258 318.684 55.5675 318.805 55.7488C318.925 55.9301 318.984 56.1391 318.984 56.3757C318.984 56.6123 318.925 56.8212 318.805 57.0026C318.684 57.1839 318.507 57.3263 318.274 57.4297C318.04 57.5317 317.753 57.5827 317.414 57.5827C317.074 57.5827 316.788 57.5317 316.555 57.4297C316.32 57.3263 316.144 57.1839 316.024 57.0026C315.903 56.8212 315.843 56.6123 315.843 56.3757C315.843 56.1391 315.903 55.9301 316.024 55.7488C316.144 55.5675 316.32 55.4258 316.555 55.3238ZM315.177 62.7182V61.9298H317.071V59.9131H315.177V59.1226H319.651V59.9131H317.75V61.9298H319.651V62.7182H315.177ZM315.961 64.4898C316.067 64.3425 316.216 64.2589 316.406 64.2391V63.4804C316.154 63.4847 315.932 63.5534 315.738 63.6866C315.543 63.8197 315.391 64.0032 315.281 64.2369C315.171 64.4693 315.115 64.7399 315.115 65.0487C315.115 65.3533 315.171 65.626 315.281 65.8669C315.391 66.1077 315.544 66.2983 315.742 66.4385C315.94 66.5774 316.171 66.6468 316.435 66.6468C316.755 66.6468 317.012 66.5434 317.206 66.3365C317.398 66.1283 317.542 65.8449 317.636 65.4865L317.768 64.9913C317.808 64.8355 317.855 64.6995 317.907 64.5833C317.958 64.4657 318.022 64.3744 318.1 64.3092C318.175 64.244 318.271 64.2107 318.388 64.2093C318.516 64.2107 318.628 64.2483 318.724 64.3219C318.819 64.3956 318.893 64.4976 318.947 64.628C319 64.7569 319.026 64.9071 319.026 65.0785C319.026 65.2428 319 65.3916 318.949 65.5247C318.898 65.6565 318.821 65.7635 318.718 65.8456C318.614 65.9278 318.485 65.9745 318.329 65.9859V66.7615C318.626 66.7502 318.878 66.6751 319.085 66.5363C319.292 66.396 319.449 66.2019 319.557 65.954C319.665 65.7047 319.719 65.4107 319.719 65.0721C319.719 64.7236 319.663 64.4268 319.552 64.1817C319.44 63.9352 319.285 63.7468 319.087 63.6164C318.888 63.4861 318.657 63.4209 318.395 63.4209C318.201 63.4209 318.032 63.4563 317.888 63.5272C317.743 63.598 317.62 63.6943 317.518 63.8162C317.417 63.9366 317.332 64.0733 317.265 64.2263C317.198 64.3779 317.145 64.5359 317.106 64.7002L317.001 65.1082C316.979 65.1975 316.952 65.286 316.92 65.3739C316.888 65.4617 316.848 65.5417 316.802 65.614C316.754 65.6862 316.696 65.7436 316.627 65.7861C316.559 65.8272 316.478 65.8478 316.385 65.8478C316.272 65.8463 316.173 65.8145 316.085 65.7521C315.998 65.6898 315.929 65.5998 315.878 65.4822C315.827 65.3647 315.801 65.2237 315.801 65.0594C315.801 64.8256 315.854 64.6358 315.961 64.4898ZM298 67V66H314V67H298ZM298 64V65H314V64H298ZM298 35V34V33H314V34V35H298ZM298 19V20H314V19H298ZM298 63V61V59H314V61V63H298ZM298 47V48H314V47H298ZM298 50V49H314V50H298ZM298 41V40H314V41H298ZM298 17V18H314V17H298ZM298 44V46H314V44V43H298V44ZM298 32V30H314V32H298ZM298 15V16H314V15H298ZM298 58V57H314V58H298ZM298 55V56H314V55H298ZM298 28V29H314V28H298ZM298 14V13H314V14H298ZM298 54V53H314V54H298ZM298 25V25.6667H314V25H298ZM298 27.0002V26.3335H314V27.0002H298ZM298 51V52H314V51H298ZM298 38V36H314V38H298ZM298 22V24H314V22H298Z" fill="black"/>
<g filter="url(#filter1_d_1363_4341)">
<path fill-rule="evenodd" clip-rule="evenodd" d="M288.064 0H7.4433L7.3814 0.68221C7.0585 4.23968 4.23103 7.0737 0.68184 7.3976L0 7.4598V70.5402L0.68184 70.6024C4.23103 70.9263 7.0585 73.7603 7.3814 77.3178L7.4433 78H288.064L288.224 77.4657C288.403 76.87 288.873 76.3992 289.466 76.2208L290 76.0601V74.3683L289.466 74.2077C288.702 73.978 288.147 73.2672 288.147 72.4286C288.147 71.5899 288.702 70.8791 289.466 70.6494L290 70.4888V68.7969L289.466 68.6363C288.702 68.4066 288.147 67.6958 288.147 66.8571C288.147 66.0185 288.702 65.3077 289.466 65.078L290 64.9174V63.2255L289.466 63.0649C288.702 62.8352 288.147 62.1244 288.147 61.2857C288.147 60.4469 288.702 59.7362 289.466 59.5066L290 59.3461V57.6539L289.466 57.4934C288.702 57.2638 288.147 56.5531 288.147 55.7143C288.147 54.8756 288.702 54.1648 289.466 53.9351L290 53.7745V52.0826L289.466 51.922C288.702 51.6923 288.147 50.9815 288.147 50.1429C288.147 49.3042 288.702 48.5934 289.466 48.3637L290 48.2031V46.5112L289.466 46.3506C288.702 46.1209 288.147 45.4101 288.147 44.5714C288.147 43.7327 288.702 43.0219 289.466 42.7923L290 42.6318V40.9396L289.466 40.7791C288.702 40.5495 288.147 39.8388 288.147 39C288.147 38.1612 288.702 37.4505 289.466 37.2209L290 37.0604V35.3683L289.466 35.2077C288.702 34.978 288.147 34.2672 288.147 33.4286C288.147 32.5899 288.702 31.8791 289.466 31.6494L290 31.4888V29.7969L289.466 29.6363C288.702 29.4066 288.147 28.6958 288.147 27.8571C288.147 27.0185 288.702 26.3077 289.466 26.078L290 25.9174V24.2255L289.466 24.0649C288.702 23.8352 288.147 23.1244 288.147 22.2857C288.147 21.4469 288.702 20.7362 289.466 20.5066L290 20.3461V18.6539L289.466 18.4934C288.702 18.2638 288.147 17.5531 288.147 16.7143C288.147 15.8756 288.702 15.1648 289.466 14.9351L290 14.7745V13.0826L289.466 12.922C288.702 12.6923 288.147 11.9815 288.147 11.1429C288.147 10.3042 288.702 9.5934 289.466 9.3637L290 9.2031V7.5112L289.466 7.3506C288.702 7.1209 288.147 6.4101 288.147 5.57143C288.147 4.73272 288.702 4.02196 289.466 3.79231L290 3.63172V1.93981L289.466 1.77916C288.873 1.60074 288.403 1.12999 288.224 0.53432L288.064 0ZM1.5 8.8026C5.2232 8.1703 8.1572 5.22696 8.7868 1.5H287C287.26 2.01978 287.65 2.46279 288.128 2.78568C287.234 3.38899 286.647 4.41201 286.647 5.57143C286.647 6.7308 287.234 7.7538 288.128 8.3572C287.234 8.9605 286.647 9.9835 286.647 11.1429C286.647 12.3023 287.234 13.3252 288.128 13.9285C287.234 14.5319 286.647 15.5549 286.647 16.7143C286.647 17.8737 287.234 18.8967 288.128 19.5C287.234 20.1033 286.647 21.1263 286.647 22.2857C286.647 23.4451 287.234 24.4681 288.128 25.0715C287.234 25.6748 286.647 26.6977 286.647 27.8571C286.647 29.0165 287.234 30.0395 288.128 30.6429C287.234 31.2462 286.647 32.2692 286.647 33.4286C286.647 34.588 287.234 35.611 288.128 36.2143C287.234 36.8176 286.647 37.8406 286.647 39C286.647 40.1594 287.234 41.1824 288.128 41.7857C287.234 42.389 286.647 43.4121 286.647 44.5714C286.647 45.7308 287.234 46.7538 288.128 47.3572C287.234 47.9605 286.647 48.9835 286.647 50.1429C286.647 51.3022 287.234 52.3252 288.128 52.9286C287.234 53.5319 286.647 54.5549 286.647 55.7143C286.647 56.8737 287.234 57.8967 288.128 58.5C287.234 59.1033 286.647 60.1263 286.647 61.2857C286.647 62.4451 287.234 63.4681 288.128 64.0715C287.234 64.6748 286.647 65.6977 286.647 66.8571C286.647 68.0165 287.234 69.0395 288.128 69.6429C287.234 70.2462 286.647 71.2692 286.647 72.4286C286.647 73.588 287.234 74.611 288.128 75.2143C287.65 75.5372 287.26 75.9802 287 76.5H8.7868C8.1572 72.773 5.2232 69.8297 1.5 69.1974V54.5295L11.3754 39.0833H16.4688C16.7608 39.0833 16.9368 39.4109 16.778 39.6591L10.5236 49.4353L26.8238 39.3393C27.0587 39.1938 27.0587 38.8484 26.8238 38.7029L15.7241 31.828L11.3754 39.0833H6.0157C5.72804 39.0833 5.55139 38.7643 5.70139 38.5158L11.3664 29.1289L1.56057 23.0554C1.54077 23.0431 1.52051 23.033 1.5 23.0249V8.8026ZM147.116 25.6362L143.736 45.9998H147.425L148.857 37.3492H157.318L157.835 34.2569H149.374L150.288 28.7285H159.645L160.162 25.6362H147.116ZM163.523 25.6362L160.142 45.9998H163.831L165.071 38.5424H168.822L171.587 45.9998H175.703L172.633 37.9297C172.774 37.8757 172.912 37.8181 173.048 37.7569C174.215 37.2332 175.153 36.4941 175.862 35.5396C176.578 34.5784 177.042 33.4482 177.254 32.1489C177.473 30.8497 177.39 29.7129 177.006 28.7384C176.621 27.7574 175.942 26.9951 174.967 26.4515C173.993 25.9079 172.723 25.6362 171.159 25.6362H163.523ZM165.581 35.4799H168.991C169.906 35.4799 170.675 35.354 171.298 35.1021C171.921 34.8435 172.412 34.469 172.77 33.9785C173.134 33.4813 173.376 32.8715 173.496 32.1489C173.608 31.4264 173.565 30.8099 173.366 30.2995C173.174 29.7825 172.806 29.3914 172.263 29.1262C171.726 28.8544 171 28.7186 170.085 28.7186H166.705L165.581 35.4799ZM181.843 25.6362L178.462 45.9998H191.786L192.303 42.9075H182.668L183.583 37.3492H192.452L192.969 34.2569H184.1L185.015 28.7285H194.57L195.087 25.6362H181.843ZM198.851 25.6362L195.47 45.9998H208.794L209.311 42.9075H199.676L200.591 37.3492H209.46L209.977 34.2569H201.108L202.023 28.7285H211.578L212.095 25.6362H198.851ZM221.628 31.4543L219.213 45.9998H221.848L222.665 41.085H225.442C226.564 41.085 227.544 40.8791 228.382 40.4671C229.22 40.0505 229.895 39.4799 230.406 38.7555C230.922 38.031 231.256 37.2025 231.408 36.2697C231.564 35.3417 231.507 34.5154 231.237 33.791C230.967 33.0618 230.487 32.4913 229.795 32.0793C229.104 31.6627 228.2 31.4543 227.082 31.4543H221.628ZM223.026 38.9188H225.449C226.102 38.9188 226.656 38.8052 227.111 38.5779C227.57 38.3507 227.932 38.0382 228.197 37.6404C228.463 37.2427 228.638 36.7858 228.723 36.2697C228.804 35.7536 228.777 35.299 228.645 34.906C228.512 34.5131 228.254 34.2077 227.871 33.9899C227.492 33.7673 226.973 33.656 226.315 33.656H223.901L223.026 38.9188ZM229.499 45.9998H232.311L234.113 42.4132H239.582L240.188 45.9998H243L240.287 31.4543H237.034L229.499 45.9998ZM239.225 40.2967L238.235 34.4373H238.121L235.177 40.2967H239.225ZM253.716 34.0112C254.137 34.3615 254.339 34.8658 254.32 35.5239H256.855C256.969 34.6811 256.857 33.9401 256.521 33.3009C256.19 32.657 255.664 32.1551 254.945 31.7953C254.23 31.4354 253.356 31.2555 252.324 31.2555C251.301 31.2555 250.359 31.4354 249.497 31.7953C248.635 32.1504 247.918 32.6499 247.345 33.2938C246.772 33.933 246.415 34.6835 246.273 35.5453C246.102 36.5869 246.311 37.4203 246.898 38.0453C247.49 38.6703 248.356 39.139 249.497 39.4515L251.074 39.8776C251.58 40.0102 252.016 40.1617 252.381 40.3322C252.75 40.4979 253.022 40.7062 253.197 40.9572C253.373 41.2081 253.427 41.5206 253.361 41.8947C253.295 42.3114 253.112 42.6759 252.814 42.9884C252.52 43.2962 252.142 43.5377 251.678 43.7129C251.214 43.8833 250.695 43.9686 250.122 43.9686C249.573 43.9686 249.09 43.8857 248.673 43.72C248.257 43.5543 247.937 43.3033 247.714 42.9671C247.497 42.631 247.414 42.2096 247.466 41.7029H244.874C244.746 42.6641 244.859 43.4809 245.214 44.1532C245.574 44.8256 246.143 45.3393 246.919 45.6944C247.696 46.0448 248.647 46.22 249.774 46.22C250.939 46.22 251.959 46.04 252.835 45.6802C253.716 45.3156 254.426 44.8114 254.966 44.1674C255.51 43.5187 255.854 42.7683 255.996 41.916C256.105 41.2863 256.079 40.737 255.918 40.2683C255.757 39.7995 255.501 39.3994 255.151 39.068C254.805 38.7318 254.395 38.4572 253.922 38.2441C253.448 38.0263 252.951 37.8535 252.43 37.7257L251.124 37.3847C250.835 37.3137 250.551 37.2261 250.271 37.122C249.997 37.0178 249.75 36.8876 249.533 36.7313C249.32 36.5751 249.161 36.3857 249.057 36.1632C248.953 35.9406 248.927 35.6802 248.979 35.3819C249.04 35.0173 249.199 34.693 249.455 34.4089C249.71 34.1201 250.046 33.8952 250.463 33.7342C250.884 33.5685 251.37 33.4856 251.919 33.4856C252.7 33.4856 253.299 33.6608 253.716 34.0112ZM266.704 34.0112C267.126 34.3615 267.327 34.8658 267.308 35.5239H269.843C269.957 34.6811 269.846 33.9401 269.51 33.3009C269.178 32.657 268.653 32.1551 267.933 31.7953C267.218 31.4354 266.344 31.2555 265.312 31.2555C264.289 31.2555 263.347 31.4354 262.485 31.7953C261.624 32.1504 260.906 32.6499 260.333 33.2938C259.761 33.933 259.403 34.6835 259.261 35.5453C259.091 36.5869 259.299 37.4203 259.886 38.0453C260.478 38.6703 261.344 39.139 262.485 39.4515L264.062 39.8776C264.569 40.0102 265.004 40.1617 265.369 40.3322C265.738 40.4979 266.011 40.7062 266.186 40.9572C266.361 41.2081 266.415 41.5206 266.349 41.8947C266.283 42.3114 266.1 42.6759 265.802 42.9884C265.509 43.2962 265.13 43.5377 264.666 43.7129C264.202 43.8833 263.683 43.9686 263.11 43.9686C262.561 43.9686 262.078 43.8857 261.662 43.72C261.245 43.5543 260.925 43.3033 260.703 42.9671C260.485 42.631 260.402 42.2096 260.454 41.7029H257.862C257.734 42.6641 257.848 43.4809 258.203 44.1532C258.563 44.8256 259.131 45.3393 259.907 45.6944C260.684 46.0448 261.636 46.22 262.762 46.22C263.927 46.22 264.948 46.04 265.824 45.6802C266.704 45.3156 267.414 44.8114 267.954 44.1674C268.499 43.5187 268.842 42.7683 268.984 41.916C269.093 41.2863 269.067 40.737 268.906 40.2683C268.745 39.7995 268.489 39.3994 268.139 39.068C267.793 38.7318 267.384 38.4572 266.91 38.2441C266.437 38.0263 265.94 37.8535 265.419 37.7257L264.112 37.3847C263.823 37.3137 263.539 37.2261 263.26 37.122C262.985 37.0178 262.739 36.8876 262.521 36.7313C262.308 36.5751 262.149 36.3857 262.045 36.1632C261.941 35.9406 261.915 35.6802 261.967 35.3819C262.029 35.0173 262.187 34.693 262.443 34.4089C262.699 34.1201 263.035 33.8952 263.451 33.7342C263.873 33.5685 264.358 33.4856 264.907 33.4856C265.689 33.4856 266.288 33.6608 266.704 34.0112ZM31.0157 41.6672L31 41.668L31.0173 41.6333L31.0157 41.6672ZM31.4681 43.8466C31.1393 43.1686 30.9839 42.4197 31.0157 41.6672L33.4386 41.5409C33.4101 42.0948 33.5491 42.6446 33.8374 43.1185C34.213 43.5577 34.9065 43.7773 35.912 43.7773C36.552 43.8336 37.1925 43.6749 37.7323 43.3265C37.9087 43.205 38.0533 43.043 38.1539 42.8539C38.2545 42.6648 38.3081 42.4543 38.3102 42.2401C38.3126 42.0592 38.2726 41.8803 38.1933 41.7177C38.114 41.5551 37.9977 41.4133 37.8536 41.3039C37.2928 40.9284 36.692 40.6163 36.0622 40.3735C35.3335 40.0729 34.6267 39.7214 33.9472 39.3218C33.5108 39.0514 33.1491 38.6759 32.8954 38.2296C32.6324 37.7483 32.5008 37.2061 32.514 36.6578C32.5036 36.1643 32.6017 35.6746 32.8014 35.2232C33.0011 34.7719 33.2976 34.3699 33.6698 34.0458C34.6004 33.2981 35.7786 32.9288 36.9695 33.0114C38.1874 32.9326 39.3926 33.2981 40.3616 34.04C40.7603 34.3784 41.084 34.7963 41.3119 35.267C41.5397 35.7376 41.6668 36.2507 41.685 36.7734L39.229 36.8889C39.2012 36.3652 38.9688 35.8733 38.5818 35.5194C38.113 35.2247 37.5745 35.0598 37.0211 35.0415C36.4678 35.0233 35.9195 35.1523 35.4323 35.4154C35.2875 35.5254 35.1706 35.668 35.0913 35.8317C35.012 35.9953 34.9724 36.1754 34.9758 36.3573C34.9722 36.5268 35.0079 36.6948 35.0801 36.8482C35.1523 37.0016 35.259 37.1362 35.3919 37.2414C35.9658 37.6433 36.5868 37.9732 37.2411 38.2238C38.225 38.583 39.1486 39.0896 39.9802 39.7263C40.2707 40.0089 40.4985 40.3494 40.6489 40.7257C40.7992 41.102 40.8687 41.5058 40.8528 41.9107C40.8559 42.4479 40.7405 42.9791 40.5147 43.4666C40.289 43.954 39.9585 44.3857 39.5468 44.7308C38.5231 45.5583 37.2257 45.9709 35.912 45.8865C34.9557 45.909 34.0058 45.7257 33.1266 45.3491C32.4177 45.0534 31.8321 44.5229 31.4681 43.8466ZM45.9958 40.1421H50.8153L49.648 45.7128H52.2195L54.82 33.248H52.26L51.2487 38.0617H46.4292L47.4347 33.248H44.8747L42.2627 45.7128H44.8285L45.9958 40.1421ZM55.606 40.8184C55.615 40.0369 55.7258 39.2598 55.9354 38.5069C56.1923 37.4821 56.6413 36.5153 57.2587 35.6579C57.8477 34.8566 58.6154 34.2037 59.5009 33.751C60.4536 33.2716 61.5088 33.0316 62.5752 33.0517C63.2634 33.0214 63.9504 33.133 64.5936 33.3795C65.2369 33.6261 65.8225 34.0023 66.314 34.4849C66.7945 34.9917 67.1681 35.59 67.4123 36.2443C67.6565 36.8986 67.7665 37.5954 67.7356 38.2931C67.7337 39.6215 67.4169 40.9306 66.811 42.1129C66.2544 43.2766 65.3811 44.2599 64.2915 44.9502C63.2142 45.6217 61.9663 45.9687 60.6971 45.95C59.665 45.9852 58.6462 45.7094 57.773 45.1583C57.0319 44.6865 56.4484 44.0045 56.0972 43.1993C55.7754 42.4527 55.6083 41.6487 55.606 40.8357V40.8184ZM58.1371 40.7895C58.1126 41.5805 58.3941 42.3505 58.923 42.9392C59.1815 43.2255 59.4998 43.4515 59.8553 43.6012C60.2108 43.751 60.5948 43.8209 60.9802 43.806C61.7009 43.7941 62.3991 43.5532 62.9739 43.1184C63.675 42.5795 64.2196 41.8633 64.5515 41.0438C64.9516 40.1974 65.1663 39.2754 65.1814 38.3393C65.229 37.495 64.945 36.6656 64.3897 36.0278C64.1314 35.7541 63.8182 35.5381 63.4707 35.3937C63.1232 35.2493 62.7491 35.1798 62.3729 35.1899C61.7566 35.1879 61.1504 35.3468 60.6143 35.6509C60.0782 35.9549 59.6306 36.3936 59.3159 36.9235C58.5487 38.057 58.1455 39.3977 58.1602 40.7664L58.1371 40.7895ZM116.093 33.248L113.486 45.7128H123.224L123.669 43.6267H116.41L117.196 40.2461H123.651L124.085 38.1599H117.63L118.225 35.3283H124.899L125.333 33.248H116.093ZM70.9601 45.707H68.3943L71.0005 33.2421H76.5366C77.2895 33.2135 78.0419 33.3132 78.7614 33.5368C79.299 33.7385 79.7517 34.1177 80.0443 34.6117C80.3868 35.1832 80.5573 35.8412 80.5355 36.5071C80.5714 37.4724 80.2293 38.4136 79.582 39.1307C78.8027 39.8892 77.7779 40.3442 76.6926 40.4136C77.0582 40.7507 77.3717 41.1402 77.623 41.5693C78.3598 42.8985 78.9991 44.2794 79.5358 45.7012H76.7793C76.5597 45 76.1263 43.904 75.4791 42.413C75.2517 41.7841 74.8655 41.2247 74.358 40.7892C73.9626 40.5925 73.5212 40.5067 73.0809 40.5407H72.0349L70.9601 45.707ZM72.4337 38.6799H73.7917C74.7138 38.7271 75.6379 38.6435 76.5366 38.4315C76.9585 38.2848 77.3269 38.015 77.5941 37.6571C77.836 37.3394 77.9697 36.9526 77.9755 36.5534C77.9839 36.346 77.9343 36.1404 77.8322 35.9597C77.7301 35.779 77.5796 35.6303 77.3976 35.5305C76.9291 35.3563 76.428 35.2872 75.9298 35.3282H73.104L72.4337 38.6799ZM123.877 45.7072H127.194L128.898 43.7829C129.504 43.1224 130.073 42.4299 130.603 41.7083C130.765 42.107 131.089 42.8525 131.574 43.8407L132.51 45.6956H135.4L132.331 39.7955L138 33.2192H134.781L132.816 35.4383C132.354 35.9815 131.776 36.6692 131.083 37.5129C131.051 37.4356 131.014 37.3604 130.973 37.2875L130.141 35.5539L128.927 33.2424H126.281L129.378 39.4026L123.877 45.7072ZM86.0254 45.7128H83.4596L85.6324 35.3283H81.9802L82.4136 33.248H92.2318L91.7984 35.3283H88.1924L86.0254 45.7128ZM91.2322 45.7065H93.798L94.7804 40.9333H96.422C97.178 40.9491 97.934 40.9202 98.687 40.8466C99.253 40.7843 99.807 40.6423 100.334 40.4247C100.766 40.2301 101.159 39.9556 101.49 39.6157C101.878 39.2029 102.183 38.718 102.385 38.1883C102.625 37.6055 102.749 36.9811 102.749 36.3507C102.763 35.7414 102.605 35.1407 102.293 34.6171C102.002 34.1389 101.564 33.7678 101.045 33.5595C100.357 33.3231 99.633 33.2153 98.906 33.2417H93.8384L91.2322 45.7065ZM95.9881 38.8876H95.2196L95.9881 35.2932H97.78C98.319 35.2643 98.859 35.3091 99.386 35.4261C99.62 35.499 99.823 35.6474 99.964 35.8479C100.104 36.0685 100.172 36.3267 100.16 36.5876C100.163 37.0292 100.026 37.4603 99.767 37.8185C99.506 38.1965 99.132 38.4819 98.698 38.6333C97.813 38.8534 96.899 38.9391 95.9881 38.8876ZM102.923 45.7128L105.529 33.248H108.089L105.922 43.6267H112.261L111.828 45.7128H102.923Z" fill="#00FFBF"/>
</g>
<path opacity="0.7" fill-rule="evenodd" clip-rule="evenodd" d="M26 8C26 7.4477 26.4477 7 27 7H72C72.5523 7 73 7.4477 73 8C73 8.5523 72.5523 9 72 9H27C26.4477 9 26 8.5523 26 8Z" fill="#00FFBF"/>
<g filter="url(#filter2_d_1363_4341)">
<path fill-rule="evenodd" clip-rule="evenodd" d="M228 6.25C227.586 6.25 227.25 6.5858 227.25 7C227.25 7.4142 227.586 7.75 228 7.75H270C270.414 7.75 270.75 7.4142 270.75 7C270.75 6.5858 270.414 6.25 270 6.25H228ZM5 11.5C4.17157 11.5 3.5 12.1716 3.5 13C3.5 13.8284 4.17157 14.5 5 14.5H124C124.828 14.5 125.5 13.8284 125.5 13C125.5 12.1716 124.828 11.5 124 11.5H5ZM239 12C239 11.1716 239.672 10.5 240.5 10.5H286.5C287.328 10.5 288 11.1716 288 12C288 12.8284 287.328 13.5 286.5 13.5H240.5C239.672 13.5 239 12.8284 239 12ZM134 55.5C133.172 55.5 132.5 56.1716 132.5 57C132.5 57.8284 133.172 58.5 134 58.5H279C279.828 58.5 280.5 57.8284 280.5 57C280.5 56.1716 279.828 55.5 279 55.5H134Z" fill="#00FFBF"/>
</g>
<g opacity="0.7" filter="url(#filter3_d_1363_4341)">
<path fill-rule="evenodd" clip-rule="evenodd" d="M33 62C33 61.4477 33.4477 61 34 61H100C100.552 61 101 61.4477 101 62C101 62.5523 100.552 63 100 63H34C33.4477 63 33 62.5523 33 62Z" fill="#00FFBF"/>
</g>
<path opacity="0.5" fill-rule="evenodd" clip-rule="evenodd" d="M53.9998 17.25C53.4475 17.25 52.9998 17.6977 52.9998 18.25C52.9998 18.8023 53.4475 19.25 53.9998 19.25H199C199.552 19.25 200 18.8023 200 18.25C200 17.6977 199.552 17.25 199 17.25H53.9998ZM88.25 52C88.25 51.5858 88.5858 51.25 89 51.25H217C217.414 51.25 217.75 51.5858 217.75 52C217.75 52.4142 217.414 52.75 217 52.75H89C88.5858 52.75 88.25 52.4142 88.25 52ZM0.25 67C0.25 66.5858 0.58579 66.25 1 66.25H49C49.4142 66.25 49.75 66.5858 49.75 67C49.75 67.4142 49.4142 67.75 49 67.75H1C0.58579 67.75 0.25 67.4142 0.25 67Z" fill="#00FFBF"/>
</g>
</g>
<defs>
<filter id="filter0_d_1363_4341" x="286" y="-4" width="48" height="86" filterUnits="userSpaceOnUse" color-interpolation-filters="sRGB">
<feFlood flood-opacity="0" result="BackgroundImageFix"/>
<feColorMatrix in="SourceAlpha" type="matrix" values="0 0 0 0 0 0 0 0 0 0 0 0 0 0 0 0 0 0 127 0" result="hardAlpha"/>
<feOffset/>
<feGaussianBlur stdDeviation="2"/>
<feComposite in2="hardAlpha" operator="out"/>
<feColorMatrix type="matrix" values="0 0 0 0 1 0 0 0 0 1 0 0 0 0 1 0 0 0 0.3 0"/>
<feBlend mode="normal" in2="BackgroundImageFix" result="effect1_dropShadow_1363_4341"/>
<feBlend mode="normal" in="SourceGraphic" in2="effect1_dropShadow_1363_4341" result="shape"/>
</filter>
<filter id="filter1_d_1363_4341" x="-4" y="-4" width="298" height="86" filterUnits="userSpaceOnUse" color-interpolation-filters="sRGB">
<feFlood flood-opacity="0" result="BackgroundImageFix"/>
<feColorMatrix in="SourceAlpha" type="matrix" values="0 0 0 0 0 0 0 0 0 0 0 0 0 0 0 0 0 0 127 0" result="hardAlpha"/>
<feOffset/>
<feGaussianBlur stdDeviation="2"/>
<feComposite in2="hardAlpha" operator="out"/>
<feColorMatrix type="matrix" values="0 0 0 0 1 0 0 0 0 1 0 0 0 0 1 0 0 0 0.25 0"/>
<feBlend mode="normal" in2="BackgroundImageFix" result="effect1_dropShadow_1363_4341"/>
<feBlend mode="normal" in="SourceGraphic" in2="effect1_dropShadow_1363_4341" result="shape"/>
</filter>
<filter id="filter2_d_1363_4341" x="-0.5" y="2.25" width="292.5" height="60.25" filterUnits="userSpaceOnUse" color-interpolation-filters="sRGB">
<feFlood flood-opacity="0" result="BackgroundImageFix"/>
<feColorMatrix in="SourceAlpha" type="matrix" values="0 0 0 0 0 0 0 0 0 0 0 0 0 0 0 0 0 0 127 0" result="hardAlpha"/>
<feOffset/>
<feGaussianBlur stdDeviation="2"/>
<feComposite in2="hardAlpha" operator="out"/>
<feColorMatrix type="matrix" values="0 0 0 0 1 0 0 0 0 1 0 0 0 0 1 0 0 0 0.25 0"/>
<feBlend mode="normal" in2="BackgroundImageFix" result="effect1_dropShadow_1363_4341"/>
<feBlend mode="normal" in="SourceGraphic" in2="effect1_dropShadow_1363_4341" result="shape"/>
</filter>
<filter id="filter3_d_1363_4341" x="29" y="57" width="76" height="10" filterUnits="userSpaceOnUse" color-interpolation-filters="sRGB">
<feFlood flood-opacity="0" result="BackgroundImageFix"/>
<feColorMatrix in="SourceAlpha" type="matrix" values="0 0 0 0 0 0 0 0 0 0 0 0 0 0 0 0 0 0 127 0" result="hardAlpha"/>
<feOffset/>
<feGaussianBlur stdDeviation="2"/>
<feComposite in2="hardAlpha" operator="out"/>
<feColorMatrix type="matrix" values="0 0 0 0 1 0 0 0 0 1 0 0 0 0 1 0 0 0 0.25 0"/>
<feBlend mode="normal" in2="BackgroundImageFix" result="effect1_dropShadow_1363_4341"/>
<feBlend mode="normal" in="SourceGraphic" in2="effect1_dropShadow_1363_4341" result="shape"/>
</filter>
<linearGradient id="paint0_linear_1363_4341" x1="0" y1="39" x2="290" y2="39" gradientUnits="userSpaceOnUse">
<stop stop-color="#1E1E1E"/>
<stop offset="1" stop-color="#00FFBF"/>
</linearGradient>
<clipPath id="clip0_1363_4341">
<rect width="330" height="78" fill="white"/>
</clipPath>
</defs>
</svg>
