<svg width="18" height="19" viewBox="0 0 18 19" fill="none" xmlns="http://www.w3.org/2000/svg">
<rect width="18" height="19" rx="2" fill="#00FFBF"/>
<path d="M12.3 7C12.1343 7 12 6.86569 12 6.7V2.3C12 2.13431 12.1343 2 12.3 2H14.096C14.4989 2 14.8422 2.07243 15.1258 2.21729C15.4094 2.36051 15.6256 2.5599 15.7743 2.81543C15.9248 3.06934 16 3.3623 16 3.69434C16 4.02637 15.9239 4.31934 15.7717 4.57324C15.6195 4.82715 15.399 5.0249 15.1102 5.1665C14.8232 5.30811 14.4756 5.37891 14.0674 5.37891H13.0315C12.8658 5.37891 12.7315 5.24459 12.7315 5.07891V4.83174C12.7315 4.66605 12.8658 4.53174 13.0315 4.53174H13.8859C14.102 4.53174 14.2802 4.49675 14.4202 4.42676C14.562 4.35514 14.6675 4.25667 14.7367 4.13135C14.8076 4.00439 14.8431 3.85872 14.8431 3.69434C14.8431 3.52832 14.8076 3.38346 14.7367 3.25977C14.6675 3.13444 14.562 3.0376 14.4202 2.96924C14.2784 2.89925 14.0986 2.86426 13.8807 2.86426H13.4232C13.2575 2.86426 13.1232 2.99857 13.1232 3.16426V6.7C13.1232 6.86569 12.9889 7 12.8232 7H12.3Z" fill="black"/>
<path d="M11 4.5C11 5.03074 10.8896 5.48226 10.6689 5.85456C10.4499 6.22687 10.151 6.51125 9.77216 6.7077C9.39503 6.90257 8.97098 7 8.5 7C8.02555 7 7.59976 6.90177 7.22263 6.70532C6.8455 6.50887 6.54745 6.22449 6.32847 5.85219C6.10949 5.47988 6 5.02915 6 4.5C6 3.96927 6.10949 3.51774 6.32847 3.14544C6.54745 2.77313 6.8455 2.48954 7.22263 2.29468C7.59976 2.09823 8.02555 2 8.5 2C8.97098 2 9.39503 2.09823 9.77216 2.29468C10.151 2.48954 10.4499 2.77313 10.6689 3.14544C10.8896 3.51774 11 3.96927 11 4.5ZM9.85558 4.5C9.85558 4.15621 9.7991 3.86629 9.68613 3.63023C9.5749 3.39417 9.41762 3.21515 9.21429 3.09316C9.01095 2.97117 8.77285 2.91017 8.5 2.91017C8.22715 2.91017 7.98905 2.97117 7.78571 3.09316C7.58238 3.21515 7.42423 3.39417 7.31126 3.63023C7.20003 3.86629 7.14442 4.15621 7.14442 4.5C7.14442 4.84379 7.20003 5.13371 7.31126 5.36977C7.42423 5.60583 7.58238 5.78485 7.78571 5.90684C7.98905 6.02883 8.22715 6.08983 8.5 6.08983C8.77285 6.08983 9.01095 6.02883 9.21429 5.90684C9.41762 5.78485 9.5749 5.60583 9.68613 5.36977C9.7991 5.13371 9.85558 4.84379 9.85558 4.5Z" fill="black"/>
<path d="M2.3 2.87158C2.13431 2.87158 2 2.73727 2 2.57158V2.3C2 2.13431 2.13431 2 2.3 2H5.7C5.86569 2 6 2.13431 6 2.3V2.57158C6 2.73727 5.86569 2.87158 5.7 2.87158H4.80892C4.64323 2.87158 4.50892 3.0059 4.50892 3.17158V6.7C4.50892 6.86569 4.3746 7 4.20892 7H3.79108C3.6254 7 3.49108 6.86569 3.49108 6.7V3.17158C3.49108 3.0059 3.35677 2.87158 3.19108 2.87158H2.3Z" fill="black"/>
<path d="M12 17C11.1681 16.9972 10.4523 16.8175 9.8525 16.4611C9.25598 16.1047 8.79649 15.5884 8.47405 14.9123C8.15482 14.2362 7.99682 13.4229 8.00005 12.4724C8.00005 11.5248 8.15966 10.7171 8.47888 10.0495C8.80133 9.3819 9.26081 8.87412 9.85734 8.52617C10.4571 8.17539 11.1713 8 12 8C12.8287 8 13.5413 8.17539 14.1378 8.52617C14.7376 8.87695 15.1987 9.38614 15.5211 10.0537C15.8436 10.7185 16.0032 11.5248 16 12.4724C16 13.4257 15.8387 14.2405 15.5163 14.9165C15.1971 15.5926 14.7392 16.1089 14.1427 16.4653C13.5461 16.8218 12.8319 17 12 17ZM12 15.4767C12.5675 15.4767 13.0205 15.2263 13.3591 14.7256C13.6977 14.2249 13.8654 13.4738 13.8621 12.4724C13.8621 11.8133 13.7847 11.2645 13.63 10.826C13.4784 10.3876 13.2624 10.058 12.9818 9.83734C12.7045 9.61669 12.3773 9.50637 12 9.50637C11.4357 9.50637 10.9843 9.75389 10.6457 10.2489C10.3072 10.744 10.1363 11.4851 10.133 12.4724C10.133 13.14 10.2088 13.6973 10.3604 14.1443C10.5151 14.5884 10.7328 14.9222 11.0133 15.1457C11.2938 15.3663 11.6227 15.4767 12 15.4767Z" fill="black"/>
<path d="M5.5 8C5.77614 8 6 8.22386 6 8.5V16.5C6 16.7761 5.77614 17 5.5 17H4.60503C4.32889 17 4.10503 16.7761 4.10503 16.5V9.84691C4.10503 9.8244 4.08679 9.80615 4.06428 9.80615V9.80615C4.05659 9.80615 4.04907 9.80832 4.04256 9.81242L2.76636 10.6157C2.43339 10.8253 2 10.586 2 10.1926V9.68526C2 9.51423 2.08742 9.35507 2.23174 9.26331L4.09605 8.07805C4.17623 8.02708 4.26928 8 4.3643 8H5.5Z" fill="black"/>
</svg>
