<svg width="29" height="16" viewBox="0 0 29 16" fill="none" xmlns="http://www.w3.org/2000/svg">
<rect x="0.5" y="0.5" width="28" height="15" rx="2.5" fill="black" stroke="#00FFBF"/>
<path d="M10.1049 4.95455V11.5H9.05021L5.96604 7.04155H5.91171V11.5H4.72599V4.95455H5.78707L8.86803 9.41619H8.92556V4.95455H10.1049ZM11.2169 11.5V4.95455H15.474V5.94851H12.4026V7.7255H15.2535V8.71946H12.4026V10.506H15.4996V11.5H11.2169ZM17.8812 11.5L16.0339 4.95455H17.3091L18.4884 9.76456H18.5491L19.8084 4.95455H20.9685L22.231 9.76776H22.2885L23.4678 4.95455H24.743L22.8957 11.5H21.726L20.4156 6.90732H20.3645L19.0509 11.5H17.8812Z" fill="white"/>
</svg>
