<svg width="180" height="160" viewBox="0 0 180 160" fill="none" xmlns="http://www.w3.org/2000/svg">
<g clip-path="url(#clip0_960_1899)">
<mask id="path-1-outside-1_960_1899" maskUnits="userSpaceOnUse" x="40" y="67" width="74" height="94" fill="black">
<rect fill="white" x="40" y="67" width="74" height="94"/>
<path d="M69.3075 158.662C62.2621 158.662 56.5234 156.886 52.0916 153.335C47.6598 149.756 44.6626 144.599 43.1001 137.866C41.5661 131.105 41.5945 122.966 43.1854 113.449C44.7479 103.932 47.4325 95.8352 51.2393 89.1591C55.0462 82.4545 59.7479 77.3409 65.3445 73.8182C70.9411 70.2955 77.2195 68.5341 84.1797 68.5341C91.1683 68.5341 96.8786 70.2955 101.31 73.8182C105.771 77.3409 108.796 82.4545 110.387 89.1591C111.978 95.8352 111.978 103.932 110.387 113.449C108.796 122.966 106.097 131.105 102.29 137.866C98.5121 144.599 93.8104 149.756 88.1854 153.335C82.5888 156.886 76.2962 158.662 69.3075 158.662ZM71.5234 145.324C76.978 145.324 81.7223 142.625 85.7564 137.227C89.7905 131.83 92.6882 123.903 94.4496 113.449C95.6143 106.517 95.8558 100.693 95.174 95.9773C94.5206 91.2614 93.0717 87.7102 90.8274 85.3239C88.5831 82.9091 85.657 81.7017 82.049 81.7017C76.6229 81.7017 71.8786 84.4006 67.8161 89.7983C63.7536 95.1676 60.8558 103.051 59.1229 113.449C57.9581 120.437 57.7024 126.304 58.3558 131.048C59.0092 135.764 60.4581 139.33 62.7024 141.744C64.9467 144.131 67.8871 145.324 71.5234 145.324Z"/>
</mask>
<path d="M69.3075 158.662C62.2621 158.662 56.5234 156.886 52.0916 153.335C47.6598 149.756 44.6626 144.599 43.1001 137.866C41.5661 131.105 41.5945 122.966 43.1854 113.449C44.7479 103.932 47.4325 95.8352 51.2393 89.1591C55.0462 82.4545 59.7479 77.3409 65.3445 73.8182C70.9411 70.2955 77.2195 68.5341 84.1797 68.5341C91.1683 68.5341 96.8786 70.2955 101.31 73.8182C105.771 77.3409 108.796 82.4545 110.387 89.1591C111.978 95.8352 111.978 103.932 110.387 113.449C108.796 122.966 106.097 131.105 102.29 137.866C98.5121 144.599 93.8104 149.756 88.1854 153.335C82.5888 156.886 76.2962 158.662 69.3075 158.662ZM71.5234 145.324C76.978 145.324 81.7223 142.625 85.7564 137.227C89.7905 131.83 92.6882 123.903 94.4496 113.449C95.6143 106.517 95.8558 100.693 95.174 95.9773C94.5206 91.2614 93.0717 87.7102 90.8274 85.3239C88.5831 82.9091 85.657 81.7017 82.049 81.7017C76.6229 81.7017 71.8786 84.4006 67.8161 89.7983C63.7536 95.1676 60.8558 103.051 59.1229 113.449C57.9581 120.437 57.7024 126.304 58.3558 131.048C59.0092 135.764 60.4581 139.33 62.7024 141.744C64.9467 144.131 67.8871 145.324 71.5234 145.324Z" fill="black"/>
<path d="M52.0916 153.335L51.1491 154.502L51.1537 154.506L52.0916 153.335ZM43.1001 137.866L41.6373 138.198L41.639 138.206L43.1001 137.866ZM43.1854 113.449L44.6648 113.696L44.6656 113.692L43.1854 113.449ZM51.2393 89.1591L52.5424 89.9021L52.5437 89.8997L51.2393 89.1591ZM65.3445 73.8182L66.1435 75.0876L66.1435 75.0876L65.3445 73.8182ZM101.31 73.8182L100.377 74.9924L100.381 74.9953L101.31 73.8182ZM110.387 89.1591L108.928 89.5054L108.928 89.5068L110.387 89.1591ZM110.387 113.449L108.908 113.202L108.908 113.202L110.387 113.449ZM102.29 137.866L100.983 137.131L100.982 137.132L102.29 137.866ZM88.1854 153.335L88.989 154.602L88.9907 154.601L88.1854 153.335ZM94.4496 113.449L95.9287 113.698L95.9288 113.697L94.4496 113.449ZM95.174 95.9773L93.6882 96.1831L93.6894 96.1919L95.174 95.9773ZM90.8274 85.3239L89.7287 86.3451L89.7347 86.3515L90.8274 85.3239ZM67.8161 89.7983L69.0122 90.7033L69.0145 90.7003L67.8161 89.7983ZM59.1229 113.449L57.6433 113.202L57.6433 113.202L59.1229 113.449ZM58.3558 131.048L56.8699 131.253L56.87 131.254L58.3558 131.048ZM62.7024 141.744L61.6037 142.766L61.6097 142.772L62.7024 141.744ZM69.3075 157.162C62.5189 157.162 57.1363 155.455 53.0296 152.165L51.1537 154.506C55.9106 158.317 62.0052 160.162 69.3075 160.162V157.162ZM53.0341 152.168C48.9147 148.841 46.0648 144.006 44.5613 137.527L41.639 138.206C43.2605 145.193 46.4049 150.67 51.1491 154.502L53.0341 152.168ZM44.563 137.535C43.0854 131.022 43.0944 123.091 44.6648 113.696L41.7059 113.202C40.0946 122.841 40.0467 131.188 41.6373 138.198L44.563 137.535ZM44.6656 113.692C46.2062 104.308 48.8431 96.3896 52.5424 89.9021L49.9363 88.4161C46.0219 95.2808 43.2895 103.556 41.7052 113.206L44.6656 113.692ZM52.5437 89.8997C56.2487 83.3746 60.7887 78.4582 66.1435 75.0876L64.5454 72.5487C58.707 76.2237 53.8436 81.5345 49.9349 88.4185L52.5437 89.8997ZM66.1435 75.0876C71.488 71.7236 77.4867 70.0341 84.1797 70.0341V67.0341C76.9523 67.0341 70.3941 68.8673 64.5454 72.5487L66.1435 75.0876ZM84.1797 70.0341C90.9109 70.0341 96.2681 71.7263 100.377 74.9924L102.244 72.6439C97.489 68.8646 91.4257 67.0341 84.1797 67.0341V70.0341ZM100.381 74.9953C104.523 78.267 107.398 83.0575 108.928 89.5054L111.847 88.8128C110.195 81.8516 107.018 76.4148 102.24 72.641L100.381 74.9953ZM108.928 89.5068C110.458 95.9259 110.478 103.808 108.908 113.202L111.867 113.696C113.478 104.056 113.498 95.7446 111.846 88.8114L108.928 89.5068ZM108.908 113.202C107.339 122.587 104.687 130.553 100.983 137.131L103.598 138.602C107.508 131.658 110.254 123.345 111.867 113.696L108.908 113.202ZM100.982 137.132C97.3059 143.684 92.7653 148.643 87.3801 152.07L88.9907 154.601C94.8554 150.869 99.7183 145.515 103.599 138.601L100.982 137.132ZM87.3817 152.069C82.0388 155.459 76.0278 157.162 69.3075 157.162V160.162C76.5645 160.162 83.1388 158.314 88.989 154.602L87.3817 152.069ZM71.5234 146.824C77.5627 146.824 82.7149 143.802 86.9579 138.125L84.5549 136.329C80.7297 141.448 76.3933 143.824 71.5234 143.824V146.824ZM86.9579 138.125C91.1938 132.458 94.1482 124.266 95.9287 113.698L92.9704 113.2C91.2282 123.54 88.3872 131.202 84.5549 136.329L86.9579 138.125ZM95.9288 113.697C97.1083 106.678 97.3705 100.687 96.6586 95.7626L93.6894 96.1919C94.3412 100.7 94.1204 106.356 92.9703 113.2L95.9288 113.697ZM96.6598 95.7714C95.9822 90.881 94.4542 86.9907 91.9201 84.2962L89.7347 86.3515C91.6893 88.4297 93.059 91.6418 93.6882 96.1831L96.6598 95.7714ZM91.9261 84.3027C89.3695 81.5519 86.03 80.2017 82.049 80.2017V83.2017C85.2839 83.2017 87.7967 84.2663 89.7287 86.345L91.9261 84.3027ZM82.049 80.2017C76.0367 80.2017 70.8864 83.2244 66.6176 88.8963L69.0145 90.7003C72.8707 85.5767 77.209 83.2017 82.049 83.2017V80.2017ZM66.6199 88.8932C62.3512 94.5351 59.3957 102.688 57.6433 113.202L60.6025 113.695C62.3159 103.415 65.1559 95.8001 69.0122 90.7033L66.6199 88.8932ZM57.6433 113.202C56.4644 120.276 56.1885 126.306 56.8699 131.253L59.8418 130.844C59.2164 126.302 59.4518 120.599 60.6025 113.695L57.6433 113.202ZM56.87 131.254C57.5477 136.145 59.0754 140.045 61.6037 142.765L63.8011 140.723C61.8408 138.614 60.4707 135.383 59.8416 130.842L56.87 131.254ZM61.6097 142.772C64.1703 145.495 67.5237 146.824 71.5234 146.824V143.824C68.2505 143.824 65.7232 142.767 63.7951 140.717L61.6097 142.772Z" fill="#00FFBF" mask="url(#path-1-outside-1_960_1899)"/>
<mask id="path-3-outside-2_960_1899" maskUnits="userSpaceOnUse" x="1" y="70" width="46" height="91" fill="black">
<rect fill="white" x="1" y="70" width="46" height="91"/>
<path d="M44.6307 71.7273L30.142 159H14.3324L26.2642 87.1108H25.7528L3.16761 100.151L5.55398 85.6619L29.5881 71.7273H44.6307Z"/>
</mask>
<path d="M44.6307 71.7273L30.142 159H14.3324L26.2642 87.1108H25.7528L3.16761 100.151L5.55398 85.6619L29.5881 71.7273H44.6307Z" fill="black"/>
<path d="M44.6307 71.7273L46.1104 71.9729L46.4002 70.2273H44.6307V71.7273ZM30.142 159V160.5H31.4136L31.6218 159.246L30.142 159ZM14.3324 159L12.8526 158.754L12.5629 160.5H14.3324V159ZM26.2642 87.1108L27.744 87.3564L28.0337 85.6108H26.2642V87.1108ZM25.7528 87.1108V85.6108H25.3509L25.0028 85.8118L25.7528 87.1108ZM3.16761 100.151L1.68756 99.9068L1.17239 103.035L3.91762 101.45L3.16761 100.151ZM5.55398 85.6619L4.80161 84.3643L4.189 84.7194L4.07392 85.4182L5.55398 85.6619ZM29.5881 71.7273V70.2273H29.1847L28.8357 70.4296L29.5881 71.7273ZM43.1509 71.4816L28.6623 158.754L31.6218 159.246L46.1104 71.9729L43.1509 71.4816ZM30.142 157.5H14.3324V160.5H30.142V157.5ZM15.8121 159.246L27.744 87.3564L24.7844 86.8652L12.8526 158.754L15.8121 159.246ZM26.2642 85.6108H25.7528V88.6108H26.2642V85.6108ZM25.0028 85.8118L2.41761 98.8515L3.91762 101.45L26.5028 88.4098L25.0028 85.8118ZM4.64767 100.394L7.03404 85.9057L4.07392 85.4182L1.68756 99.9068L4.64767 100.394ZM6.30635 86.9596L30.3404 73.0249L28.8357 70.4296L4.80161 84.3643L6.30635 86.9596ZM29.5881 73.2273H44.6307V70.2273H29.5881V73.2273Z" fill="#00FFBF" mask="url(#path-3-outside-2_960_1899)"/>
</g>
<defs>
<clipPath id="clip0_960_1899">
<rect width="180" height="160" fill="white"/>
</clipPath>
</defs>
</svg>
