<svg width="180" height="160" viewBox="0 0 180 160" fill="none" xmlns="http://www.w3.org/2000/svg">
<g clip-path="url(#clip0_960_1879)">
<mask id="path-1-outside-1_960_1879" maskUnits="userSpaceOnUse" x="0" y="68" width="74" height="92" fill="black">
<rect fill="white" y="68" width="74" height="92"/>
<path d="M2.76989 158L4.6875 146.58L39.8864 116.878C43.267 113.952 46.108 111.352 48.4091 109.08C50.7386 106.778 52.571 104.577 53.9062 102.474C55.2415 100.344 56.108 98.071 56.5057 95.6562C56.9602 92.9006 56.733 90.5284 55.8239 88.5398C54.9148 86.5511 53.4659 85.0312 51.4773 83.9801C49.517 82.9006 47.1449 82.3608 44.3608 82.3608C41.4915 82.3608 38.8636 82.9574 36.4773 84.1506C34.0909 85.3153 32.1023 86.9915 30.5114 89.179C28.9489 91.3381 27.9261 93.8949 27.4432 96.8494H12.4006C13.3097 91.3097 15.3835 86.4943 18.6222 82.4034C21.8608 78.3125 25.9091 75.1449 30.767 72.9006C35.625 70.6562 40.9375 69.5341 46.7045 69.5341C52.5568 69.5341 57.5 70.6278 61.5341 72.8153C65.5966 75.0028 68.5227 78 70.3125 81.8068C72.1307 85.6136 72.6278 89.9602 71.804 94.8466C71.2358 98.1136 70.0568 101.324 68.267 104.477C66.5057 107.602 63.7358 111.097 59.9574 114.96C56.179 118.795 51.0085 123.44 44.446 128.895L26.9318 144.193L26.804 144.79H64.7727L62.5994 158H2.76989Z"/>
</mask>
<path d="M2.76989 158L4.6875 146.58L39.8864 116.878C43.267 113.952 46.108 111.352 48.4091 109.08C50.7386 106.778 52.571 104.577 53.9062 102.474C55.2415 100.344 56.108 98.071 56.5057 95.6562C56.9602 92.9006 56.733 90.5284 55.8239 88.5398C54.9148 86.5511 53.4659 85.0312 51.4773 83.9801C49.517 82.9006 47.1449 82.3608 44.3608 82.3608C41.4915 82.3608 38.8636 82.9574 36.4773 84.1506C34.0909 85.3153 32.1023 86.9915 30.5114 89.179C28.9489 91.3381 27.9261 93.8949 27.4432 96.8494H12.4006C13.3097 91.3097 15.3835 86.4943 18.6222 82.4034C21.8608 78.3125 25.9091 75.1449 30.767 72.9006C35.625 70.6562 40.9375 69.5341 46.7045 69.5341C52.5568 69.5341 57.5 70.6278 61.5341 72.8153C65.5966 75.0028 68.5227 78 70.3125 81.8068C72.1307 85.6136 72.6278 89.9602 71.804 94.8466C71.2358 98.1136 70.0568 101.324 68.267 104.477C66.5057 107.602 63.7358 111.097 59.9574 114.96C56.179 118.795 51.0085 123.44 44.446 128.895L26.9318 144.193L26.804 144.79H64.7727L62.5994 158H2.76989Z" fill="black"/>
<path d="M2.76989 158L1.29059 157.752L0.997022 159.5H2.76989V158ZM4.6875 146.58L3.72014 145.433L3.29938 145.788L3.20821 146.331L4.6875 146.58ZM39.8864 116.878L40.8537 118.024L40.8609 118.018L40.868 118.012L39.8864 116.878ZM48.4091 109.08L49.4631 110.147L49.4632 110.147L48.4091 109.08ZM53.9062 102.474L55.1725 103.279L55.1773 103.271L53.9062 102.474ZM56.5057 95.6562L55.0257 95.4121L55.0256 95.4125L56.5057 95.6562ZM51.4773 83.9801L50.7537 85.294L50.7649 85.3002L50.7763 85.3063L51.4773 83.9801ZM36.4773 84.1506L37.1352 85.4986L37.1417 85.4954L37.1481 85.4922L36.4773 84.1506ZM30.5114 89.179L29.2983 88.2967L29.2962 88.2996L30.5114 89.179ZM27.4432 96.8494V98.3494H28.7179L28.9235 97.0914L27.4432 96.8494ZM12.4006 96.8494L10.9204 96.6065L10.6344 98.3494H12.4006V96.8494ZM18.6222 82.4034L17.4461 81.4724L17.4461 81.4724L18.6222 82.4034ZM30.767 72.9006L31.3961 74.2623L31.3961 74.2623L30.767 72.9006ZM61.5341 72.8153L60.8191 74.134L60.8229 74.136L61.5341 72.8153ZM70.3125 81.8068L68.955 82.445L68.959 82.4533L70.3125 81.8068ZM71.804 94.8466L73.2818 95.1036L73.2831 95.096L71.804 94.8466ZM68.267 104.477L66.9625 103.737L66.9603 103.741L68.267 104.477ZM59.9574 114.96L61.0259 116.013L61.0298 116.009L59.9574 114.96ZM44.446 128.895L43.4872 127.741L43.4731 127.753L43.4592 127.765L44.446 128.895ZM26.9318 144.193L25.945 143.063L25.5696 143.391L25.4651 143.879L26.9318 144.193ZM26.804 144.79L25.3373 144.475L24.9485 146.29H26.804V144.79ZM64.7727 144.79L66.2528 145.033L66.5397 143.29H64.7727V144.79ZM62.5994 158V159.5H63.8728L64.0795 158.244L62.5994 158ZM4.24918 158.248L6.16679 146.828L3.20821 146.331L1.29059 157.752L4.24918 158.248ZM5.65486 147.726L40.8537 118.024L38.919 115.731L3.72014 145.433L5.65486 147.726ZM40.868 118.012C44.2649 115.072 47.1317 112.449 49.4631 110.147L47.355 108.012C45.0842 110.255 42.2691 112.832 38.9047 115.744L40.868 118.012ZM49.4632 110.147C51.8496 107.789 53.7612 105.501 55.1724 103.279L52.6401 101.67C51.3809 103.653 49.6277 105.767 47.355 108.012L49.4632 110.147ZM55.1773 103.271C56.6152 100.976 57.5548 98.5165 57.9857 95.9L55.0256 95.4125C54.6611 97.6255 53.8678 99.7111 52.6352 101.678L55.1773 103.271ZM57.9857 95.9004C58.4754 92.9316 58.2515 90.2424 57.1881 87.9161L54.4597 89.1634C55.2144 90.8144 55.4451 92.8695 55.0257 95.4121L57.9857 95.9004ZM57.1881 87.9161C56.1372 85.6174 54.4503 83.8549 52.1782 82.654L50.7763 85.3063C52.4815 86.2076 53.6923 87.4849 54.4597 89.1634L57.1881 87.9161ZM52.2009 82.6662C49.9712 81.4382 47.337 80.8608 44.3608 80.8608V83.8608C46.9527 83.8608 49.0629 84.3629 50.7537 85.294L52.2009 82.6662ZM44.3608 80.8608C41.2766 80.8608 38.4166 81.5039 35.8065 82.8089L37.1481 85.4922C39.3107 84.4109 41.7064 83.8608 44.3608 83.8608V80.8608ZM35.8193 82.8026C33.2084 84.0769 31.0306 85.9148 29.2983 88.2967L31.7245 90.0612C33.174 88.0682 34.9734 86.5537 37.1352 85.4986L35.8193 82.8026ZM29.2962 88.2996C27.5809 90.6698 26.4787 93.4514 25.9628 96.6075L28.9235 97.0914C29.3735 94.3384 30.3169 92.0063 31.7265 90.0584L29.2962 88.2996ZM27.4432 95.3494H12.4006V98.3494H27.4432V95.3494ZM13.8808 97.0923C14.7518 91.7844 16.7297 87.2105 19.7982 83.3345L17.4461 81.4724C14.0373 85.7782 11.8675 90.8349 10.9204 96.6065L13.8808 97.0923ZM19.7982 83.3345C22.887 79.4328 26.7461 76.4105 31.3961 74.2623L30.138 71.5389C25.0721 73.8792 20.8346 77.1921 17.4461 81.4724L19.7982 83.3345ZM31.3961 74.2623C36.0419 72.116 41.1376 71.0341 46.7045 71.0341V68.0341C40.7374 68.0341 35.2081 69.1965 30.138 71.5389L31.3961 74.2623ZM46.7045 71.0341C52.3742 71.0341 57.0568 72.0938 60.8191 74.134L62.2491 71.4967C57.9432 69.1618 52.7394 68.0341 46.7045 68.0341V71.0341ZM60.8229 74.136C64.6314 76.1867 67.3154 78.9574 68.955 82.445L71.67 81.1686C69.7301 77.0426 66.5618 73.8189 62.2452 71.4946L60.8229 74.136ZM68.959 82.4533C70.6221 85.9354 71.1066 89.9606 70.3249 94.5972L73.2831 95.096C74.1491 89.9598 73.6393 85.2919 71.666 81.1603L68.959 82.4533ZM70.3262 94.5896C69.7902 97.6716 68.6751 100.719 66.9625 103.737L69.5716 105.218C71.4385 101.928 72.6814 98.5557 73.2818 95.1036L70.3262 94.5896ZM66.9603 103.741C65.2867 106.71 62.6132 110.099 58.885 113.911L61.0298 116.009C64.8584 112.094 67.7246 108.495 69.5738 105.214L66.9603 103.741ZM58.8888 113.908C55.1593 117.693 50.0308 122.303 43.4872 127.741L45.4048 130.048C51.9863 124.578 57.1986 119.898 61.0259 116.013L58.8888 113.908ZM43.4592 127.765L25.945 143.063L27.9186 145.323L45.4328 130.025L43.4592 127.765ZM25.4651 143.879L25.3373 144.475L28.2707 145.104L28.3985 144.507L25.4651 143.879ZM26.804 146.29H64.7727V143.29H26.804V146.29ZM63.2926 144.546L61.1193 157.756L64.0795 158.244L66.2528 145.033L63.2926 144.546ZM62.5994 156.5H2.76989V159.5H62.5994V156.5Z" fill="#00FFBF" mask="url(#path-1-outside-1_960_1879)"/>
</g>
<defs>
<clipPath id="clip0_960_1879">
<rect width="180" height="160" fill="white"/>
</clipPath>
</defs>
</svg>
