<svg width="180" height="160" viewBox="0 0 180 160" fill="none" xmlns="http://www.w3.org/2000/svg">
<g clip-path="url(#clip0_960_1889)">
<mask id="path-1-outside-1_960_1889" maskUnits="userSpaceOnUse" x="2" y="67" width="73" height="93" fill="black">
<rect fill="white" x="2" y="67" width="73" height="93"/>
<path d="M32.0881 158.193C27.7983 158.165 23.7358 157.412 19.9006 155.935C16.0938 154.457 12.8409 152.057 10.142 148.733C7.44318 145.381 5.58239 140.935 4.55966 135.395C3.56534 129.855 3.75 123.037 5.11364 114.94C6.36364 107.554 8.23864 101.006 10.7386 95.2955C13.2386 89.5568 16.2784 84.6989 19.858 80.7216C23.4375 76.7159 27.4574 73.6903 31.9176 71.6449C36.3778 69.571 41.1932 68.5341 46.3636 68.5341C51.8466 68.5341 56.5767 69.6136 60.554 71.7727C64.5312 73.9034 67.5568 76.8295 69.6307 80.5511C71.733 84.2443 72.7131 88.4489 72.571 93.1648H57.3153C57.2301 89.7841 56.179 87.1136 54.1619 85.1534C52.1449 83.1932 49.2614 82.2131 45.5114 82.2131C39.4034 82.2131 34.1761 84.8551 29.8295 90.1392C25.483 95.3949 22.4716 102.767 20.7955 112.256L21.4773 111.361C23.2955 108.861 25.4261 106.744 27.8693 105.011C30.3125 103.278 32.9545 101.957 35.7955 101.048C38.6648 100.139 41.6193 99.6847 44.6591 99.6847C49.9148 99.6847 54.4318 100.963 58.2102 103.52C61.9886 106.048 64.7301 109.514 66.4347 113.918C68.1676 118.321 68.5511 123.349 67.5852 129.003C66.6477 134.599 64.5313 139.614 61.2358 144.045C57.9688 148.449 53.8352 151.915 48.8352 154.443C43.8352 156.972 38.2528 158.222 32.0881 158.193ZM32.642 145.409C35.8239 145.409 38.821 144.628 41.6335 143.065C44.4744 141.474 46.8608 139.33 48.7926 136.631C50.7528 133.932 51.9886 130.92 52.5 127.597C52.9545 124.614 52.7273 121.929 51.8182 119.543C50.9091 117.128 49.4318 115.224 47.3864 113.832C45.3409 112.44 42.8267 111.744 39.8438 111.744C37.4574 111.744 35.142 112.213 32.8977 113.151C30.6534 114.088 28.608 115.381 26.7614 117.028C24.9432 118.648 23.4233 120.523 22.2017 122.653C20.9801 124.784 20.1705 127.057 19.7727 129.472C19.3182 132.398 19.5455 135.068 20.4545 137.483C21.392 139.869 22.8977 141.787 24.9716 143.236C27.0739 144.685 29.6307 145.409 32.642 145.409Z"/>
</mask>
<path d="M32.0881 158.193C27.7983 158.165 23.7358 157.412 19.9006 155.935C16.0938 154.457 12.8409 152.057 10.142 148.733C7.44318 145.381 5.58239 140.935 4.55966 135.395C3.56534 129.855 3.75 123.037 5.11364 114.94C6.36364 107.554 8.23864 101.006 10.7386 95.2955C13.2386 89.5568 16.2784 84.6989 19.858 80.7216C23.4375 76.7159 27.4574 73.6903 31.9176 71.6449C36.3778 69.571 41.1932 68.5341 46.3636 68.5341C51.8466 68.5341 56.5767 69.6136 60.554 71.7727C64.5312 73.9034 67.5568 76.8295 69.6307 80.5511C71.733 84.2443 72.7131 88.4489 72.571 93.1648H57.3153C57.2301 89.7841 56.179 87.1136 54.1619 85.1534C52.1449 83.1932 49.2614 82.2131 45.5114 82.2131C39.4034 82.2131 34.1761 84.8551 29.8295 90.1392C25.483 95.3949 22.4716 102.767 20.7955 112.256L21.4773 111.361C23.2955 108.861 25.4261 106.744 27.8693 105.011C30.3125 103.278 32.9545 101.957 35.7955 101.048C38.6648 100.139 41.6193 99.6847 44.6591 99.6847C49.9148 99.6847 54.4318 100.963 58.2102 103.52C61.9886 106.048 64.7301 109.514 66.4347 113.918C68.1676 118.321 68.5511 123.349 67.5852 129.003C66.6477 134.599 64.5313 139.614 61.2358 144.045C57.9688 148.449 53.8352 151.915 48.8352 154.443C43.8352 156.972 38.2528 158.222 32.0881 158.193ZM32.642 145.409C35.8239 145.409 38.821 144.628 41.6335 143.065C44.4744 141.474 46.8608 139.33 48.7926 136.631C50.7528 133.932 51.9886 130.92 52.5 127.597C52.9545 124.614 52.7273 121.929 51.8182 119.543C50.9091 117.128 49.4318 115.224 47.3864 113.832C45.3409 112.44 42.8267 111.744 39.8438 111.744C37.4574 111.744 35.142 112.213 32.8977 113.151C30.6534 114.088 28.608 115.381 26.7614 117.028C24.9432 118.648 23.4233 120.523 22.2017 122.653C20.9801 124.784 20.1705 127.057 19.7727 129.472C19.3182 132.398 19.5455 135.068 20.4545 137.483C21.392 139.869 22.8977 141.787 24.9716 143.236C27.0739 144.685 29.6307 145.409 32.642 145.409Z" fill="black"/>
<path d="M32.0881 158.193L32.0781 159.693L32.0812 159.693L32.0881 158.193ZM19.9006 155.935L19.3579 157.333L19.3614 157.334L19.9006 155.935ZM10.142 148.733L8.97364 149.674L8.97757 149.678L10.142 148.733ZM4.55966 135.395L3.08323 135.66L3.08459 135.667L4.55966 135.395ZM5.11364 114.94L3.63467 114.69L3.63447 114.691L5.11364 114.94ZM10.7386 95.2955L12.1127 95.897L12.1138 95.8945L10.7386 95.2955ZM19.858 80.7216L20.9729 81.725L20.9764 81.7211L19.858 80.7216ZM31.9176 71.6449L32.5429 73.0084L32.55 73.005L31.9176 71.6449ZM60.554 71.7727L59.8383 73.091L59.8456 73.0949L60.554 71.7727ZM69.6307 80.5511L68.3203 81.2813L68.3271 81.2932L69.6307 80.5511ZM72.571 93.1648V94.6648H74.0265L74.0703 93.2099L72.571 93.1648ZM57.3153 93.1648L55.8158 93.2026L55.8527 94.6648H57.3153V93.1648ZM54.1619 85.1534L55.2073 84.0777L55.2073 84.0777L54.1619 85.1534ZM29.8295 90.1392L30.9855 91.0952L30.988 91.0921L29.8295 90.1392ZM20.7955 112.256L19.3183 111.995L21.9886 113.165L20.7955 112.256ZM21.4773 111.361L22.6704 112.27L22.6805 112.257L22.6904 112.243L21.4773 111.361ZM27.8693 105.011L27.0015 103.788L27.0015 103.788L27.8693 105.011ZM35.7955 101.048L35.3424 99.6183L35.3383 99.6197L35.7955 101.048ZM58.2102 103.52L57.3696 104.762L57.376 104.767L58.2102 103.52ZM66.4347 113.918L65.0358 114.459L65.0389 114.467L66.4347 113.918ZM67.5852 129.003L66.1066 128.75L66.1058 128.755L67.5852 129.003ZM61.2358 144.045L60.0321 143.15L60.0312 143.152L61.2358 144.045ZM48.8352 154.443L49.5121 155.782L48.8352 154.443ZM41.6335 143.065L42.362 144.377L42.3664 144.374L41.6335 143.065ZM48.7926 136.631L47.5789 135.749L47.5729 135.758L48.7926 136.631ZM52.5 127.597L53.9826 127.825L53.9829 127.823L52.5 127.597ZM51.8182 119.543L50.4144 120.071L50.4165 120.077L51.8182 119.543ZM32.8977 113.151L33.4759 114.535L33.4759 114.535L32.8977 113.151ZM26.7614 117.028L27.759 118.149L27.76 118.148L26.7614 117.028ZM22.2017 122.653L23.503 123.399L23.503 123.399L22.2017 122.653ZM19.7727 129.472L18.2926 129.228L18.2905 129.241L19.7727 129.472ZM20.4545 137.483L19.0507 138.011L19.0545 138.021L19.0584 138.031L20.4545 137.483ZM24.9716 143.236L24.1125 144.465L24.1204 144.471L24.9716 143.236ZM32.098 156.693C27.9812 156.666 24.0987 155.944 20.4397 154.535L19.3614 157.334C23.3729 158.88 27.6154 159.664 32.0781 159.693L32.098 156.693ZM20.4432 154.536C16.8915 153.158 13.8493 150.919 11.3065 147.787L8.97757 149.678C11.8325 153.195 15.296 155.757 19.3579 157.333L20.4432 154.536ZM11.3104 147.792C8.80849 144.685 7.02578 140.491 6.03473 135.123L3.08459 135.667C4.13899 141.379 6.07787 146.077 8.97365 149.674L11.3104 147.792ZM6.03607 135.13C5.0828 129.819 5.24588 123.187 6.5928 115.189L3.63447 114.691C2.25412 122.887 2.04788 129.891 3.08325 135.66L6.03607 135.13ZM6.59261 115.191C7.82611 107.902 9.67061 101.475 12.1127 95.897L9.36456 94.6939C6.80666 100.536 4.90117 107.206 3.63467 114.69L6.59261 115.191ZM12.1138 95.8945C14.5601 90.2793 17.5178 85.564 20.9729 81.725L18.743 79.7181C15.039 83.8337 11.9172 88.8344 9.36347 94.6964L12.1138 95.8945ZM20.9764 81.7211C24.4315 77.8547 28.2875 74.9599 32.5429 73.0083L31.2923 70.2814C26.6273 72.4208 22.4435 75.5771 18.7395 79.7221L20.9764 81.7211ZM32.55 73.005C36.802 71.028 41.4002 70.0341 46.3636 70.0341V67.0341C40.9861 67.0341 35.9536 68.114 31.2852 70.2847L32.55 73.005ZM46.3636 70.0341C51.6491 70.0341 56.1227 71.0739 59.8383 73.091L61.2696 70.4544C57.0307 68.1533 52.044 67.0341 46.3636 67.0341V70.0341ZM59.8456 73.0949C63.5854 75.0984 66.3948 77.8257 68.3204 81.2813L70.941 79.821C68.7189 75.8334 65.4771 72.7084 61.2623 70.4505L59.8456 73.0949ZM68.3271 81.2932C70.2784 84.7211 71.2064 88.6478 71.0717 93.1196L74.0703 93.2099C74.2197 88.2499 73.1875 83.7675 70.9343 79.8091L68.3271 81.2932ZM72.571 91.6648H57.3153V94.6648H72.571V91.6648ZM58.8149 93.127C58.7219 89.4388 57.5609 86.365 55.2073 84.0777L53.1165 86.2291C54.797 87.8623 55.7383 90.1294 55.8158 93.2026L58.8149 93.127ZM55.2073 84.0777C52.8271 81.7645 49.5179 80.7131 45.5114 80.7131V83.7131C49.0048 83.7131 51.4627 84.6218 53.1165 86.2291L55.2073 84.0777ZM45.5114 80.7131C38.8974 80.7131 33.264 83.6028 28.6711 89.1863L30.988 91.0921C35.0883 86.1074 39.9094 83.7131 45.5114 83.7131V80.7131ZM28.6736 89.1832C24.1073 94.7047 21.022 102.35 19.3183 111.995L22.2726 112.517C23.9212 103.184 26.8587 96.0851 30.9855 91.0952L28.6736 89.1832ZM21.9886 113.165L22.6704 112.27L20.2841 110.452L19.6023 111.347L21.9886 113.165ZM22.6904 112.243C24.4159 109.871 26.431 107.871 28.7371 106.235L27.0015 103.788C24.4212 105.618 22.1751 107.851 20.2642 110.479L22.6904 112.243ZM28.7371 106.235C31.0553 104.591 33.5589 103.339 36.2526 102.477L35.3383 99.6197C32.3502 100.576 29.5697 101.966 27.0015 103.788L28.7371 106.235ZM36.2485 102.478C38.9698 101.616 41.7715 101.185 44.6591 101.185V98.1847C41.4672 98.1847 38.3597 98.6624 35.3424 99.6183L36.2485 102.478ZM44.6591 101.185C49.662 101.185 53.8755 102.398 57.3696 104.762L59.0509 102.278C54.9881 99.5283 50.1676 98.1847 44.6591 98.1847V101.185ZM57.376 104.767C60.8879 107.117 63.438 110.331 65.0358 114.459L67.8335 113.376C66.0223 108.697 63.0894 104.98 59.0444 102.273L57.376 104.767ZM65.0389 114.467C66.6522 118.566 67.0363 123.309 66.1067 128.75L69.0638 129.255C70.066 123.39 69.683 118.076 67.8305 113.368L65.0389 114.467ZM66.1058 128.755C65.2065 134.124 63.1817 138.915 60.0321 143.15L62.4395 144.941C65.8808 140.312 68.0889 135.075 69.0646 129.251L66.1058 128.755ZM60.0312 143.152C56.9062 147.364 52.9549 150.679 48.1583 153.105L49.5121 155.782C54.7155 153.151 59.0313 149.534 62.4404 144.939L60.0312 143.152ZM48.1583 153.105C43.3909 155.515 38.0465 156.721 32.095 156.693L32.0812 159.693C38.4592 159.723 44.2796 158.428 49.5121 155.782L48.1583 153.105ZM32.642 146.909C36.0817 146.909 39.3293 146.061 42.362 144.377L40.9051 141.754C38.3128 143.194 35.566 143.909 32.642 143.909V146.909ZM42.3664 144.374C45.4035 142.673 47.9548 140.378 50.0123 137.504L47.5729 135.758C45.7668 138.281 43.5454 140.275 40.9006 141.757L42.3664 144.374ZM50.0063 137.512C52.1081 134.618 53.4352 131.383 53.9826 127.825L51.0174 127.369C50.5421 130.458 49.3976 133.245 47.579 135.749L50.0063 137.512ZM53.9829 127.823C54.4693 124.63 54.2367 121.678 53.2199 119.009L50.4165 120.077C51.2179 122.18 51.4398 124.597 51.0171 127.371L53.9829 127.823ZM53.222 119.014C52.209 116.323 50.5426 114.166 48.2303 112.592L46.5424 115.072C48.321 116.283 49.6092 117.932 50.4144 120.071L53.222 119.014ZM48.2303 112.592C45.8886 110.999 43.0649 110.244 39.8438 110.244V113.244C42.5885 113.244 44.7932 113.882 46.5424 115.072L48.2303 112.592ZM39.8438 110.244C37.255 110.244 34.7434 110.754 32.3196 111.766L33.4759 114.535C35.5407 113.672 37.6598 113.244 39.8438 113.244V110.244ZM32.3196 111.766C29.9186 112.769 27.7315 114.152 25.7627 115.909L27.76 118.148C29.4844 116.609 31.3882 115.407 33.4759 114.535L32.3196 111.766ZM25.7637 115.908C23.8238 117.636 22.2017 119.638 20.9004 121.907L23.503 123.399C24.6449 121.408 26.0626 119.659 27.759 118.149L25.7637 115.908ZM20.9004 121.907C19.59 124.193 18.7196 126.636 18.2927 129.228L21.2528 129.715C21.6213 127.478 22.3702 125.375 23.503 123.399L20.9004 121.907ZM18.2905 129.241C17.8022 132.385 18.0378 135.321 19.0507 138.011L21.8584 136.954C21.0531 134.815 20.8342 132.411 21.255 129.702L18.2905 129.241ZM19.0584 138.031C20.1024 140.689 21.793 142.845 24.1125 144.465L25.8307 142.006C24.0024 140.729 22.6817 139.05 21.8507 136.934L19.0584 138.031ZM24.1204 144.471C26.5154 146.121 29.3825 146.909 32.642 146.909V143.909C29.8788 143.909 27.6324 143.248 25.8228 142.001L24.1204 144.471Z" fill="#00FFBF" mask="url(#path-1-outside-1_960_1889)"/>
</g>
<defs>
<clipPath id="clip0_960_1889">
<rect width="180" height="160" fill="white"/>
</clipPath>
</defs>
</svg>
