<svg width="180" height="160" viewBox="0 0 180 160" fill="none" xmlns="http://www.w3.org/2000/svg">
<g clip-path="url(#clip0_960_1854)">
<mask id="path-1-outside-1_960_1854" maskUnits="userSpaceOnUse" x="7" y="69" width="73" height="91" fill="black">
<rect fill="white" x="7" y="69" width="73" height="91"/>
<path d="M10.0675 158L59.3715 84.5341L59.5419 83.9375H16.4169L18.5902 70.7273H78.0362L75.7777 84.2358L26.4737 158H10.0675Z"/>
</mask>
<path d="M10.0675 158L59.3715 84.5341L59.5419 83.9375H16.4169L18.5902 70.7273H78.0362L75.7777 84.2358L26.4737 158H10.0675Z" fill="black"/>
<path d="M10.0675 158L8.82196 157.164L7.25432 159.5H10.0675V158ZM59.3715 84.5341L60.617 85.37L60.7488 85.1736L60.8137 84.9462L59.3715 84.5341ZM59.5419 83.9375L60.9842 84.3496L61.5305 82.4375H59.5419V83.9375ZM16.4169 83.9375L14.9368 83.694L14.65 85.4375H16.4169V83.9375ZM18.5902 70.7273V69.2273H17.3168L17.1101 70.4838L18.5902 70.7273ZM78.0362 70.7273L79.5157 70.9746L79.8078 69.2273H78.0362V70.7273ZM75.7777 84.2358L77.0248 85.0693L77.204 84.8012L77.2572 84.4831L75.7777 84.2358ZM26.4737 158V159.5H27.2753L27.7208 158.834L26.4737 158ZM11.313 158.836L60.617 85.37L58.1259 83.6982L8.82196 157.164L11.313 158.836ZM60.8137 84.9462L60.9842 84.3496L58.0996 83.5254L57.9292 84.122L60.8137 84.9462ZM59.5419 82.4375H16.4169V85.4375H59.5419V82.4375ZM17.897 84.181L20.0703 70.9708L17.1101 70.4838L14.9368 83.694L17.897 84.181ZM18.5902 72.2273H78.0362V69.2273H18.5902V72.2273ZM76.5568 70.4799L74.2982 83.9884L77.2572 84.4831L79.5157 70.9746L76.5568 70.4799ZM74.5306 83.4022L25.2266 157.166L27.7208 158.834L77.0248 85.0693L74.5306 83.4022ZM26.4737 156.5H10.0675V159.5H26.4737V156.5Z" fill="#00FFBF" mask="url(#path-1-outside-1_960_1854)"/>
</g>
<defs>
<clipPath id="clip0_960_1854">
<rect width="180" height="160" fill="white"/>
</clipPath>
</defs>
</svg>
