<svg width="42" height="42" viewBox="0 0 42 42" fill="none" xmlns="http://www.w3.org/2000/svg">
<path fill-rule="evenodd" clip-rule="evenodd" d="M41 42H6.9965C3.13222 42 0 38.8246 0 34.9075V0L41 42Z" fill="url(#paint0_linear_971_2642)"/>
<path fill-rule="evenodd" clip-rule="evenodd" d="M41 42H6.9965C3.13222 42 0 38.8246 0 34.9075V0L41 42Z" fill="url(#paint1_linear_971_2642)"/>
<path d="M3.23899 22.9375V22.1818H7.74183V22.9375H5.92649V28H5.05149V22.9375H3.23899ZM13.5408 25.0909C13.5408 25.7121 13.4272 26.2462 13.1999 26.6932C12.9727 27.1383 12.6611 27.4811 12.2653 27.7216C11.8713 27.9602 11.4234 28.0795 10.9215 28.0795C10.4177 28.0795 9.96792 27.9602 9.57209 27.7216C9.17815 27.4811 8.86754 27.1373 8.64027 26.6903C8.413 26.2434 8.29936 25.7102 8.29936 25.0909C8.29936 24.4697 8.413 23.9366 8.64027 23.4915C8.86754 23.0445 9.17815 22.7017 9.57209 22.4631C9.96792 22.2225 10.4177 22.1023 10.9215 22.1023C11.4234 22.1023 11.8713 22.2225 12.2653 22.4631C12.6611 22.7017 12.9727 23.0445 13.1999 23.4915C13.4272 23.9366 13.5408 24.4697 13.5408 25.0909ZM12.6715 25.0909C12.6715 24.6174 12.5948 24.2187 12.4414 23.8949C12.2899 23.5691 12.0816 23.3229 11.8164 23.1562C11.5531 22.9877 11.2549 22.9034 10.9215 22.9034C10.5863 22.9034 10.2871 22.9877 10.0238 23.1562C9.76054 23.3229 9.5522 23.5691 9.39879 23.8949C9.24728 24.2187 9.17152 24.6174 9.17152 25.0909C9.17152 25.5644 9.24728 25.964 9.39879 26.2898C9.5522 26.6136 9.76054 26.8598 10.0238 27.0284C10.2871 27.1951 10.5863 27.2784 10.9215 27.2784C11.2549 27.2784 11.5531 27.1951 11.8164 27.0284C12.0816 26.8598 12.2899 26.6136 12.4414 26.2898C12.5948 25.964 12.6715 25.5644 12.6715 25.0909ZM14.6353 28V22.1818H16.7092C17.1618 22.1818 17.5368 22.2642 17.8342 22.429C18.1315 22.5937 18.354 22.8191 18.5018 23.1051C18.6495 23.3892 18.7234 23.7093 18.7234 24.0653C18.7234 24.4233 18.6486 24.7453 18.4989 25.0312C18.3512 25.3153 18.1277 25.5407 17.8285 25.7074C17.5311 25.8722 17.1571 25.9545 16.7063 25.9545H15.2802V25.2102H16.6268C16.9128 25.2102 17.1448 25.161 17.3228 25.0625C17.5008 24.9621 17.6315 24.8258 17.7148 24.6534C17.7982 24.4811 17.8398 24.285 17.8398 24.0653C17.8398 23.8456 17.7982 23.6506 17.7148 23.4801C17.6315 23.3097 17.4999 23.1761 17.32 23.0795C17.1419 22.983 16.9071 22.9347 16.6154 22.9347H15.5131V28H14.6353Z" fill="white"/>
<path d="M12.9315 29.2727V38H11.4059V30.7642H11.3548L9.30504 32.081V30.6747L11.4741 29.2727H12.9315ZM18.3743 38.1619C17.6783 38.1619 17.0817 37.9844 16.5845 37.6293C16.0902 37.2713 15.7095 36.7557 15.4425 36.0824C15.1783 35.4091 15.0462 34.5952 15.0462 33.6406C15.049 32.6918 15.1825 31.8835 15.4467 31.2159C15.7138 30.5455 16.0945 30.0341 16.5888 29.6818C17.0859 29.3295 17.6811 29.1534 18.3743 29.1534C19.0675 29.1534 19.6626 29.3295 20.1598 29.6818C20.657 30.0341 21.0376 30.5455 21.3018 31.2159C21.5689 31.8864 21.7024 32.6946 21.7024 33.6406C21.7024 34.5952 21.5689 35.4105 21.3018 36.0866C21.0376 36.7599 20.657 37.2741 20.1598 37.6293C19.6655 37.9844 19.0703 38.1619 18.3743 38.1619ZM18.3743 36.8707C18.9283 36.8707 19.3658 36.598 19.6868 36.0526C20.0078 35.5043 20.1669 34.7003 20.1641 33.6406C20.1641 32.9418 20.0916 32.3537 19.9467 31.8764C19.8018 31.3991 19.5945 31.0384 19.3246 30.794C19.0575 30.5497 18.7408 30.4276 18.3743 30.4276C17.8232 30.4276 17.3871 30.7017 17.0661 31.25C16.745 31.7955 16.5845 32.5923 16.5845 33.6406C16.5817 34.3452 16.6527 34.9375 16.7976 35.4176C16.9425 35.8977 17.1484 36.2599 17.4155 36.5043C17.6854 36.7486 18.005 36.8707 18.3743 36.8707Z" fill="white"/>
<defs>
<linearGradient id="paint0_linear_971_2642" x1="35.995" y1="81.4218" x2="-23.706" y2="23.142" gradientUnits="userSpaceOnUse">
<stop stop-color="#00FFBF" stop-opacity="0.7"/>
<stop offset="1" stop-color="#005E92"/>
</linearGradient>
<linearGradient id="paint1_linear_971_2642" x1="35.995" y1="81.4218" x2="-23.706" y2="23.142" gradientUnits="userSpaceOnUse">
<stop stop-color="#00FFBF" stop-opacity="0.7"/>
<stop offset="1" stop-color="#005E92"/>
</linearGradient>
</defs>
</svg>
