<svg width="180" height="160" viewBox="0 0 180 160" fill="none" xmlns="http://www.w3.org/2000/svg">
<mask id="path-1-outside-1_960_1884" maskUnits="userSpaceOnUse" x="1" y="69" width="75" height="91" fill="black">
<rect fill="white" x="1" y="69" width="75" height="91"/>
<path d="M3.52983 141.807L5.57528 129.236L52.3224 70.7273H62.8054L59.8224 88.625H53.473L21.9389 128.128L21.8537 128.81H73.5867L71.4134 141.807H3.52983ZM42.4361 158L45.7599 137.929L46.9105 132.347L57.0952 70.7273H72.0099L57.5213 158H42.4361Z"/>
</mask>
<path d="M3.52983 141.807L5.57528 129.236L52.3224 70.7273H62.8054L59.8224 88.625H53.473L21.9389 128.128L21.8537 128.81H73.5867L71.4134 141.807H3.52983ZM42.4361 158L45.7599 137.929L46.9105 132.347L57.0952 70.7273H72.0099L57.5213 158H42.4361Z" fill="black"/>
<path d="M3.52983 141.807L2.0493 141.566L1.76604 143.307H3.52983V141.807ZM5.57528 129.236L4.4034 128.299L4.15791 128.607L4.09475 128.995L5.57528 129.236ZM52.3224 70.7273V69.2273H51.6009L51.1506 69.791L52.3224 70.7273ZM62.8054 70.7273L64.285 70.9739L64.5761 69.2273H62.8054V70.7273ZM59.8224 88.625V90.125H61.0931L61.302 88.8716L59.8224 88.625ZM53.473 88.625V87.125H52.7511L52.3007 87.6892L53.473 88.625ZM21.9389 128.128L20.7666 127.192L20.5029 127.522L20.4505 127.942L21.9389 128.128ZM21.8537 128.81L20.3653 128.624L20.1545 130.31H21.8537V128.81ZM73.5867 128.81L75.0661 129.057L75.3583 127.31H73.5867V128.81ZM71.4134 141.807V143.307H72.6834L72.8928 142.054L71.4134 141.807ZM42.4361 158L40.9562 157.755L40.6672 159.5H42.4361V158ZM45.7599 137.929L44.2908 137.626L44.2849 137.655L44.2801 137.684L45.7599 137.929ZM46.9105 132.347L48.3796 132.649L48.3856 132.62L48.3904 132.591L46.9105 132.347ZM57.0952 70.7273V69.2273H55.8227L55.6153 70.4827L57.0952 70.7273ZM72.0099 70.7273L73.4897 70.9729L73.7795 69.2273H72.0099V70.7273ZM57.5213 158V159.5H58.7928L59.0011 158.246L57.5213 158ZM5.01036 142.048L7.05581 129.477L4.09475 128.995L2.0493 141.566L5.01036 142.048ZM6.74717 130.172L53.4943 71.6636L51.1506 69.791L4.4034 128.299L6.74717 130.172ZM52.3224 72.2273H62.8054V69.2273H52.3224V72.2273ZM61.3258 70.4807L58.3429 88.3784L61.302 88.8716L64.285 70.9739L61.3258 70.4807ZM59.8224 87.125H53.473V90.125H59.8224V87.125ZM52.3007 87.6892L20.7666 127.192L23.1112 129.064L54.6453 89.5608L52.3007 87.6892ZM20.4505 127.942L20.3653 128.624L23.3421 128.996L23.4273 128.314L20.4505 127.942ZM21.8537 130.31H73.5867V127.31H21.8537V130.31ZM72.1072 128.562L69.9339 141.559L72.8928 142.054L75.0661 129.057L72.1072 128.562ZM71.4134 140.307H3.52983V143.307H71.4134V140.307ZM43.9159 158.245L47.2398 138.174L44.2801 137.684L40.9562 157.755L43.9159 158.245ZM47.2291 138.232L48.3796 132.649L45.4414 132.044L44.2908 137.626L47.2291 138.232ZM48.3904 132.591L58.5751 70.9719L55.6153 70.4827L45.4306 132.102L48.3904 132.591ZM57.0952 72.2273H72.0099V69.2273H57.0952V72.2273ZM70.5302 70.4816L56.0416 157.754L59.0011 158.246L73.4897 70.9729L70.5302 70.4816ZM57.5213 156.5H42.4361V159.5H57.5213V156.5Z" fill="#00FFBF" mask="url(#path-1-outside-1_960_1884)"/>
</svg>
