<svg width="180" height="160" viewBox="0 0 180 160" fill="none" xmlns="http://www.w3.org/2000/svg">
<g clip-path="url(#clip0_960_1844)">
<mask id="path-1-outside-1_960_1844" maskUnits="userSpaceOnUse" x="0" y="67" width="72" height="93" fill="black">
<rect fill="white" y="67" width="72" height="93"/>
<path d="M31.0547 158.193C24.8047 158.193 19.407 157.142 14.8615 155.04C10.3445 152.937 6.99219 150.026 4.80469 146.304C2.61719 142.554 1.89276 138.207 2.63139 133.264H18.3984C18.1143 135.622 18.4837 137.682 19.5064 139.443C20.5575 141.176 22.1342 142.526 24.2365 143.491C26.3388 144.457 28.8246 144.94 31.6939 144.94C34.8757 144.94 37.8303 144.358 40.5575 143.193C43.2848 142.028 45.5575 140.395 47.3757 138.293C49.1939 136.19 50.3161 133.776 50.7422 131.048C51.1399 128.491 50.8132 126.276 49.7621 124.401C48.7109 122.526 46.9922 121.077 44.6058 120.054C42.2479 119.031 39.2507 118.52 35.6143 118.52H27.5604L29.5632 106.332H36.8928C39.9325 106.332 42.7166 105.764 45.245 104.628C47.8018 103.491 49.9325 101.901 51.6371 99.8551C53.3416 97.8097 54.407 95.4375 54.8331 92.7386C55.2308 90.4375 55.0604 88.4489 54.3217 86.7727C53.6115 85.0682 52.3757 83.7472 50.6143 82.8097C48.8814 81.8437 46.6513 81.3608 43.924 81.3608C41.1967 81.3608 38.5405 81.8437 35.9553 82.8097C33.3984 83.7756 31.2251 85.1534 29.4354 86.9432C27.6456 88.7045 26.5376 90.8068 26.1115 93.25H10.9837C11.8643 88.392 13.924 84.1165 17.1626 80.4233C20.4297 76.7017 24.4496 73.7898 29.2223 71.6875C34.0234 69.5852 39.1797 68.5341 44.6911 68.5341C50.657 68.5341 55.6286 69.6989 59.6058 72.0284C63.6115 74.358 66.5092 77.4261 68.299 81.233C70.1172 85.0398 70.657 89.1591 69.9183 93.5909C69.1229 98.5341 67.0064 102.54 63.5689 105.608C60.1598 108.648 55.9553 110.679 50.9553 111.702V112.256C56.6371 113.108 60.8842 115.509 63.6967 119.457C66.5092 123.378 67.4609 128.108 66.5518 133.648C65.7564 138.534 63.7251 142.824 60.4581 146.517C57.1911 150.182 53.0149 153.051 47.9297 155.125C42.8729 157.17 37.2479 158.193 31.0547 158.193Z"/>
</mask>
<path d="M31.0547 158.193C24.8047 158.193 19.407 157.142 14.8615 155.04C10.3445 152.937 6.99219 150.026 4.80469 146.304C2.61719 142.554 1.89276 138.207 2.63139 133.264H18.3984C18.1143 135.622 18.4837 137.682 19.5064 139.443C20.5575 141.176 22.1342 142.526 24.2365 143.491C26.3388 144.457 28.8246 144.94 31.6939 144.94C34.8757 144.94 37.8303 144.358 40.5575 143.193C43.2848 142.028 45.5575 140.395 47.3757 138.293C49.1939 136.19 50.3161 133.776 50.7422 131.048C51.1399 128.491 50.8132 126.276 49.7621 124.401C48.7109 122.526 46.9922 121.077 44.6058 120.054C42.2479 119.031 39.2507 118.52 35.6143 118.52H27.5604L29.5632 106.332H36.8928C39.9325 106.332 42.7166 105.764 45.245 104.628C47.8018 103.491 49.9325 101.901 51.6371 99.8551C53.3416 97.8097 54.407 95.4375 54.8331 92.7386C55.2308 90.4375 55.0604 88.4489 54.3217 86.7727C53.6115 85.0682 52.3757 83.7472 50.6143 82.8097C48.8814 81.8437 46.6513 81.3608 43.924 81.3608C41.1967 81.3608 38.5405 81.8437 35.9553 82.8097C33.3984 83.7756 31.2251 85.1534 29.4354 86.9432C27.6456 88.7045 26.5376 90.8068 26.1115 93.25H10.9837C11.8643 88.392 13.924 84.1165 17.1626 80.4233C20.4297 76.7017 24.4496 73.7898 29.2223 71.6875C34.0234 69.5852 39.1797 68.5341 44.6911 68.5341C50.657 68.5341 55.6286 69.6989 59.6058 72.0284C63.6115 74.358 66.5092 77.4261 68.299 81.233C70.1172 85.0398 70.657 89.1591 69.9183 93.5909C69.1229 98.5341 67.0064 102.54 63.5689 105.608C60.1598 108.648 55.9553 110.679 50.9553 111.702V112.256C56.6371 113.108 60.8842 115.509 63.6967 119.457C66.5092 123.378 67.4609 128.108 66.5518 133.648C65.7564 138.534 63.7251 142.824 60.4581 146.517C57.1911 150.182 53.0149 153.051 47.9297 155.125C42.8729 157.17 37.2479 158.193 31.0547 158.193Z" fill="black"/>
<path d="M14.8615 155.04L14.2286 156.4L14.2318 156.401L14.8615 155.04ZM4.80469 146.304L3.50901 147.06L3.51153 147.064L4.80469 146.304ZM2.63139 133.264V131.764H1.33888L1.14786 133.043L2.63139 133.264ZM18.3984 133.264L19.8877 133.444L20.09 131.764H18.3984V133.264ZM19.5064 139.443L18.2092 140.196L18.2164 140.209L18.2239 140.221L19.5064 139.443ZM24.2365 143.491L23.6103 144.854L23.6103 144.854L24.2365 143.491ZM40.5575 143.193L41.1467 144.573L41.1467 144.573L40.5575 143.193ZM50.7422 131.048L52.2242 131.28L52.2244 131.279L50.7422 131.048ZM49.7621 124.401L51.0705 123.667L51.0705 123.667L49.7621 124.401ZM44.6058 120.054L44.0089 121.43L44.0149 121.433L44.6058 120.054ZM27.5604 118.52L26.0802 118.277L25.7937 120.02H27.5604V118.52ZM29.5632 106.332V104.832H28.2896L28.0831 106.089L29.5632 106.332ZM45.245 104.628L44.6358 103.257L44.6301 103.26L45.245 104.628ZM51.6371 99.8551L50.4847 98.8948L50.4847 98.8948L51.6371 99.8551ZM54.8331 92.7386L53.355 92.4832L53.3532 92.4939L53.3515 92.5047L54.8331 92.7386ZM54.3217 86.7727L52.9371 87.3496L52.943 87.3637L52.9491 87.3776L54.3217 86.7727ZM50.6143 82.8097L49.8841 84.1199L49.8968 84.1269L49.9096 84.1338L50.6143 82.8097ZM35.9553 82.8097L35.4303 81.4045L35.4252 81.4064L35.9553 82.8097ZM29.4354 86.9432L30.4875 88.0123L30.496 88.0038L29.4354 86.9432ZM26.1115 93.25V94.75H27.3725L27.5892 93.5077L26.1115 93.25ZM10.9837 93.25L9.50772 92.9824L9.18729 94.75H10.9837V93.25ZM17.1626 80.4233L16.0354 79.4337L16.0349 79.4343L17.1626 80.4233ZM29.2223 71.6875L28.6206 70.3134L28.6176 70.3148L29.2223 71.6875ZM59.6058 72.0284L58.8477 73.3227L58.8517 73.3251L59.6058 72.0284ZM68.299 81.233L66.9415 81.8712L66.9455 81.8794L68.299 81.233ZM69.9183 93.5909L68.4387 93.3443L68.4374 93.3526L69.9183 93.5909ZM63.5689 105.608L64.5672 106.728L64.5677 106.727L63.5689 105.608ZM50.9553 111.702L50.6547 110.232L49.4553 110.477V111.702H50.9553ZM50.9553 112.256H49.4553V113.547L50.7327 113.739L50.9553 112.256ZM63.6967 119.457L62.4749 120.328L62.4779 120.332L63.6967 119.457ZM66.5518 133.648L65.0716 133.405L65.0713 133.407L66.5518 133.648ZM60.4581 146.517L61.5778 147.515L61.5816 147.511L60.4581 146.517ZM47.9297 155.125L48.4922 156.516L48.4961 156.514L47.9297 155.125ZM31.0547 156.693C24.9697 156.693 19.7966 155.67 15.4912 153.678L14.2318 156.401C19.0173 158.614 24.6397 159.693 31.0547 159.693V156.693ZM15.4944 153.68C11.2094 151.686 8.10838 148.964 6.09784 145.544L3.51153 147.064C5.87599 151.087 9.47955 154.189 14.2286 156.4L15.4944 153.68ZM6.10036 145.548C4.11039 142.137 3.41873 138.145 4.11492 133.486L1.14786 133.043C0.366782 138.27 1.12399 142.971 3.50902 147.06L6.10036 145.548ZM2.63139 134.764H18.3984V131.764H2.63139V134.764ZM16.9092 133.085C16.5929 135.71 16.9967 138.108 18.2092 140.196L20.8036 138.69C19.9706 137.255 19.6358 135.534 19.8877 133.444L16.9092 133.085ZM18.2239 140.221C19.4517 142.245 21.2755 143.782 23.6103 144.854L24.8628 142.128C22.993 141.269 21.6634 140.107 20.7889 138.665L18.2239 140.221ZM23.6103 144.854C25.9503 145.93 28.659 146.44 31.6939 146.44V143.44C28.9902 143.44 26.7273 142.985 24.8628 142.128L23.6103 144.854ZM31.6939 146.44C35.0633 146.44 38.2199 145.823 41.1467 144.573L39.9684 141.814C37.4406 142.893 34.6882 143.44 31.6939 143.44V146.44ZM41.1467 144.573C44.0693 143.324 46.533 141.56 48.5103 139.274L46.2412 137.311C44.582 139.23 42.5003 140.732 39.9684 141.814L41.1467 144.573ZM48.5103 139.274C50.5108 136.961 51.7544 134.287 52.2242 131.28L49.2602 130.817C48.8777 133.264 47.877 135.42 46.2412 137.311L48.5103 139.274ZM52.2244 131.279C52.6628 128.46 52.3173 125.891 51.0705 123.667L48.4537 125.134C49.3091 126.66 49.617 128.523 49.26 130.818L52.2244 131.279ZM51.0705 123.667C49.8263 121.448 47.8218 119.8 45.1967 118.675L44.0149 121.433C46.1626 122.353 47.5956 123.603 48.4537 125.134L51.0705 123.667ZM45.2027 118.678C42.5953 117.547 39.377 117.02 35.6143 117.02V120.02C39.1244 120.02 41.9004 120.516 44.0089 121.43L45.2027 118.678ZM35.6143 117.02H27.5604V120.02H35.6143V117.02ZM29.0405 118.763L31.0434 106.576L28.0831 106.089L26.0802 118.277L29.0405 118.763ZM29.5632 107.832H36.8928V104.832H29.5632V107.832ZM36.8928 107.832C40.1238 107.832 43.1202 107.227 45.8599 105.996L44.6301 103.26C42.3131 104.301 39.7412 104.832 36.8928 104.832V107.832ZM45.8542 105.999C48.6102 104.774 50.9302 103.046 52.7894 100.815L50.4847 98.8948C48.9349 100.755 46.9935 102.209 44.6358 103.257L45.8542 105.999ZM52.7894 100.815C54.672 98.5563 55.8475 95.9315 56.3147 92.9726L53.3515 92.5047C52.9664 94.9435 52.0113 97.063 50.4847 98.8948L52.7894 100.815ZM56.3112 92.9941C56.7454 90.4816 56.5809 88.1796 55.6944 86.1678L52.9491 87.3776C53.5398 88.7181 53.7162 90.3934 53.355 92.4832L56.3112 92.9941ZM55.7064 86.1958C54.8516 84.1445 53.3602 82.5719 51.3191 81.4855L49.9096 84.1338C51.3912 84.9224 52.3714 85.9919 52.9371 87.3496L55.7064 86.1958ZM51.3446 81.4994C49.3203 80.3711 46.8156 79.8608 43.924 79.8608V82.8608C46.487 82.8608 48.4425 83.3164 49.8841 84.1199L51.3446 81.4994ZM43.924 79.8608C41.0153 79.8608 38.1814 80.3766 35.4303 81.4045L36.4803 84.2148C38.8996 83.3108 41.3782 82.8608 43.924 82.8608V79.8608ZM35.4252 81.4064C32.6853 82.4415 30.3267 83.9305 28.3747 85.8825L30.496 88.0038C32.1235 86.3763 34.1116 85.1096 36.4854 84.2129L35.4252 81.4064ZM28.3832 85.8741C26.3735 87.8519 25.1144 90.2367 24.6338 92.9923L27.5892 93.5077C27.9609 91.3769 28.9177 89.5571 30.4875 88.0123L28.3832 85.8741ZM26.1115 91.75H10.9837V94.75H26.1115V91.75ZM12.4596 93.5176C13.292 88.9258 15.2321 84.8999 18.2904 81.4123L16.0349 79.4343C12.616 83.3331 10.4367 87.8583 9.50772 92.9824L12.4596 93.5176ZM18.2899 81.4129C21.4051 77.8642 25.2434 75.0792 29.827 73.0602L28.6176 70.3148C23.6557 72.5004 19.4543 75.5392 16.0354 79.4337L18.2899 81.4129ZM29.824 73.0615C34.4257 71.0466 39.3759 70.0341 44.6911 70.0341V67.0341C38.9835 67.0341 33.6212 68.1239 28.6206 70.3135L29.824 73.0615ZM44.6911 70.0341C50.4672 70.0341 55.1586 71.162 58.8477 73.3227L60.3639 70.7341C56.0985 68.2358 50.8467 67.0341 44.6911 67.0341V70.0341ZM58.8517 73.3251C62.6221 75.5177 65.2945 78.3679 66.9415 81.8712L69.6565 80.5947C67.724 76.4844 64.601 73.1982 60.3599 70.7317L58.8517 73.3251ZM66.9455 81.8794C68.6222 85.3901 69.1303 89.1952 68.4387 93.3443L71.3979 93.8375C72.1837 89.123 71.6122 84.6895 69.6525 80.5865L66.9455 81.8794ZM68.4374 93.3526C67.6916 97.9871 65.7276 101.671 62.5701 104.489L64.5677 106.727C68.2852 103.409 70.5541 99.0811 71.3993 93.8292L68.4374 93.3526ZM62.5706 104.488C59.3816 107.332 55.4264 109.256 50.6547 110.232L51.2559 113.171C56.4841 112.102 60.938 109.964 64.5672 106.728L62.5706 104.488ZM49.4553 111.702V112.256H52.4553V111.702H49.4553ZM50.7327 113.739C56.0926 114.543 59.9419 116.771 62.4749 120.328L64.9185 118.587C61.8265 114.246 57.1816 111.673 51.1778 110.772L50.7327 113.739ZM62.4779 120.332C65.0207 123.876 65.9277 128.188 65.0716 133.405L68.0321 133.891C68.9942 128.028 67.9978 122.879 64.9155 118.583L62.4779 120.332ZM65.0713 133.407C64.3212 138.015 62.4131 142.043 59.3346 145.523L61.5816 147.511C65.0372 143.605 67.1916 139.054 68.0324 133.889L65.0713 133.407ZM59.3384 145.519C56.2408 148.994 52.262 151.738 47.3632 153.736L48.4961 156.514C53.7678 154.364 58.1413 151.37 61.5778 147.515L59.3384 145.519ZM47.3672 153.734C42.5117 155.698 37.081 156.693 31.0547 156.693V159.693C37.4147 159.693 43.2341 158.642 48.4922 156.516L47.3672 153.734Z" fill="#00FFBF" mask="url(#path-1-outside-1_960_1844)"/>
</g>
<defs>
<clipPath id="clip0_960_1844">
<rect width="180" height="160" fill="white"/>
</clipPath>
</defs>
</svg>
