<svg width="180" height="160" viewBox="0 0 180 160" fill="none" xmlns="http://www.w3.org/2000/svg">
<path d="M75 10C75 4.47715 79.4772 0 85 0H170C175.523 0 180 4.47715 180 10V150C180 155.523 175.523 160 170 160H85C79.4772 160 75 155.523 75 150V10Z" fill="black"/>
<path fill-rule="evenodd" clip-rule="evenodd" d="M170 1.5H85C80.3056 1.5 76.5 5.30558 76.5 10V150C76.5 154.694 80.3056 158.5 85 158.5H170C174.694 158.5 178.5 154.694 178.5 150V10C178.5 5.30558 174.694 1.5 170 1.5ZM85 0C79.4772 0 75 4.47715 75 10V150C75 155.523 79.4772 160 85 160H170C175.523 160 180 155.523 180 150V10C180 4.47715 175.523 0 170 0H85Z" fill="#00FFBF"/>
</svg>
