<svg width="180" height="160" viewBox="0 0 180 160" fill="none" xmlns="http://www.w3.org/2000/svg">
<g clip-path="url(#clip0_960_1849)">
<mask id="path-1-outside-1_960_1849" maskUnits="userSpaceOnUse" x="3" y="68" width="72" height="92" fill="black">
<rect fill="white" x="3" y="68" width="72" height="92"/>
<path d="M31.5341 158.193C25.8523 158.193 20.9375 157.128 16.7898 154.997C12.6705 152.838 9.60227 149.884 7.58523 146.134C5.56818 142.384 4.87216 138.094 5.49716 133.264H20.8381C20.5256 136.815 21.5909 139.727 24.0341 142C26.5057 144.273 29.6875 145.409 33.5795 145.409C36.733 145.409 39.6307 144.699 42.2727 143.278C44.9432 141.858 47.1733 139.898 48.9631 137.398C50.7528 134.869 51.9318 131.972 52.5 128.705C53.0398 125.409 52.8125 122.483 51.8182 119.926C50.8239 117.341 49.2045 115.324 46.9602 113.875C44.7159 112.426 41.9886 111.702 38.7784 111.702C36.1932 111.702 33.5511 112.199 30.8523 113.193C28.1818 114.159 25.9517 115.452 24.1619 117.071L10.2699 114.727L22.3295 69.7273H72.9545L70.8239 82.9375H33.2386L26.8892 106.077H27.4006C29.3608 104.145 31.9176 102.554 35.071 101.304C38.2244 100.054 41.5767 99.429 45.1278 99.429C50.4119 99.429 54.9148 100.679 58.6364 103.179C62.358 105.651 65.0426 109.074 66.6903 113.449C68.3665 117.795 68.7216 122.753 67.7557 128.321C66.8466 134.088 64.6875 139.23 61.2784 143.747C57.8977 148.236 53.6364 151.773 48.4943 154.358C43.3807 156.915 37.7273 158.193 31.5341 158.193Z"/>
</mask>
<path d="M31.5341 158.193C25.8523 158.193 20.9375 157.128 16.7898 154.997C12.6705 152.838 9.60227 149.884 7.58523 146.134C5.56818 142.384 4.87216 138.094 5.49716 133.264H20.8381C20.5256 136.815 21.5909 139.727 24.0341 142C26.5057 144.273 29.6875 145.409 33.5795 145.409C36.733 145.409 39.6307 144.699 42.2727 143.278C44.9432 141.858 47.1733 139.898 48.9631 137.398C50.7528 134.869 51.9318 131.972 52.5 128.705C53.0398 125.409 52.8125 122.483 51.8182 119.926C50.8239 117.341 49.2045 115.324 46.9602 113.875C44.7159 112.426 41.9886 111.702 38.7784 111.702C36.1932 111.702 33.5511 112.199 30.8523 113.193C28.1818 114.159 25.9517 115.452 24.1619 117.071L10.2699 114.727L22.3295 69.7273H72.9545L70.8239 82.9375H33.2386L26.8892 106.077H27.4006C29.3608 104.145 31.9176 102.554 35.071 101.304C38.2244 100.054 41.5767 99.429 45.1278 99.429C50.4119 99.429 54.9148 100.679 58.6364 103.179C62.358 105.651 65.0426 109.074 66.6903 113.449C68.3665 117.795 68.7216 122.753 67.7557 128.321C66.8466 134.088 64.6875 139.23 61.2784 143.747C57.8977 148.236 53.6364 151.773 48.4943 154.358C43.3807 156.915 37.7273 158.193 31.5341 158.193Z" fill="black"/>
<path d="M16.7898 154.997L16.0934 156.326L16.1044 156.331L16.7898 154.997ZM7.58523 146.134L6.2642 146.844L6.2642 146.844L7.58523 146.134ZM5.49716 133.264V131.764H4.17877L4.00956 133.072L5.49716 133.264ZM20.8381 133.264L22.3323 133.396L22.4759 131.764H20.8381V133.264ZM24.0341 142L23.0124 143.098L23.0188 143.104L24.0341 142ZM42.2727 143.278L41.5683 141.954L41.5624 141.957L42.2727 143.278ZM48.9631 137.398L50.1828 138.271L50.1874 138.264L48.9631 137.398ZM52.5 128.705L53.9778 128.962L53.9791 128.954L53.9803 128.947L52.5 128.705ZM51.8182 119.926L50.4182 120.465L50.4202 120.47L51.8182 119.926ZM46.9602 113.875L46.1467 115.135L46.1467 115.135L46.9602 113.875ZM30.8523 113.193L31.3625 114.604L31.3708 114.601L30.8523 113.193ZM24.1619 117.071L23.9124 118.55L24.6292 118.671L25.1683 118.183L24.1619 117.071ZM10.2699 114.727L8.82101 114.339L8.3941 115.932L10.0203 116.206L10.2699 114.727ZM22.3295 69.7273V68.2273H21.1786L20.8807 69.339L22.3295 69.7273ZM72.9545 69.7273L74.4354 69.9661L74.7159 68.2273H72.9545V69.7273ZM70.8239 82.9375V84.4375H72.1013L72.3047 83.1763L70.8239 82.9375ZM33.2386 82.9375V81.4375H32.0948L31.7921 82.5406L33.2386 82.9375ZM26.8892 106.077L25.4427 105.68L24.9222 107.577H26.8892V106.077ZM27.4006 106.077V107.577H28.0155L28.4535 107.145L27.4006 106.077ZM58.6364 103.179L57.7999 104.424L57.8065 104.429L58.6364 103.179ZM66.6903 113.449L65.2866 113.978L65.2908 113.989L66.6903 113.449ZM67.7557 128.321L66.2778 128.065L66.2758 128.076L66.274 128.087L67.7557 128.321ZM61.2784 143.747L60.0811 142.844L60.0802 142.845L61.2784 143.747ZM48.4943 154.358L49.1651 155.7L49.1681 155.698L48.4943 154.358ZM31.5341 156.693C26.0393 156.693 21.3694 155.663 17.4752 153.663L16.1044 156.331C20.5056 158.592 25.6653 159.693 31.5341 159.693V156.693ZM17.4861 153.669C13.6065 151.635 10.7684 148.885 8.90626 145.423L6.2642 146.844C8.4362 150.882 11.7344 154.041 16.0934 156.326L17.4861 153.669ZM8.90626 145.423C7.0585 141.988 6.394 138.022 6.98475 133.457L4.00956 133.072C3.35032 138.166 4.07787 142.779 6.2642 146.844L8.90626 145.423ZM5.49716 134.764H20.8381V131.764H5.49716V134.764ZM19.3438 133.133C18.994 137.108 20.2046 140.486 23.0124 143.098L25.0557 140.902C22.9772 138.968 22.0571 136.522 22.3323 133.396L19.3438 133.133ZM23.0188 143.104C25.8109 145.672 29.3753 146.909 33.5795 146.909V143.909C29.9997 143.909 27.2004 142.874 25.0494 140.896L23.0188 143.104ZM33.5795 146.909C36.9677 146.909 40.1114 146.143 42.983 144.6L41.5624 141.957C39.15 143.254 36.4982 143.909 33.5795 143.909V146.909ZM42.9771 144.603C45.8553 143.072 48.2606 140.956 50.1827 138.271L47.7434 136.525C46.086 138.84 44.0311 140.644 41.5683 141.954L42.9771 144.603ZM50.1874 138.264C52.1148 135.541 53.3742 132.432 53.9778 128.962L51.0222 128.448C50.4894 131.511 49.3909 134.197 47.7388 136.531L50.1874 138.264ZM53.9803 128.947C54.554 125.444 54.3268 122.238 53.2162 119.382L50.4202 120.47C51.2982 122.727 51.5256 125.374 51.0197 128.462L53.9803 128.947ZM53.2182 119.388C52.1143 116.517 50.2954 114.243 47.7738 112.615L46.1467 115.135C48.1136 116.405 49.5334 118.164 50.4182 120.465L53.2182 119.388ZM47.7738 112.615C45.2419 110.98 42.2184 110.202 38.7784 110.202V113.202C41.7589 113.202 44.1899 113.872 46.1467 115.135L47.7738 112.615ZM38.7784 110.202C35.9974 110.202 33.18 110.737 30.3337 111.786L31.3708 114.601C33.9222 113.661 36.3889 113.202 38.7784 113.202V110.202ZM30.3421 111.783C27.5202 112.803 25.1129 114.188 23.1556 115.959L25.1683 118.183C26.7905 116.716 28.8434 115.515 31.3625 114.604L30.3421 111.783ZM24.4115 115.592L10.5194 113.248L10.0203 116.206L23.9124 118.55L24.4115 115.592ZM11.7188 115.116L23.7784 70.1156L20.8807 69.339L8.82101 114.339L11.7188 115.116ZM22.3295 71.2273H72.9545V68.2273H22.3295V71.2273ZM71.4737 69.4884L69.343 82.6987L72.3047 83.1763L74.4354 69.9661L71.4737 69.4884ZM70.8239 81.4375H33.2386V84.4375H70.8239V81.4375ZM31.7921 82.5406L25.4427 105.68L28.3357 106.474L34.6852 83.3344L31.7921 82.5406ZM26.8892 107.577H27.4006V104.577H26.8892V107.577ZM28.4535 107.145C30.2414 105.383 32.615 103.891 35.6238 102.698L34.5183 99.9095C31.2202 101.217 28.4802 102.907 26.3477 105.008L28.4535 107.145ZM35.6238 102.698C38.5931 101.521 41.757 100.929 45.1278 100.929V97.929C41.3965 97.929 37.8558 98.5865 34.5183 99.9095L35.6238 102.698ZM45.1278 100.929C50.1684 100.929 54.3672 102.118 57.7999 104.424L59.4728 101.934C55.4623 99.2398 50.6555 97.929 45.1278 97.929V100.929ZM57.8065 104.429C61.2532 106.718 63.7443 109.883 65.2866 113.978L68.0941 112.92C66.3409 108.265 63.4627 104.584 59.4662 101.929L57.8065 104.429ZM65.2908 113.989C66.8503 118.033 67.2072 122.707 66.2778 128.065L69.2336 128.577C70.236 122.799 69.8827 117.558 68.0899 112.909L65.2908 113.989ZM66.274 128.087C65.402 133.619 63.337 138.529 60.0811 142.844L62.4757 144.651C66.038 139.931 68.2912 134.557 69.2374 128.555L66.274 128.087ZM60.0802 142.845C56.8418 147.145 52.7616 150.534 47.8205 153.018L49.1681 155.698C54.5111 153.012 58.9537 149.327 62.4766 144.65L60.0802 142.845ZM47.8235 153.016C42.9351 155.46 37.5142 156.693 31.5341 156.693V159.693C37.9404 159.693 43.8262 158.369 49.1651 155.7L47.8235 153.016Z" fill="#00FFBF" mask="url(#path-1-outside-1_960_1849)"/>
</g>
<defs>
<clipPath id="clip0_960_1849">
<rect width="180" height="160" fill="white"/>
</clipPath>
</defs>
</svg>
