<svg width="180" height="160" viewBox="0 0 180 160" fill="none" xmlns="http://www.w3.org/2000/svg">
<g clip-path="url(#clip0_960_1859)">
<mask id="path-1-outside-1_960_1859" maskUnits="userSpaceOnUse" x="1" y="67" width="73" height="93" fill="black">
<rect fill="white" x="1" y="67" width="73" height="93"/>
<path d="M43.8068 68.5341C48.0966 68.5625 52.1449 69.3153 55.9517 70.7926C59.7869 72.2699 63.054 74.6705 65.7528 77.9943C68.4517 81.2898 70.2983 85.6932 71.2926 91.2045C72.2869 96.6875 72.1023 103.477 70.7386 111.574C69.517 118.96 67.642 125.551 65.1136 131.347C62.6136 137.114 59.5739 142 55.9943 146.006C52.4432 149.983 48.4375 153.009 43.9773 155.082C39.517 157.156 34.7017 158.193 29.5312 158.193C24.0483 158.193 19.3182 157.128 15.3409 154.997C11.3636 152.838 8.32386 149.884 6.22159 146.134C4.14773 142.384 3.18182 138.108 3.32386 133.307H18.5795C18.6648 136.858 19.7159 139.614 21.733 141.574C23.75 143.534 26.6193 144.514 30.3409 144.514C36.4489 144.514 41.6761 141.872 46.0227 136.588C50.3977 131.304 53.4091 123.861 55.0568 114.259L54.375 115.153C52.5852 117.653 50.4688 119.77 48.0256 121.503C45.5824 123.236 42.9261 124.557 40.0568 125.466C37.2159 126.347 34.2614 126.787 31.1932 126.787C25.9659 126.787 21.4631 125.523 17.6847 122.994C13.9063 120.466 11.1648 117 9.46023 112.597C7.75568 108.193 7.37216 103.179 8.30966 97.554C9.24716 91.9574 11.3494 86.9716 14.6165 82.5966C17.9119 78.1932 22.0597 74.7415 27.0597 72.2415C32.0881 69.7131 37.6705 68.4773 43.8068 68.5341ZM43.2528 81.3182C40.071 81.3182 37.0597 82.0994 34.2188 83.6619C31.4062 85.2244 29.0199 87.3409 27.0597 90.0114C25.1278 92.6818 23.9063 95.6648 23.3949 98.9602C22.9403 101.915 23.1676 104.585 24.0767 106.972C24.9858 109.358 26.4631 111.261 28.5085 112.682C30.5824 114.074 33.0966 114.77 36.0511 114.77C38.4659 114.77 40.7813 114.301 42.9972 113.364C45.2415 112.426 47.2727 111.148 49.0909 109.528C50.9375 107.881 52.4716 105.991 53.6932 103.861C54.9148 101.73 55.7102 99.4716 56.0795 97.0852C56.5625 94.1875 56.3352 91.5455 55.3977 89.1591C54.4886 86.7727 52.9972 84.8693 50.9233 83.4489C48.8494 82.0284 46.2926 81.3182 43.2528 81.3182Z"/>
</mask>
<path d="M43.8068 68.5341C48.0966 68.5625 52.1449 69.3153 55.9517 70.7926C59.7869 72.2699 63.054 74.6705 65.7528 77.9943C68.4517 81.2898 70.2983 85.6932 71.2926 91.2045C72.2869 96.6875 72.1023 103.477 70.7386 111.574C69.517 118.96 67.642 125.551 65.1136 131.347C62.6136 137.114 59.5739 142 55.9943 146.006C52.4432 149.983 48.4375 153.009 43.9773 155.082C39.517 157.156 34.7017 158.193 29.5312 158.193C24.0483 158.193 19.3182 157.128 15.3409 154.997C11.3636 152.838 8.32386 149.884 6.22159 146.134C4.14773 142.384 3.18182 138.108 3.32386 133.307H18.5795C18.6648 136.858 19.7159 139.614 21.733 141.574C23.75 143.534 26.6193 144.514 30.3409 144.514C36.4489 144.514 41.6761 141.872 46.0227 136.588C50.3977 131.304 53.4091 123.861 55.0568 114.259L54.375 115.153C52.5852 117.653 50.4688 119.77 48.0256 121.503C45.5824 123.236 42.9261 124.557 40.0568 125.466C37.2159 126.347 34.2614 126.787 31.1932 126.787C25.9659 126.787 21.4631 125.523 17.6847 122.994C13.9063 120.466 11.1648 117 9.46023 112.597C7.75568 108.193 7.37216 103.179 8.30966 97.554C9.24716 91.9574 11.3494 86.9716 14.6165 82.5966C17.9119 78.1932 22.0597 74.7415 27.0597 72.2415C32.0881 69.7131 37.6705 68.4773 43.8068 68.5341ZM43.2528 81.3182C40.071 81.3182 37.0597 82.0994 34.2188 83.6619C31.4062 85.2244 29.0199 87.3409 27.0597 90.0114C25.1278 92.6818 23.9063 95.6648 23.3949 98.9602C22.9403 101.915 23.1676 104.585 24.0767 106.972C24.9858 109.358 26.4631 111.261 28.5085 112.682C30.5824 114.074 33.0966 114.77 36.0511 114.77C38.4659 114.77 40.7813 114.301 42.9972 113.364C45.2415 112.426 47.2727 111.148 49.0909 109.528C50.9375 107.881 52.4716 105.991 53.6932 103.861C54.9148 101.73 55.7102 99.4716 56.0795 97.0852C56.5625 94.1875 56.3352 91.5455 55.3977 89.1591C54.4886 86.7727 52.9972 84.8693 50.9233 83.4489C48.8494 82.0284 46.2926 81.3182 43.2528 81.3182Z" fill="black"/>
<path d="M43.8068 68.5341L43.7929 70.034L43.7969 70.0341L43.8068 68.5341ZM55.9517 70.7926L55.409 72.191L55.4125 72.1924L55.9517 70.7926ZM65.7528 77.9943L64.5884 78.9398L64.5924 78.9447L65.7528 77.9943ZM71.2926 91.2045L69.8164 91.4709L69.8167 91.4722L71.2926 91.2045ZM70.7386 111.574L69.2595 111.325L69.2587 111.329L70.7386 111.574ZM65.1136 131.347L63.7388 130.747L63.7374 130.75L65.1136 131.347ZM55.9943 146.006L54.8758 145.006L54.8754 145.007L55.9943 146.006ZM43.9773 155.082L44.6097 156.443L44.6097 156.443L43.9773 155.082ZM15.3409 154.997L14.6253 156.315L14.6326 156.319L15.3409 154.997ZM6.22159 146.134L4.90893 146.859L4.91317 146.867L6.22159 146.134ZM3.32386 133.307V131.807H1.86759L1.82452 133.262L3.32386 133.307ZM18.5795 133.307L20.0791 133.271L20.044 131.807H18.5795V133.307ZM21.733 141.574L22.7784 140.498L22.7784 140.498L21.733 141.574ZM46.0227 136.588L44.8673 135.631L44.8643 135.635L46.0227 136.588ZM55.0568 114.259L56.5352 114.512L53.8637 113.349L55.0568 114.259ZM54.375 115.153L53.1819 114.244L53.1683 114.262L53.1553 114.28L54.375 115.153ZM48.0256 121.503L48.8934 122.726L48.8934 122.726L48.0256 121.503ZM40.0568 125.466L40.501 126.899L40.5099 126.896L40.0568 125.466ZM17.6847 122.994L18.5189 121.748L18.5189 121.748L17.6847 122.994ZM9.46023 112.597L8.06138 113.138L8.06138 113.138L9.46023 112.597ZM8.30966 97.554L6.83027 97.3062L6.83007 97.3074L8.30966 97.554ZM14.6165 82.5966L13.4155 81.6978L13.4146 81.6991L14.6165 82.5966ZM27.0597 72.2415L27.7305 73.5831L27.7335 73.5816L27.0597 72.2415ZM34.2188 83.6619L33.4959 82.3476L33.4903 82.3507L34.2188 83.6619ZM27.0597 90.0114L25.8504 89.1237L25.8443 89.1322L27.0597 90.0114ZM23.3949 98.9602L21.9126 98.7302L21.9123 98.7321L23.3949 98.9602ZM24.0767 106.972L25.4784 106.438L25.4784 106.438L24.0767 106.972ZM28.5085 112.682L27.6529 113.914L27.6627 113.921L27.6725 113.927L28.5085 112.682ZM42.9972 113.364L42.419 111.98L42.4127 111.982L42.9972 113.364ZM49.0909 109.528L50.0885 110.649L50.0896 110.648L49.0909 109.528ZM53.6932 103.861L52.3919 103.115L52.3919 103.115L53.6932 103.861ZM56.0795 97.0852L54.6 96.8386L54.5985 96.8472L54.5972 96.8558L56.0795 97.0852ZM55.3977 89.1591L53.996 89.6931L53.9988 89.7003L54.0016 89.7076L55.3977 89.1591ZM50.9233 83.4489L50.0757 84.6864L50.0757 84.6864L50.9233 83.4489ZM43.7969 70.0341C47.9137 70.0613 51.7806 70.783 55.409 72.191L56.4944 69.3942C52.5091 67.8477 48.2795 67.0637 43.8168 67.0341L43.7969 70.0341ZM55.4125 72.1924C58.9928 73.5714 62.0475 75.8105 64.5884 78.9398L66.9173 77.0488C64.0605 73.5304 60.5811 70.9683 56.4909 69.3929L55.4125 72.1924ZM64.5924 78.9447C67.0865 81.9902 68.8536 86.1341 69.8164 91.4709L72.7688 90.9382C71.743 85.2523 69.8169 80.5894 66.9133 77.0439L64.5924 78.9447ZM69.8167 91.4722C70.7691 96.7239 70.6066 103.326 69.2595 111.325L72.2178 111.823C73.5979 103.629 73.8048 96.6511 72.7685 90.9369L69.8167 91.4722ZM69.2587 111.329C68.0538 118.615 66.2096 125.083 63.7388 130.747L66.4885 131.946C69.0745 126.019 70.9803 119.305 72.2185 111.819L69.2587 111.329ZM63.7374 130.75C61.2906 136.394 58.332 141.139 54.8758 145.006L57.1128 147.005C60.8157 142.861 63.9367 137.833 66.4899 131.943L63.7374 130.75ZM54.8754 145.007C51.4487 148.845 47.605 151.741 43.3448 153.722L44.6097 156.443C49.27 154.276 53.4377 151.121 57.1132 147.005L54.8754 145.007ZM43.3448 153.722C39.0928 155.699 34.4947 156.693 29.5312 156.693V159.693C34.9087 159.693 39.9413 158.613 44.6097 156.443L43.3448 153.722ZM29.5312 156.693C24.2427 156.693 19.7665 155.666 16.0492 153.675L14.6326 156.319C18.8699 158.589 23.8538 159.693 29.5312 159.693V156.693ZM16.0565 153.679C12.3144 151.647 9.48639 148.89 7.53001 145.4L4.91317 146.867C7.16134 150.877 10.4129 154.029 14.6253 156.315L16.0565 153.679ZM7.53423 145.408C5.60576 141.92 4.68813 137.917 4.82321 133.351L1.82452 133.262C1.6755 138.299 2.6897 142.847 4.90895 146.859L7.53423 145.408ZM3.32386 134.807H18.5795V131.807H3.32386V134.807ZM17.08 133.343C17.172 137.178 18.3196 140.348 20.6876 142.65L22.7784 140.498C21.1122 138.879 20.1575 136.538 20.0791 133.271L17.08 133.343ZM20.6876 142.65C23.0658 144.961 26.359 146.014 30.3409 146.014V143.014C26.8796 143.014 24.4342 142.107 22.7784 140.498L20.6876 142.65ZM30.3409 146.014C36.9549 146.014 42.5883 143.124 47.1812 137.541L44.8643 135.635C40.764 140.62 35.9428 143.014 30.3409 143.014V146.014ZM47.1781 137.545C51.7762 131.991 54.8607 124.27 56.5352 114.512L53.5784 114.005C51.9575 123.451 49.0193 130.617 44.8673 135.631L47.1781 137.545ZM53.8637 113.349L53.1819 114.244L55.5681 116.062L56.25 115.168L53.8637 113.349ZM53.1553 114.28C51.46 116.648 49.4614 118.645 47.1578 120.279L48.8934 122.726C51.4761 120.894 53.7105 118.658 55.5947 116.027L53.1553 114.28ZM47.1578 120.279C44.8419 121.922 42.3257 123.174 39.6038 124.036L40.5099 126.896C43.5266 125.94 46.3229 124.55 48.8934 122.726L47.1578 120.279ZM39.6127 124.033C36.9201 124.868 34.1156 125.287 31.1932 125.287V128.287C34.4072 128.287 37.5117 127.825 40.501 126.899L39.6127 124.033ZM31.1932 125.287C26.2172 125.287 22.015 124.087 18.5189 121.748L16.8504 124.241C20.9112 126.958 25.7146 128.287 31.1932 128.287V125.287ZM18.5189 121.748C15.007 119.398 12.4569 116.183 10.8591 112.055L8.06138 113.138C9.87264 117.817 12.8055 121.534 16.8504 124.241L18.5189 121.748ZM10.8591 112.055C9.26995 107.95 8.88676 103.216 9.78925 97.8006L6.83007 97.3074C5.85756 103.142 6.24141 108.437 8.06138 113.138L10.8591 112.055ZM9.78905 97.8018C10.6887 92.4312 12.6999 87.6701 15.8183 83.4941L13.4146 81.6991C9.99896 86.2731 7.80563 91.4836 6.83027 97.3062L9.78905 97.8018ZM15.8174 83.4953C18.9707 79.2819 22.9357 75.9805 27.7305 73.5831L26.3888 70.8998C21.1836 73.5024 16.8532 77.1044 13.4155 81.6978L15.8174 83.4953ZM27.7335 73.5816C32.5298 71.1699 37.8733 69.9792 43.7929 70.034L43.8207 67.0342C37.4676 66.9753 31.6463 68.2562 26.3858 70.9013L27.7335 73.5816ZM43.2528 79.8182C39.8133 79.8182 36.5539 80.6657 33.4959 82.3476L34.9416 84.9763C37.5655 83.5331 40.3287 82.8182 43.2528 82.8182V79.8182ZM33.4903 82.3507C30.4832 84.0213 27.9347 86.2844 25.8505 89.1238L28.2689 90.899C30.1051 88.3974 32.3293 86.4276 34.9472 84.9732L33.4903 82.3507ZM25.8443 89.1322C23.7717 91.9972 22.4599 95.2032 21.9126 98.7302L24.8771 99.1902C25.3526 96.1263 26.4839 93.3664 28.275 90.8905L25.8443 89.1322ZM21.9123 98.7321C21.4251 101.899 21.6587 104.838 22.675 107.506L25.4784 106.438C24.6765 104.333 24.4556 101.93 24.8774 99.1883L21.9123 98.7321ZM22.675 107.506C23.6887 110.167 25.3526 112.316 27.6529 113.914L29.3641 111.45C27.5735 110.206 26.2829 108.549 25.4784 106.438L22.675 107.506ZM27.6725 113.927C30.036 115.514 32.8544 116.27 36.0511 116.27V113.27C33.3388 113.27 31.1287 112.634 29.3445 111.436L27.6725 113.927ZM36.0511 116.27C38.666 116.27 41.1801 115.761 43.5816 114.745L42.4127 111.982C40.3824 112.841 38.2659 113.27 36.0511 113.27V116.27ZM43.5753 114.748C45.9733 113.746 48.1463 112.378 50.0885 110.649L48.0933 108.408C46.3992 109.917 44.5097 111.106 42.419 111.98L43.5753 114.748ZM50.0896 110.648C52.0555 108.893 53.6921 106.878 54.9945 104.607L52.3919 103.115C51.2511 105.104 49.8195 106.868 48.0922 108.409L50.0896 110.648ZM54.9945 104.607C56.306 102.319 57.1639 99.886 57.5619 97.3146L54.5972 96.8558C54.2565 99.0572 53.5235 101.141 52.3919 103.115L54.9945 104.607ZM57.5591 97.3318C58.0801 94.2061 57.8444 91.2846 56.7939 88.6106L54.0016 89.7076C54.8261 91.8063 55.0449 94.1688 54.6 96.8386L57.5591 97.3318ZM56.7995 88.6251C55.7835 85.9581 54.1011 83.8073 51.7709 82.2113L50.0757 84.6864C51.8932 85.9313 53.1938 87.5873 53.996 89.6931L56.7995 88.6251ZM51.7709 82.2113C49.3992 80.5869 46.5309 79.8182 43.2528 79.8182V82.8182C46.0544 82.8182 48.2997 83.47 50.0757 84.6864L51.7709 82.2113Z" fill="#00FFBF" mask="url(#path-1-outside-1_960_1859)"/>
</g>
<defs>
<clipPath id="clip0_960_1859">
<rect width="180" height="160" fill="white"/>
</clipPath>
</defs>
</svg>
