<svg width="180" height="160" viewBox="0 0 180 160" fill="none" xmlns="http://www.w3.org/2000/svg">
<g clip-path="url(#clip0_960_1894)">
<mask id="path-1-outside-1_960_1894" maskUnits="userSpaceOnUse" x="0" y="67" width="73" height="93" fill="black">
<rect fill="white" y="67" width="73" height="93"/>
<path d="M31.0334 158.193C24.6413 158.193 19.1442 157.099 14.5419 154.912C9.93963 152.724 6.53054 149.741 4.31463 145.963C2.12713 142.185 1.43111 137.937 2.22656 133.222C2.85156 129.642 4.2152 126.347 6.31747 123.335C8.41974 120.295 10.9908 117.767 14.0305 115.75C17.0987 113.733 20.38 112.44 23.8743 111.872V111.403C19.5845 110.381 16.3885 108.009 14.2862 104.287C12.1839 100.565 11.5589 96.304 12.4112 91.5028C13.2067 87.0426 15.1243 83.0938 18.1641 79.6562C21.2322 76.1903 25.0817 73.4773 29.7124 71.517C34.343 69.5284 39.4425 68.5341 45.0107 68.5341C50.6925 68.5341 55.593 69.571 59.7124 71.6449C63.8317 73.7188 66.8857 76.5455 68.8743 80.125C70.8629 83.7045 71.4879 87.767 70.7493 92.3125C69.9254 97.1989 67.7805 101.361 64.3146 104.798C60.8771 108.236 56.8714 110.437 52.2976 111.403V111.872C55.593 112.469 58.4624 113.818 60.9055 115.92C63.3771 118.023 65.1811 120.636 66.3175 123.761C67.4538 126.886 67.6953 130.31 67.0419 134.031C66.2749 138.69 64.2152 142.838 60.8629 146.474C57.5107 150.111 53.2493 152.98 48.0788 155.082C42.9368 157.156 37.255 158.193 31.0334 158.193ZM32.3118 146.006C35.6925 146.006 38.7038 145.423 41.3459 144.259C44.0163 143.065 46.2038 141.432 47.9084 139.358C49.6129 137.256 50.6925 134.827 51.147 132.071C51.5732 129.315 51.2749 126.901 50.2521 124.827C49.2294 122.724 47.6101 121.105 45.3942 119.969C43.2067 118.804 40.593 118.222 37.5533 118.222C34.3715 118.222 31.4311 118.847 28.7322 120.097C26.0334 121.347 23.7891 123.08 21.9993 125.295C20.2095 127.511 19.0874 130.04 18.6328 132.881C18.2067 135.523 18.4766 137.838 19.4425 139.827C20.4368 141.787 22.0277 143.307 24.2152 144.386C26.4311 145.466 29.13 146.006 32.3118 146.006ZM38.8743 106.247C41.6584 106.247 44.201 105.679 46.5021 104.543C48.8033 103.406 50.7209 101.844 52.255 99.8551C53.7891 97.8381 54.7834 95.5511 55.2379 92.9943C55.6641 90.4943 55.4652 88.3352 54.6413 86.517C53.8459 84.6989 52.5107 83.3068 50.6357 82.3409C48.7891 81.375 46.5163 80.892 43.8175 80.892C40.9766 80.892 38.3913 81.4318 36.0618 82.5114C33.7607 83.5909 31.843 85.1108 30.309 87.071C28.8033 89.0028 27.8374 91.2614 27.4112 93.8466C26.9851 96.3466 27.1982 98.5341 28.0504 100.409C28.9311 102.256 30.2947 103.69 32.1413 104.713C34.0163 105.736 36.2607 106.247 38.8743 106.247Z"/>
</mask>
<path d="M31.0334 158.193C24.6413 158.193 19.1442 157.099 14.5419 154.912C9.93963 152.724 6.53054 149.741 4.31463 145.963C2.12713 142.185 1.43111 137.937 2.22656 133.222C2.85156 129.642 4.2152 126.347 6.31747 123.335C8.41974 120.295 10.9908 117.767 14.0305 115.75C17.0987 113.733 20.38 112.44 23.8743 111.872V111.403C19.5845 110.381 16.3885 108.009 14.2862 104.287C12.1839 100.565 11.5589 96.304 12.4112 91.5028C13.2067 87.0426 15.1243 83.0938 18.1641 79.6562C21.2322 76.1903 25.0817 73.4773 29.7124 71.517C34.343 69.5284 39.4425 68.5341 45.0107 68.5341C50.6925 68.5341 55.593 69.571 59.7124 71.6449C63.8317 73.7188 66.8857 76.5455 68.8743 80.125C70.8629 83.7045 71.4879 87.767 70.7493 92.3125C69.9254 97.1989 67.7805 101.361 64.3146 104.798C60.8771 108.236 56.8714 110.437 52.2976 111.403V111.872C55.593 112.469 58.4624 113.818 60.9055 115.92C63.3771 118.023 65.1811 120.636 66.3175 123.761C67.4538 126.886 67.6953 130.31 67.0419 134.031C66.2749 138.69 64.2152 142.838 60.8629 146.474C57.5107 150.111 53.2493 152.98 48.0788 155.082C42.9368 157.156 37.255 158.193 31.0334 158.193ZM32.3118 146.006C35.6925 146.006 38.7038 145.423 41.3459 144.259C44.0163 143.065 46.2038 141.432 47.9084 139.358C49.6129 137.256 50.6925 134.827 51.147 132.071C51.5732 129.315 51.2749 126.901 50.2521 124.827C49.2294 122.724 47.6101 121.105 45.3942 119.969C43.2067 118.804 40.593 118.222 37.5533 118.222C34.3715 118.222 31.4311 118.847 28.7322 120.097C26.0334 121.347 23.7891 123.08 21.9993 125.295C20.2095 127.511 19.0874 130.04 18.6328 132.881C18.2067 135.523 18.4766 137.838 19.4425 139.827C20.4368 141.787 22.0277 143.307 24.2152 144.386C26.4311 145.466 29.13 146.006 32.3118 146.006ZM38.8743 106.247C41.6584 106.247 44.201 105.679 46.5021 104.543C48.8033 103.406 50.7209 101.844 52.255 99.8551C53.7891 97.8381 54.7834 95.5511 55.2379 92.9943C55.6641 90.4943 55.4652 88.3352 54.6413 86.517C53.8459 84.6989 52.5107 83.3068 50.6357 82.3409C48.7891 81.375 46.5163 80.892 43.8175 80.892C40.9766 80.892 38.3913 81.4318 36.0618 82.5114C33.7607 83.5909 31.843 85.1108 30.309 87.071C28.8033 89.0028 27.8374 91.2614 27.4112 93.8466C26.9851 96.3466 27.1982 98.5341 28.0504 100.409C28.9311 102.256 30.2947 103.69 32.1413 104.713C34.0163 105.736 36.2607 106.247 38.8743 106.247Z" fill="black"/>
<path d="M14.5419 154.912L13.898 156.267L13.898 156.267L14.5419 154.912ZM4.31463 145.963L3.01647 146.715L3.02073 146.722L4.31463 145.963ZM2.22656 133.222L0.748893 132.964L0.747456 132.972L2.22656 133.222ZM6.31747 123.335L7.54742 124.194L7.55118 124.188L6.31747 123.335ZM14.0305 115.75L13.2065 114.497L13.2012 114.5L14.0305 115.75ZM23.8743 111.872L24.115 113.353L25.3743 113.148V111.872H23.8743ZM23.8743 111.403H25.3743V110.219L24.2222 109.944L23.8743 111.403ZM14.2862 104.287L15.5923 103.549L15.5923 103.549L14.2862 104.287ZM12.4112 91.5028L10.9345 91.2395L10.9343 91.2407L12.4112 91.5028ZM18.1641 79.6562L17.0409 78.662L17.0404 78.6626L18.1641 79.6562ZM29.7124 71.517L30.2971 72.8984L30.3043 72.8953L29.7124 71.517ZM59.7124 71.6449L59.0378 72.9847L59.0378 72.9847L59.7124 71.6449ZM70.7493 92.3125L72.2284 92.5619L72.2299 92.5531L70.7493 92.3125ZM64.3146 104.798L63.2583 103.733L63.254 103.738L64.3146 104.798ZM52.2976 111.403L51.9877 109.936L50.7976 110.187V111.403H52.2976ZM52.2976 111.872H50.7976V113.125L52.0304 113.348L52.2976 111.872ZM60.9055 115.92L59.9272 117.057L59.9337 117.063L60.9055 115.92ZM66.3175 123.761L67.7272 123.249L67.7272 123.249L66.3175 123.761ZM67.0419 134.031L65.5645 133.772L65.5631 133.78L65.5618 133.788L67.0419 134.031ZM60.8629 146.474L59.7601 145.458L59.7601 145.458L60.8629 146.474ZM48.0788 155.082L48.6399 156.474L48.6438 156.472L48.0788 155.082ZM41.3459 144.259L41.951 145.631L41.9578 145.628L41.3459 144.259ZM47.9084 139.358L49.0672 140.31L49.0735 140.303L47.9084 139.358ZM51.147 132.071L52.627 132.315L52.6282 132.308L52.6294 132.3L51.147 132.071ZM50.2521 124.827L48.9033 125.483L48.9068 125.49L50.2521 124.827ZM45.3942 119.969L44.6892 121.293L44.6994 121.298L44.7097 121.303L45.3942 119.969ZM28.7322 120.097L28.1018 118.735L28.1018 118.735L28.7322 120.097ZM21.9993 125.295L20.8324 124.353L20.8324 124.353L21.9993 125.295ZM18.6328 132.881L20.1137 133.12L20.114 133.118L18.6328 132.881ZM19.4425 139.827L18.0932 140.482L18.0989 140.494L18.1047 140.505L19.4425 139.827ZM24.2152 144.386L23.5514 145.731L23.5582 145.735L24.2152 144.386ZM46.5021 104.543L45.838 103.198L45.838 103.198L46.5021 104.543ZM52.255 99.8551L53.4427 100.771L53.4489 100.763L52.255 99.8551ZM55.2379 92.9943L56.7148 93.2569L56.7166 93.2464L55.2379 92.9943ZM54.6413 86.517L53.2671 87.1183L53.271 87.1272L53.2751 87.1361L54.6413 86.517ZM50.6357 82.3409L49.9404 83.6701L49.9487 83.6744L50.6357 82.3409ZM36.0618 82.5114L35.4311 81.1504L35.4247 81.1534L36.0618 82.5114ZM30.309 87.071L29.1277 86.1466L29.1259 86.1489L30.309 87.071ZM27.4112 93.8466L28.8899 94.0986L28.8913 94.0905L27.4112 93.8466ZM28.0504 100.409L26.6849 101.03L26.6906 101.042L26.6965 101.055L28.0504 100.409ZM32.1413 104.713L31.4146 106.025L31.4231 106.03L32.1413 104.713ZM31.0334 156.693C24.809 156.693 19.5424 155.628 15.1858 153.557L13.898 156.267C18.7459 158.571 24.4737 159.693 31.0334 159.693V156.693ZM15.1858 153.557C10.8095 151.477 7.64874 148.683 5.60853 145.204L3.02073 146.722C5.41234 150.8 9.06976 153.972 13.898 156.267L15.1858 153.557ZM5.61277 145.212C3.61743 141.765 2.9624 137.878 3.70567 133.471L0.747456 132.972C-0.100184 137.997 0.636827 142.604 3.01649 146.715L5.61277 145.212ZM3.70421 133.48C4.2911 130.118 5.56921 127.028 7.54741 124.194L5.08754 122.477C2.86119 125.666 1.41203 129.166 0.748917 132.964L3.70421 133.48ZM7.55118 124.188C9.54653 121.303 11.981 118.91 14.8599 117L13.2012 114.5C10.0005 116.624 7.29296 119.288 5.08377 122.482L7.55118 124.188ZM14.8545 117.003C17.7532 115.098 20.8367 113.886 24.115 113.353L23.6336 110.392C19.9232 110.995 16.4443 112.368 13.2065 114.497L14.8545 117.003ZM25.3743 111.872V111.403H22.3743V111.872H25.3743ZM24.2222 109.944C20.3236 109.015 17.4821 106.895 15.5923 103.549L12.9802 105.025C15.2949 109.122 18.8454 111.747 23.5264 112.863L24.2222 109.944ZM15.5923 103.549C13.6852 100.173 13.0877 96.2742 13.8881 91.765L10.9343 91.2407C10.0302 96.3338 10.6827 100.957 12.9802 105.025L15.5923 103.549ZM13.8879 91.7662C14.6344 87.5809 16.428 83.8838 19.2877 80.6499L17.0404 78.6626C13.8206 82.3037 11.779 86.5044 10.9345 91.2395L13.8879 91.7662ZM19.2872 80.6505C22.1946 77.3663 25.8544 74.779 30.2971 72.8984L29.1276 70.1357C24.3089 72.1755 20.2699 75.0144 17.0409 78.662L19.2872 80.6505ZM30.3043 72.8953C34.7292 70.995 39.6245 70.0341 45.0107 70.0341V67.0341C39.2604 67.0341 33.9569 68.0618 29.1205 70.1388L30.3043 72.8953ZM45.0107 70.0341C50.5116 70.0341 55.1707 71.0378 59.0378 72.9847L60.3869 70.3051C56.0154 68.1043 50.8734 67.0341 45.0107 67.0341V70.0341ZM59.0378 72.9847C62.9236 74.9409 65.7386 77.5694 67.5631 80.8535L70.1855 79.3965C68.0327 75.5215 64.7398 72.4966 60.3869 70.3051L59.0378 72.9847ZM67.5631 80.8535C69.3676 84.1016 69.9604 87.8155 69.2687 92.0719L72.2299 92.5531C73.0155 87.7185 72.3583 83.3074 70.1855 79.3965L67.5631 80.8535ZM69.2702 92.0631C68.4976 96.6451 66.4979 100.52 63.2583 103.733L65.3709 105.863C69.0632 102.201 71.3532 97.7526 72.2284 92.5619L69.2702 92.0631ZM63.254 103.738C60.0133 106.978 56.2654 109.032 51.9877 109.936L52.6075 112.871C57.4775 111.843 61.7409 109.493 65.3753 105.859L63.254 103.738ZM50.7976 111.403V111.872H53.7976V111.403H50.7976ZM52.0304 113.348C55.0735 113.899 57.6947 115.137 59.9272 117.057L61.8839 114.783C59.23 112.5 56.1125 111.038 52.5648 110.396L52.0304 113.348ZM59.9337 117.063C62.2021 118.993 63.858 121.387 64.9078 124.274L67.7272 123.249C66.5042 119.886 64.5521 117.053 61.8774 114.778L59.9337 117.063ZM64.9078 124.274C65.9427 127.12 66.1788 130.273 65.5645 133.772L68.5193 134.291C69.2119 130.346 68.965 126.653 67.7272 123.249L64.9078 124.274ZM65.5618 133.788C64.8447 138.144 62.9238 142.026 59.7601 145.458L61.9658 147.491C65.5066 143.65 67.705 139.237 68.522 134.275L65.5618 133.788ZM59.7601 145.458C56.5756 148.912 52.5062 151.663 47.5139 153.693L48.6438 156.472C53.9924 154.297 58.4457 151.31 61.9658 147.491L59.7601 145.458ZM47.5178 153.691C42.5745 155.685 37.0861 156.693 31.0334 156.693V159.693C37.4238 159.693 43.299 158.628 48.6399 156.474L47.5178 153.691ZM32.3118 147.506C35.8656 147.506 39.0885 146.893 41.951 145.631L40.7408 142.886C38.3192 143.954 35.5193 144.506 32.3118 144.506V147.506ZM41.9578 145.628C44.821 144.349 47.2022 142.579 49.0672 140.31L46.7496 138.406C45.2055 140.284 43.2116 141.782 40.734 142.889L41.9578 145.628ZM49.0735 140.303C50.9474 137.992 52.1315 135.319 52.627 132.315L49.667 131.827C49.2534 134.334 48.2784 136.52 46.7432 138.413L49.0735 140.303ZM52.6294 132.3C53.0928 129.304 52.7825 126.566 51.5974 124.163L48.9068 125.49C49.7672 127.235 50.0536 129.327 49.6646 131.842L52.6294 132.3ZM51.601 124.171C50.4266 121.756 48.5636 119.908 46.0787 118.634L44.7097 121.303C46.6566 122.302 48.0322 123.692 48.9033 125.483L51.601 124.171ZM46.0992 118.645C43.6508 117.341 40.7839 116.722 37.5533 116.722V119.722C40.4022 119.722 42.7626 120.267 44.6892 121.293L46.0992 118.645ZM37.5533 116.722C34.1692 116.722 31.0118 117.388 28.1018 118.735L29.3626 121.458C31.8504 120.305 34.5737 119.722 37.5533 119.722V116.722ZM28.1018 118.735C25.2039 120.078 22.773 121.95 20.8324 124.353L23.1662 126.238C24.8051 124.209 26.8628 122.615 29.3626 121.458L28.1018 118.735ZM20.8324 124.353C18.8763 126.775 17.6471 129.547 17.1517 132.644L20.114 133.118C20.5276 130.533 21.5427 128.248 23.1662 126.238L20.8324 124.353ZM17.152 132.642C16.6872 135.523 16.9663 138.162 18.0932 140.482L20.7917 139.171C19.9868 137.514 19.7261 135.522 20.1137 133.12L17.152 132.642ZM18.1047 140.505C19.2618 142.786 21.1067 144.525 23.5514 145.731L24.879 143.041C22.9487 142.089 21.6117 140.787 20.7802 139.148L18.1047 140.505ZM23.5582 145.735C26.0294 146.939 28.9662 147.506 32.3118 147.506V144.506C29.2937 144.506 26.8328 143.993 24.8722 143.038L23.5582 145.735ZM38.8743 107.747C41.8688 107.747 44.6415 107.134 47.1663 105.888L45.838 103.198C43.7605 104.224 41.4479 104.747 38.8743 104.747V107.747ZM47.1663 105.888C49.6677 104.652 51.7659 102.945 53.4426 100.771L51.0673 98.9389C49.6759 100.743 47.9388 102.16 45.838 103.198L47.1663 105.888ZM53.4489 100.763C55.1309 98.5517 56.2196 96.0422 56.7148 93.2569L53.7611 92.7318C53.3472 95.06 52.4473 97.1245 51.0611 98.9471L53.4489 100.763ZM56.7166 93.2464C57.1795 90.5309 56.9846 88.0541 56.0076 85.8979L53.2751 87.1361C53.9458 88.6163 54.1487 90.4577 53.7593 92.7423L56.7166 93.2464ZM56.0156 85.9158C55.0729 83.7611 53.4833 82.1205 51.3226 81.0074L49.9487 83.6744C51.538 84.4931 52.6189 85.6366 53.2671 87.1183L56.0156 85.9158ZM51.3309 81.0118C49.2158 79.9054 46.6893 79.392 43.8175 79.392V82.392C46.3434 82.392 48.3623 82.8446 49.9404 83.6701L51.3309 81.0118ZM43.8175 79.392C40.7821 79.392 37.9785 79.9699 35.4311 81.1504L36.6925 83.8723C38.8042 82.8937 41.171 82.392 43.8175 82.392V79.392ZM35.4247 81.1534C32.9154 82.3306 30.8098 83.9972 29.1277 86.1466L31.4902 87.9955C32.8762 86.2244 34.6059 84.8512 36.6989 83.8694L35.4247 81.1534ZM29.1259 86.1489C27.4554 88.2921 26.3952 90.7879 25.9312 93.6026L28.8913 94.0905C29.2796 91.7349 30.1511 89.7135 31.492 87.9931L29.1259 86.1489ZM25.9326 93.5945C25.4678 96.3213 25.6824 98.8243 26.6849 101.03L29.416 99.7884C28.7139 98.2439 28.5024 96.3719 28.8899 94.0986L25.9326 93.5945ZM26.6965 101.055C27.7162 103.193 29.3039 104.856 31.4146 106.025L32.8681 103.401C31.2856 102.524 30.146 101.318 29.4043 99.7634L26.6965 101.055ZM31.4231 106.03C33.5625 107.197 36.0653 107.747 38.8743 107.747V104.747C36.456 104.747 34.4701 104.275 32.8596 103.396L31.4231 106.03Z" fill="#00FFBF" mask="url(#path-1-outside-1_960_1894)"/>
</g>
<defs>
<clipPath id="clip0_960_1894">
<rect width="180" height="160" fill="white"/>
</clipPath>
</defs>
</svg>
